<svg width="187" height="32" viewBox="0 0 187 32" fill="none" xmlns="http://www.w3.org/2000/svg">
<path d="M20.5234 31H26.9102L17.125 2.81641H10.1914L0.40625 31H6.32422L8.49219 24.2812H18.3945L20.5234 31ZM13.2969 8.67578H13.6484L17.1445 19.7305H9.76172L13.2969 8.67578ZM49.0391 17.0547C48.5703 12.1523 45.1523 8.98828 39.4492 8.98828C32.7109 8.98828 28.9219 13.0312 28.9219 20.1797C28.9219 27.4062 32.7305 31.4688 39.4492 31.4688C45.0547 31.4688 48.5703 28.3633 49.0391 23.5391H43.7266C43.2969 25.668 41.7734 26.8008 39.4492 26.8008C36.4023 26.8008 34.6641 24.4766 34.6641 20.1797C34.6641 15.9414 36.3828 13.6562 39.4492 13.6562C41.8711 13.6562 43.3359 15.0039 43.7266 17.0547H49.0391ZM55.3086 4.33984V9.67188H51.9492V14.1445H55.3086V25.1797C55.3086 29.3789 57.3789 31.0781 62.6133 31.0781C63.707 31.0781 64.7617 30.9609 65.4648 30.8242V26.4883C64.918 26.5469 64.5273 26.5664 63.7852 26.5664C61.8516 26.5664 60.9922 25.707 60.9922 23.832V14.1445H65.4648V9.67188H60.9922V4.33984H55.3086ZM70.25 31H75.9336V9.45703H70.25V31ZM73.1016 6.44922C75.1328 6.44922 76.4609 5.25781 76.4609 3.57812C76.4609 1.87891 75.1328 0.707031 73.1016 0.707031C71.0508 0.707031 69.7422 1.87891 69.7422 3.57812C69.7422 5.25781 71.0508 6.44922 73.1016 6.44922ZM101.168 9.45703H95.1719L90.7578 25.5117H90.4062L85.9531 9.45703H79.8398L87.3203 31H93.7266L101.168 9.45703ZM105.055 31H110.738V9.45703H105.055V31ZM107.906 6.44922C109.938 6.44922 111.266 5.25781 111.266 3.57812C111.266 1.87891 109.938 0.707031 107.906 0.707031C105.855 0.707031 104.547 1.87891 104.547 3.57812C104.547 5.25781 105.855 6.44922 107.906 6.44922ZM118.121 4.33984V9.67188H114.762V14.1445H118.121V25.1797C118.121 29.3789 120.191 31.0781 125.426 31.0781C126.52 31.0781 127.574 30.9609 128.277 30.8242V26.4883C127.73 26.5469 127.34 26.5664 126.598 26.5664C124.664 26.5664 123.805 25.707 123.805 23.832V14.1445H128.277V9.67188H123.805V4.33984H118.121ZM133.062 31H138.746V9.45703H133.062V31ZM135.914 6.44922C137.945 6.44922 139.273 5.25781 139.273 3.57812C139.273 1.87891 137.945 0.707031 135.914 0.707031C133.863 0.707031 132.555 1.87891 132.555 3.57812C132.555 5.25781 133.863 6.44922 135.914 6.44922ZM153.824 13.3438C156.48 13.3438 158.199 15.1211 158.316 17.9727H149.137C149.332 15.1797 151.188 13.3438 153.824 13.3438ZM158.434 24.8672C157.828 26.293 156.285 27.0938 154.039 27.0938C151.07 27.0938 149.195 25.1016 149.117 21.8984V21.6055H163.902V19.8672C163.902 13.0312 160.152 8.98828 153.805 8.98828C147.398 8.98828 143.453 13.3242 143.453 20.3359C143.453 27.3281 147.32 31.4688 153.883 31.4688C159.156 31.4688 162.867 28.9297 163.727 24.8672H158.434ZM168.082 15.7852C168.082 19.1055 170.113 21.0977 174.293 22.0156L178.199 22.8945C180.094 23.3047 180.914 23.9492 180.914 25.0039C180.914 26.3906 179.391 27.3086 177.184 27.3086C174.918 27.3086 173.531 26.4688 173.102 25.0039H167.555C167.945 29.1445 171.383 31.4688 177.066 31.4688C182.711 31.4688 186.559 28.6562 186.559 24.3594C186.559 21.1367 184.684 19.3789 180.504 18.4609L176.461 17.582C174.469 17.1328 173.551 16.4883 173.551 15.4336C173.551 14.0664 175.055 13.1484 177.086 13.1484C179.195 13.1484 180.504 14.0078 180.797 15.3945H186.051C185.738 11.2734 182.516 8.98828 177.047 8.98828C171.676 8.98828 168.082 11.7031 168.082 15.7852Z" fill="#33404F"/>
</svg>
