<svg width="108" height="22" viewBox="0 0 108 22" fill="none" xmlns="http://www.w3.org/2000/svg">
<path d="M15.2441 21H18.498L11.375 1.27148H8.08008L0.957031 21H4.10156L5.91992 15.7637H13.4395L15.2441 21ZM9.57031 4.85352H9.80273L12.6602 13.1934H6.69922L9.57031 4.85352ZM21.0137 15.6953C21.2324 19.2227 24.1719 21.4785 28.5469 21.4785C33.2227 21.4785 36.1484 19.1133 36.1484 15.3398C36.1484 12.373 34.4805 10.7324 30.4336 9.78906L28.2598 9.25586C25.6895 8.6543 24.6504 7.84766 24.6504 6.43945C24.6504 4.66211 26.2637 3.5 28.6836 3.5C30.9805 3.5 32.5664 4.63477 32.8535 6.45312H35.834C35.6562 3.13086 32.7305 0.792969 28.7246 0.792969C24.418 0.792969 21.5469 3.13086 21.5469 6.64453C21.5469 9.54297 23.1738 11.2656 26.7422 12.0996L29.2852 12.7148C31.8965 13.3301 33.0449 14.2324 33.0449 15.7363C33.0449 17.4863 31.2402 18.7578 28.7793 18.7578C26.1406 18.7578 24.3086 17.5684 24.0488 15.6953H21.0137ZM39.252 15.6953C39.4707 19.2227 42.4102 21.4785 46.7852 21.4785C51.4609 21.4785 54.3867 19.1133 54.3867 15.3398C54.3867 12.373 52.7188 10.7324 48.6719 9.78906L46.498 9.25586C43.9277 8.6543 42.8887 7.84766 42.8887 6.43945C42.8887 4.66211 44.502 3.5 46.9219 3.5C49.2188 3.5 50.8047 4.63477 51.0918 6.45312H54.0723C53.8945 3.13086 50.9688 0.792969 46.9629 0.792969C42.6562 0.792969 39.7852 3.13086 39.7852 6.64453C39.7852 9.54297 41.4121 11.2656 44.9805 12.0996L47.5234 12.7148C50.1348 13.3301 51.2832 14.2324 51.2832 15.7363C51.2832 17.4863 49.4785 18.7578 47.0176 18.7578C44.3789 18.7578 42.5469 17.5684 42.2871 15.6953H39.252ZM70.9434 18.2109H61.4824V12.291H70.4375V9.63867H61.4824V4.06055H70.9434V1.27148H58.4199V21H70.9434V18.2109ZM83.4395 21V4.06055H89.6328V1.27148H74.1699V4.06055H80.377V21H83.4395ZM92.4629 15.6953C92.6816 19.2227 95.6211 21.4785 99.9961 21.4785C104.672 21.4785 107.598 19.1133 107.598 15.3398C107.598 12.373 105.93 10.7324 101.883 9.78906L99.709 9.25586C97.1387 8.6543 96.0996 7.84766 96.0996 6.43945C96.0996 4.66211 97.7129 3.5 100.133 3.5C102.43 3.5 104.016 4.63477 104.303 6.45312H107.283C107.105 3.13086 104.18 0.792969 100.174 0.792969C95.8672 0.792969 92.9961 3.13086 92.9961 6.64453C92.9961 9.54297 94.623 11.2656 98.1914 12.0996L100.734 12.7148C103.346 13.3301 104.494 14.2324 104.494 15.7363C104.494 17.4863 102.689 18.7578 100.229 18.7578C97.5898 18.7578 95.7578 17.5684 95.498 15.6953H92.4629Z" fill="white"/>
</svg>
