<svg width="730" height="404" viewBox="0 0 730 404" fill="none" xmlns="http://www.w3.org/2000/svg">
<g filter="url(#filter0_d_9_70)">
<rect width="750" height="132" transform="translate(-24)" fill="white"/>
<path d="M57 100.167C75.8697 100.167 91.1667 84.8697 91.1667 66C91.1667 47.1302 75.8697 31.8333 57 31.8333C38.1303 31.8333 22.8333 47.1302 22.8333 66C22.8333 84.8697 38.1303 100.167 57 100.167Z" fill="#00DDA3"/>
<path d="M58.4549 54.6975C57.7878 53.6135 56.2122 53.6136 55.5451 54.6976L44.9356 71.938C44.2351 73.0762 45.054 74.5416 46.3905 74.5416H67.6095C68.9459 74.5416 69.7648 73.0762 69.0644 71.938L58.4549 54.6975Z" fill="white"/>
<path d="M124.987 59V50.7676H133.586V47.1494H124.987V41.6416H134.406V37.8623H120.563V59H124.987ZM145.231 59.3516C150.197 59.3516 153.186 56.2021 153.186 50.9141C153.186 45.6699 150.153 42.4912 145.231 42.4912C140.31 42.4912 137.277 45.6846 137.277 50.9141C137.277 56.2021 140.266 59.3516 145.231 59.3516ZM145.231 55.8652C142.946 55.8652 141.657 54.0635 141.657 50.9141C141.657 47.8086 142.961 45.9775 145.231 45.9775C147.487 45.9775 148.806 47.8086 148.806 50.9141C148.806 54.0488 147.502 55.8652 145.231 55.8652ZM163.835 59.3516C168.801 59.3516 171.789 56.2021 171.789 50.9141C171.789 45.6699 168.757 42.4912 163.835 42.4912C158.913 42.4912 155.881 45.6846 155.881 50.9141C155.881 56.2021 158.869 59.3516 163.835 59.3516ZM163.835 55.8652C161.55 55.8652 160.261 54.0635 160.261 50.9141C160.261 47.8086 161.564 45.9775 163.835 45.9775C166.091 45.9775 167.409 47.8086 167.409 50.9141C167.409 54.0488 166.105 55.8652 163.835 55.8652ZM181.062 59.249C183.303 59.249 185.134 58.209 185.998 56.4658H186.262V59H190.393V36.6758H186.13V45.4209H185.881C185.046 43.6338 183.244 42.5791 181.062 42.5791C177.004 42.5791 174.484 45.7578 174.484 50.8994C174.484 56.0557 176.989 59.249 181.062 59.249ZM182.512 46.1533C184.782 46.1533 186.174 47.9844 186.174 50.9287C186.174 53.8877 184.797 55.6895 182.512 55.6895C180.227 55.6895 178.864 53.9023 178.864 50.9141C178.864 47.9551 180.241 46.1533 182.512 46.1533ZM217.58 59H222.37L218.444 54.8691C219.587 53.3311 220.246 51.0898 220.246 48.5557V47.2373H216.657V48.2773C216.657 50.0352 216.408 51.251 215.91 52.1299L211.853 47.9258C214.812 46.3291 216.159 44.5713 216.159 42.3887C216.159 39.5322 213.713 37.54 210.256 37.54C206.784 37.54 204.235 39.6201 204.235 42.4766C204.235 44.0293 204.924 45.3477 206.857 47.3252C206.74 47.3838 206.008 47.8086 205.92 47.8379C203.195 49.332 201.979 51.0605 201.979 53.4775C201.979 57.0811 204.88 59.4102 209.377 59.4102C211.97 59.4102 214.387 58.6191 215.954 57.2861L217.58 59ZM208.249 49.9473C208.41 49.8594 208.703 49.7129 208.864 49.6543L213.713 54.7666C212.878 55.6455 211.354 56.2021 209.816 56.2021C207.531 56.2021 205.979 54.957 205.979 53.1113C205.979 51.8223 206.711 50.7822 208.249 49.9473ZM209.875 45.8604C208.425 44.4834 207.912 43.6777 207.912 42.7109C207.912 41.3926 208.894 40.4697 210.271 40.4697C211.647 40.4697 212.6 41.3779 212.6 42.7109C212.6 43.9561 211.809 44.8936 209.875 45.8604ZM242.556 59C247.067 59 249.865 56.6562 249.865 52.9502C249.865 50.2256 247.829 48.1162 245.031 47.9111V47.6475C247.199 47.3252 248.854 45.377 248.854 43.1357C248.854 39.8691 246.408 37.8623 242.307 37.8623H233.063V59H242.556ZM237.487 41.2461H241.179C243.288 41.2461 244.504 42.2568 244.504 43.9414C244.504 45.6406 243.2 46.6221 240.812 46.6221H237.487V41.2461ZM237.487 55.6162V49.6104H241.325C243.933 49.6104 245.354 50.6357 245.354 52.5693C245.354 54.5469 243.977 55.6162 241.428 55.6162H237.487ZM260.427 45.7578C262.419 45.7578 263.708 47.0908 263.796 49.2295H256.911C257.058 47.1348 258.449 45.7578 260.427 45.7578ZM263.884 54.4004C263.43 55.4697 262.272 56.0703 260.588 56.0703C258.361 56.0703 256.955 54.5762 256.896 52.1738V51.9541H267.985V50.6504C267.985 45.5234 265.173 42.4912 260.412 42.4912C255.607 42.4912 252.648 45.7432 252.648 51.002C252.648 56.2461 255.549 59.3516 260.471 59.3516C264.426 59.3516 267.209 57.4473 267.854 54.4004H263.884ZM285.651 42.8428H281.154L277.844 54.8838H277.58L274.24 42.8428H269.655L275.266 59H280.07L285.651 42.8428ZM294.851 45.7578C296.843 45.7578 298.132 47.0908 298.22 49.2295H291.335C291.481 47.1348 292.873 45.7578 294.851 45.7578ZM298.308 54.4004C297.854 55.4697 296.696 56.0703 295.012 56.0703C292.785 56.0703 291.379 54.5762 291.32 52.1738V51.9541H302.409V50.6504C302.409 45.5234 299.597 42.4912 294.836 42.4912C290.031 42.4912 287.072 45.7432 287.072 51.002C287.072 56.2461 289.973 59.3516 294.895 59.3516C298.85 59.3516 301.633 57.4473 302.277 54.4004H298.308ZM305.91 59H310.173V50.0498C310.173 47.7793 311.77 46.4023 314.099 46.4023C314.787 46.4023 315.783 46.5342 316.12 46.666V42.7842C315.754 42.6523 315.036 42.5791 314.45 42.5791C312.399 42.5791 310.729 43.8096 310.305 45.4209H310.041V42.8428H305.91V59ZM324.514 56.041C323.034 56.041 321.994 55.3086 321.994 54.1074C321.994 52.9502 322.888 52.291 324.719 52.1592L327.985 51.9541V53.1406C327.985 54.7812 326.491 56.041 324.514 56.041ZM323.107 59.249C325.202 59.249 326.96 58.3701 327.795 56.8906H328.059V59H332.189V47.9697C332.189 44.5127 329.772 42.4912 325.495 42.4912C321.438 42.4912 318.698 44.3662 318.42 47.3545H322.346C322.697 46.3877 323.723 45.8604 325.261 45.8604C327.019 45.8604 327.985 46.6221 327.985 47.9697V49.2881L324.074 49.5225C320.061 49.7568 317.819 51.4561 317.819 54.3857C317.819 57.3447 320.002 59.249 323.107 59.249ZM343.557 55.3965C341.242 55.3965 339.924 53.624 339.924 50.7676C339.924 47.9404 341.257 46.1533 343.557 46.1533C345.856 46.1533 347.248 47.9404 347.248 50.7822C347.248 53.624 345.871 55.3965 343.557 55.3965ZM343.498 65.123C348.376 65.123 351.467 62.7354 351.467 58.9414V42.8428H347.336V45.4355H347.072C346.208 43.6631 344.348 42.5791 342.165 42.5791C338.063 42.5791 335.544 45.7725 335.544 50.7822C335.544 55.6455 338.049 58.7656 342.077 58.7656C344.348 58.7656 346.047 57.8574 346.94 56.1582H347.204V59.1465C347.204 60.9629 345.871 62.0176 343.586 62.0176C341.74 62.0176 340.539 61.3877 340.319 60.3916H336.101C336.364 63.2334 339.206 65.123 343.498 65.123ZM362.731 45.7578C364.724 45.7578 366.013 47.0908 366.101 49.2295H359.216C359.362 47.1348 360.754 45.7578 362.731 45.7578ZM366.188 54.4004C365.734 55.4697 364.577 56.0703 362.893 56.0703C360.666 56.0703 359.26 54.5762 359.201 52.1738V51.9541H370.29V50.6504C370.29 45.5234 367.478 42.4912 362.717 42.4912C357.912 42.4912 354.953 45.7432 354.953 51.002C354.953 56.2461 357.854 59.3516 362.775 59.3516C366.73 59.3516 369.514 57.4473 370.158 54.4004H366.188Z" fill="#33404F"/>
<path opacity="0.5" d="M122.351 97V90.5762H129.011V88.4492H122.351V83.6904H129.623V81.499H119.944V97H122.351ZM132.523 97H134.822V85.3018H132.523V97ZM133.673 83.25C134.532 83.25 135.166 82.6377 135.166 81.8428C135.166 81.0371 134.532 80.4248 133.673 80.4248C132.813 80.4248 132.18 81.0371 132.18 81.8428C132.18 82.6377 132.813 83.25 133.673 83.25ZM148.121 85.3018H145.672L142.771 94.5293H142.589L139.678 85.3018H137.207L141.429 97H143.91L148.121 85.3018ZM154.813 87.042C156.521 87.042 157.639 88.2344 157.692 90.0713H151.784C151.913 88.2451 153.105 87.042 154.813 87.042ZM157.682 93.8418C157.252 94.7549 156.296 95.2598 154.899 95.2598C153.052 95.2598 151.859 93.96 151.784 91.9082V91.7793H160.045V90.9736C160.045 87.2998 158.079 85.0762 154.824 85.0762C151.526 85.0762 149.432 87.4502 149.432 91.1885C149.432 94.9268 151.483 97.2256 154.835 97.2256C157.51 97.2256 159.379 95.9365 159.905 93.8418H157.682ZM178.769 94.7871H171.507V81.499H169.101V97H178.769V94.7871ZM185.955 97.2256C189.371 97.2256 191.466 94.9375 191.466 91.1455C191.466 87.375 189.36 85.0762 185.955 85.0762C182.539 85.0762 180.434 87.375 180.434 91.1455C180.434 94.9375 182.528 97.2256 185.955 97.2256ZM185.955 95.1738C183.946 95.1738 182.818 93.7021 182.818 91.1455C182.818 88.6104 183.946 87.1279 185.955 87.1279C187.953 87.1279 189.092 88.6104 189.092 91.1455C189.092 93.6914 187.953 95.1738 185.955 95.1738ZM198.523 97.1934C200.135 97.1934 201.499 96.4307 202.197 95.1523H202.38V97H204.593V80.7363H202.283V87.1602H202.111C201.478 85.8711 200.124 85.1084 198.523 85.1084C195.569 85.1084 193.668 87.4502 193.668 91.1455C193.668 94.8516 195.548 97.1934 198.523 97.1934ZM199.179 87.1816C201.112 87.1816 202.326 88.7178 202.326 91.1562C202.326 93.6055 201.123 95.1201 199.179 95.1201C197.224 95.1201 196.053 93.627 196.053 91.1455C196.053 88.6855 197.234 87.1816 199.179 87.1816ZM207.794 88.6104C207.794 90.3506 208.825 91.3496 211.049 91.876L213.09 92.3486C214.261 92.6279 214.809 93.0791 214.809 93.7773C214.809 94.7119 213.788 95.3564 212.349 95.3564C210.952 95.3564 210.093 94.7979 209.803 93.8955H207.493C207.697 95.9688 209.513 97.2256 212.295 97.2256C215.088 97.2256 217.14 95.7539 217.14 93.5518C217.14 91.833 216.098 90.877 213.874 90.3613L211.93 89.9102C210.662 89.6201 210.071 89.1797 210.071 88.4814C210.071 87.5684 211.049 86.9561 212.338 86.9561C213.648 86.9561 214.486 87.5039 214.701 88.3633H216.914C216.688 86.3008 214.97 85.0762 212.338 85.0762C209.695 85.0762 207.794 86.5371 207.794 88.6104Z" fill="#33404F"/>
<path d="M598.827 52.335H604.877V48.5557H598.827V42.5791H595.092V48.5557H589.057V52.335H595.092V58.3262H598.827V52.335ZM609.228 44.1904V44.2637H613.329V44.1758C613.329 42.2275 614.735 40.8799 616.786 40.8799C618.72 40.8799 620.097 42.0811 620.097 43.7803C620.097 45.1572 619.35 46.2559 616.376 49.1562L609.477 55.9092V59H624.726V55.3232H615.468V55.0596L619.511 51.207C623.173 47.7646 624.418 45.7871 624.418 43.4873C624.418 39.8545 621.342 37.3203 616.933 37.3203C612.362 37.3203 609.228 40.1035 609.228 44.1904ZM637.045 59.542C642.128 59.542 645.6 57.0225 645.6 53.3164C645.6 50.6211 643.739 48.4824 640.927 47.9551V47.6914C643.241 47.1494 644.735 45.3477 644.735 43.0918C644.735 39.7227 641.542 37.3203 637.06 37.3203C632.562 37.3203 629.369 39.7227 629.369 43.0918C629.369 45.333 630.878 47.1641 633.178 47.6914V47.9551C630.351 48.585 628.52 50.709 628.52 53.3604C628.52 57.0371 631.962 59.542 637.045 59.542ZM637.045 56.2021C634.73 56.2021 633.119 54.8691 633.119 52.9502C633.119 51.0166 634.73 49.6836 637.045 49.6836C639.374 49.6836 640.985 51.0166 640.985 52.9502C640.985 54.8691 639.374 56.2021 637.045 56.2021ZM637.045 46.417C635.097 46.417 633.734 45.2158 633.734 43.5166C633.734 41.8027 635.082 40.6016 637.045 40.6016C639.008 40.6016 640.37 41.8027 640.37 43.5166C640.37 45.2158 639.008 46.417 637.045 46.417ZM651.518 59.3955C653.1 59.3955 654.11 58.3262 654.11 56.8467C654.11 55.3672 653.1 54.3125 651.518 54.3125C649.95 54.3125 648.925 55.3672 648.925 56.8467C648.925 58.3262 649.95 59.3955 651.518 59.3955ZM662.431 59H666.854V37.8623H662.445L656.981 41.627V45.7432L662.167 42.1689H662.431V59ZM677.841 59H682.265V37.8623H677.855L672.392 41.627V45.7432L677.577 42.1689H677.841V59Z" fill="#33404F"/>
<path opacity="0.5" d="M620.677 97V90.5762H627.337V88.4492H620.677V83.6904H627.949V81.499H618.271V97H620.677ZM635.608 87.042C637.316 87.042 638.434 88.2344 638.487 90.0713H632.579C632.708 88.2451 633.9 87.042 635.608 87.042ZM638.477 93.8418C638.047 94.7549 637.091 95.2598 635.694 95.2598C633.847 95.2598 632.654 93.96 632.579 91.9082V91.7793H640.84V90.9736C640.84 87.2998 638.874 85.0762 635.619 85.0762C632.321 85.0762 630.227 87.4502 630.227 91.1885C630.227 94.9268 632.278 97.2256 635.63 97.2256C638.305 97.2256 640.174 95.9365 640.7 93.8418H638.477ZM649.81 97.1934C652.764 97.1934 654.644 94.8516 654.644 91.1455C654.644 87.4287 652.774 85.1084 649.81 85.1084C648.209 85.1084 646.834 85.8818 646.211 87.1602H646.028V80.7363H643.719V97H645.942V95.1523H646.114C646.812 96.4414 648.177 97.1934 649.81 97.1934ZM649.144 87.1816C651.099 87.1816 652.27 88.6855 652.27 91.1455C652.27 93.627 651.099 95.1201 649.144 95.1201C647.199 95.1201 645.996 93.6055 645.985 91.1562C645.996 88.707 647.21 87.1816 649.144 87.1816ZM663.312 85.9785V86.0107H665.59V85.9785C665.59 84.3242 666.739 83.207 668.447 83.207C670.048 83.207 671.262 84.2705 671.262 85.6885C671.262 86.8271 670.757 87.6436 668.684 89.8027L663.441 95.2598V97H673.883V94.8408H666.793V94.6582L670.241 91.167C672.841 88.5352 673.636 87.1924 673.636 85.5488C673.636 82.9922 671.466 81.123 668.522 81.123C665.472 81.123 663.312 83.1211 663.312 85.9785ZM680.758 97H683.164V81.499H680.769L676.687 84.3779V86.8379L680.575 84.0879H680.758V97Z" fill="#33404F"/>
<rect width="750" height="132" transform="translate(-24 132)" fill="white"/>
<path d="M57 232.167C75.8697 232.167 91.1667 216.87 91.1667 198C91.1667 179.13 75.8697 163.833 57 163.833C38.1303 163.833 22.8333 179.13 22.8333 198C22.8333 216.87 38.1303 232.167 57 232.167Z" fill="#33404F"/>
<path d="M56.1483 210.283C56.5388 210.917 57.4612 210.917 57.8516 210.283L69.7288 190.982C70.1388 190.316 69.6594 189.458 68.8771 189.458L45.1229 189.458C44.3406 189.458 43.8612 190.316 44.2712 190.982L56.1483 210.283Z" fill="white"/>
<path d="M119.611 185.126C119.772 189.066 123.039 191.542 128.078 191.542C133.381 191.542 136.647 188.935 136.647 184.672C136.647 181.391 134.816 179.56 130.568 178.666L128.02 178.124C125.544 177.597 124.533 176.85 124.533 175.546C124.533 173.935 125.998 172.909 128.21 172.909C130.349 172.909 131.901 174.022 132.106 175.692H136.267C136.135 171.928 132.839 169.32 128.181 169.32C123.303 169.32 120.095 171.942 120.095 175.927C120.095 179.149 121.984 181.156 125.837 181.962L128.591 182.548C131.184 183.104 132.238 183.881 132.238 185.229C132.238 186.825 130.612 187.938 128.312 187.938C125.822 187.938 124.094 186.84 123.889 185.126H119.611ZM140.559 191H144.821V181.728C144.821 179.633 146.052 178.212 148.19 178.212C150.124 178.212 151.164 179.369 151.164 181.61V191H155.427V180.6C155.427 176.718 153.361 174.535 149.89 174.535C147.517 174.535 145.759 175.648 145.012 177.494H144.748V168.676H140.559V191ZM166.735 191.352C171.701 191.352 174.689 188.202 174.689 182.914C174.689 177.67 171.657 174.491 166.735 174.491C161.813 174.491 158.781 177.685 158.781 182.914C158.781 188.202 161.77 191.352 166.735 191.352ZM166.735 187.865C164.45 187.865 163.161 186.063 163.161 182.914C163.161 179.809 164.465 177.978 166.735 177.978C168.991 177.978 170.31 179.809 170.31 182.914C170.31 186.049 169.006 187.865 166.735 187.865ZM187.507 174.579C185.28 174.579 183.449 175.678 182.57 177.494H182.307V174.843H178.176V196.361H182.438V188.524H182.702C183.493 190.238 185.266 191.249 187.58 191.249C191.623 191.249 194.099 188.129 194.099 182.914C194.099 177.685 191.594 174.579 187.507 174.579ZM186.057 187.689C183.801 187.689 182.395 185.888 182.395 182.929C182.395 179.97 183.801 178.153 186.071 178.153C188.342 178.153 189.719 179.955 189.719 182.914C189.719 185.902 188.356 187.689 186.057 187.689ZM206.901 174.579C204.675 174.579 202.844 175.678 201.965 177.494H201.701V174.843H197.57V196.361H201.833V188.524H202.097C202.888 190.238 204.66 191.249 206.975 191.249C211.018 191.249 213.493 188.129 213.493 182.914C213.493 177.685 210.988 174.579 206.901 174.579ZM205.451 187.689C203.195 187.689 201.789 185.888 201.789 182.929C201.789 179.97 203.195 178.153 205.466 178.153C207.736 178.153 209.113 179.955 209.113 182.914C209.113 185.902 207.751 187.689 205.451 187.689ZM216.994 191H221.257V174.843H216.994V191ZM219.133 172.587C220.656 172.587 221.652 171.693 221.652 170.434C221.652 169.159 220.656 168.28 219.133 168.28C217.595 168.28 216.613 169.159 216.613 170.434C216.613 171.693 217.595 172.587 219.133 172.587ZM225.578 191H229.841V181.684C229.841 179.56 231.057 178.168 233.034 178.168C235.056 178.168 236.008 179.34 236.008 181.566V191H240.271V180.556C240.271 176.688 238.337 174.491 234.748 174.491C232.36 174.491 230.72 175.619 229.973 177.436H229.709V174.843H225.578V191ZM251.594 187.396C249.279 187.396 247.961 185.624 247.961 182.768C247.961 179.94 249.294 178.153 251.594 178.153C253.894 178.153 255.285 179.94 255.285 182.782C255.285 185.624 253.908 187.396 251.594 187.396ZM251.535 197.123C256.413 197.123 259.504 194.735 259.504 190.941V174.843H255.373V177.436H255.109C254.245 175.663 252.385 174.579 250.202 174.579C246.101 174.579 243.581 177.772 243.581 182.782C243.581 187.646 246.086 190.766 250.114 190.766C252.385 190.766 254.084 189.857 254.978 188.158H255.241V191.146C255.241 192.963 253.908 194.018 251.623 194.018C249.777 194.018 248.576 193.388 248.356 192.392H244.138C244.401 195.233 247.243 197.123 251.535 197.123Z" fill="#33404F"/>
<path opacity="0.5" d="M132.706 229V213.499H130.311V220.009H122.351V213.499H119.944V229H122.351V222.2H130.311V229H132.706ZM147.455 229H150.27L147.509 226.046C148.357 224.821 148.798 223.113 148.798 220.943V220.363H146.703V220.857C146.703 222.501 146.478 223.607 146.037 224.435L142.481 220.739C144.802 219.515 145.769 218.301 145.769 216.711C145.769 214.648 144.05 213.188 141.676 213.188C139.312 213.188 137.551 214.691 137.551 216.732C137.551 217.86 138.066 218.838 139.495 220.32C139.355 220.385 138.969 220.61 138.861 220.664C136.82 221.749 135.854 223.092 135.854 224.896C135.854 227.518 138.002 229.29 141.16 229.29C143.051 229.29 144.845 228.656 146.112 227.582L147.455 229ZM140.193 221.975C140.333 221.899 140.591 221.781 140.698 221.738L144.791 226.078C144.028 226.852 142.696 227.346 141.386 227.346C139.452 227.346 138.152 226.282 138.152 224.714C138.152 223.618 138.829 222.684 140.193 221.975ZM141.289 219.461C140.129 218.333 139.71 217.656 139.71 216.861C139.71 215.766 140.537 214.992 141.687 214.992C142.857 214.992 143.663 215.744 143.663 216.851C143.663 217.871 143.019 218.602 141.289 219.461ZM168.198 229V213.499H165.384L160.442 225.272H160.26L155.329 213.499H152.515V229H154.749V217.807H154.899L159.443 228.549H161.27L165.813 217.807H165.964V229H168.198ZM181.551 229H183.957V213.499H181.562L177.479 216.378V218.838L181.368 216.088H181.551V229ZM188.34 217.979V218.011H190.617V217.979C190.617 216.324 191.767 215.207 193.475 215.207C195.075 215.207 196.289 216.271 196.289 217.688C196.289 218.827 195.784 219.644 193.711 221.803L188.469 227.26V229H198.91V226.841H191.82V226.658L195.269 223.167C197.868 220.535 198.663 219.192 198.663 217.549C198.663 214.992 196.493 213.123 193.55 213.123C190.499 213.123 188.34 215.121 188.34 217.979ZM207.439 229.376C210.78 229.376 213.047 227.195 213.047 223.983C213.047 220.933 210.974 218.784 208.03 218.784C206.559 218.784 205.463 219.278 204.754 220.191H204.571L204.979 215.647H212.145V213.499H203.1L202.283 222.372H204.485C205.087 221.373 206.161 220.782 207.493 220.782C209.384 220.782 210.694 222.104 210.694 224.048C210.694 225.981 209.395 227.26 207.461 227.26C205.764 227.26 204.507 226.261 204.324 224.757H202.036C202.176 227.475 204.356 229.376 207.439 229.376ZM216.688 229H219.213L225.959 215.68V213.499H215.399V215.637H223.521V215.809L216.688 229ZM241.911 220.396L242.749 218.859L239.924 217.56L242.749 216.249L241.911 214.691L239.333 216.539L239.602 213.392H237.883L238.151 216.539L235.573 214.691L234.735 216.249L237.571 217.56L234.735 218.859L235.573 220.396L238.151 218.591L237.883 221.695H239.602L239.333 218.602L241.911 220.396ZM252.997 220.396L253.835 218.859L251.01 217.56L253.835 216.249L252.997 214.691L250.419 216.539L250.688 213.392H248.969L249.237 216.539L246.659 214.691L245.821 216.249L248.657 217.56L245.821 218.859L246.659 220.396L249.237 218.591L248.969 221.695H250.688L250.419 218.602L252.997 220.396ZM264.083 220.396L264.921 218.859L262.096 217.56L264.921 216.249L264.083 214.691L261.505 216.539L261.773 213.392H260.055L260.323 216.539L257.745 214.691L256.907 216.249L259.743 217.56L256.907 218.859L257.745 220.396L260.323 218.591L260.055 221.695H261.773L261.505 218.602L264.083 220.396ZM275.169 220.396L276.007 218.859L273.182 217.56L276.007 216.249L275.169 214.691L272.591 216.539L272.859 213.392H271.141L271.409 216.539L268.831 214.691L267.993 216.249L270.829 217.56L267.993 218.859L268.831 220.396L271.409 218.591L271.141 221.695H272.859L272.591 218.602L275.169 220.396Z" fill="#33404F"/>
<path d="M583.505 184.467V180.468H573.881V184.467H583.505ZM593.202 191H597.626V169.862H593.217L587.753 173.627V177.743L592.938 174.169H593.202V191ZM611.483 191.542C616.332 191.542 619.569 188.48 619.569 183.998C619.569 179.853 616.728 176.908 612.714 176.908C610.619 176.908 609.125 177.685 608.231 178.974H607.968L608.437 173.539H618.295V169.862H605.009L603.954 182.123H607.909C608.642 180.937 609.887 180.219 611.527 180.219C613.769 180.219 615.351 181.771 615.351 184.101C615.351 186.4 613.783 187.924 611.513 187.924C609.506 187.924 607.953 186.752 607.704 184.994H603.617C603.749 188.773 606.884 191.542 611.483 191.542ZM624.359 191H628.988L637.821 173.539V169.848H622.704V173.495H633.368V173.759L624.359 191ZM641 191.396C642.582 191.396 643.593 190.326 643.593 188.847C643.593 187.367 642.582 186.312 641 186.312C639.433 186.312 638.407 187.367 638.407 188.847C638.407 190.326 639.433 191.396 641 191.396ZM655.385 191.542C660.116 191.542 663.471 188.422 663.471 184.027C663.471 179.984 660.526 177.011 656.513 177.011C654.052 177.011 652.089 178.139 651.122 180.131H650.858C650.771 175.751 652.528 172.953 655.429 172.953C657.084 172.953 658.402 173.832 658.812 175.224H663.192C662.592 171.693 659.472 169.32 655.458 169.32C649.95 169.32 646.64 173.568 646.64 180.585C646.64 183.485 647.24 185.917 648.412 187.719C649.862 190.194 652.323 191.542 655.385 191.542ZM655.341 187.909C653.173 187.909 651.518 186.269 651.518 184.115C651.518 182.006 653.144 180.424 655.355 180.424C657.567 180.424 659.179 182.006 659.179 184.159C659.179 186.283 657.509 187.909 655.341 187.909ZM677.357 191H681.576V187.309H684.345V183.632H681.576V169.862H675.38C671.674 175.443 668.92 179.809 667.016 183.397V187.309H677.357V191ZM670.985 183.529C673.402 179.149 675.292 176.19 677.226 173.305H677.46V183.764H670.985V183.529Z" fill="#33404F"/>
<path opacity="0.5" d="M617.809 224.972C617.809 227.636 619.731 229.376 622.535 229.376C625.521 229.376 627.326 227.582 627.326 224.467V213.499H624.92V224.456C624.92 226.186 624.05 227.109 622.514 227.109C621.139 227.109 620.204 226.25 620.172 224.972H617.809ZM634.695 227.249C633.438 227.249 632.525 226.637 632.525 225.584C632.525 224.553 633.256 224.005 634.867 223.897L637.725 223.715V224.692C637.725 226.143 636.436 227.249 634.695 227.249ZM634.104 229.193C635.641 229.193 636.919 228.527 637.617 227.356H637.8V229H640.023V221.008C640.023 218.537 638.369 217.076 635.437 217.076C632.783 217.076 630.893 218.365 630.656 220.374H632.891C633.148 219.547 634.04 219.074 635.329 219.074C636.908 219.074 637.725 219.772 637.725 221.008V222.018L634.556 222.2C631.773 222.372 630.205 223.586 630.205 225.691C630.205 227.829 631.849 229.193 634.104 229.193ZM643.311 229H645.62V222.157C645.62 220.331 646.705 219.192 648.413 219.192C650.121 219.192 650.938 220.127 650.938 222.007V229H653.247V221.427C653.247 218.645 651.808 217.076 649.197 217.076C647.436 217.076 646.275 217.86 645.706 219.16H645.534V217.302H643.311V229ZM666.234 229H668.641V213.499H666.245L662.163 216.378V218.838L666.052 216.088H666.234V229ZM680.285 229H682.605V226.003H684.743V223.854H682.605V213.499H679.179C676.418 217.635 674.108 221.233 672.723 223.769V226.003H680.285V229ZM675.032 223.758C676.858 220.589 678.642 217.839 680.178 215.615H680.317V223.908H675.032V223.758Z" fill="#33404F"/>
<rect width="750" height="132" transform="translate(-24 264)" fill="white"/>
<path d="M57 364.167C75.8697 364.167 91.1667 348.87 91.1667 330C91.1667 311.13 75.8697 295.833 57 295.833C38.1303 295.833 22.8333 311.13 22.8333 330C22.8333 348.87 38.1303 364.167 57 364.167Z" fill="#00DDA3"/>
<path d="M58.4549 318.698C57.7878 317.614 56.2122 317.614 55.5451 318.698L44.9356 335.938C44.2351 337.076 45.054 338.542 46.3905 338.542H67.6095C68.9459 338.542 69.7648 337.076 69.0644 335.938L58.4549 318.698Z" fill="white"/>
<path d="M119.611 317.126C119.772 321.066 123.039 323.542 128.078 323.542C133.381 323.542 136.647 320.935 136.647 316.672C136.647 313.391 134.816 311.56 130.568 310.666L128.02 310.124C125.544 309.597 124.533 308.85 124.533 307.546C124.533 305.935 125.998 304.909 128.21 304.909C130.349 304.909 131.901 306.022 132.106 307.692H136.267C136.135 303.928 132.839 301.32 128.181 301.32C123.303 301.32 120.095 303.942 120.095 307.927C120.095 311.149 121.984 313.156 125.837 313.962L128.591 314.548C131.184 315.104 132.238 315.881 132.238 317.229C132.238 318.825 130.612 319.938 128.312 319.938C125.822 319.938 124.094 318.84 123.889 317.126H119.611ZM146.008 320.041C144.528 320.041 143.488 319.309 143.488 318.107C143.488 316.95 144.382 316.291 146.213 316.159L149.479 315.954V317.141C149.479 318.781 147.985 320.041 146.008 320.041ZM144.602 323.249C146.696 323.249 148.454 322.37 149.289 320.891H149.553V323H153.684V311.97C153.684 308.513 151.267 306.491 146.989 306.491C142.932 306.491 140.192 308.366 139.914 311.354H143.84C144.191 310.388 145.217 309.86 146.755 309.86C148.513 309.86 149.479 310.622 149.479 311.97V313.288L145.568 313.522C141.555 313.757 139.313 315.456 139.313 318.386C139.313 321.345 141.496 323.249 144.602 323.249ZM158.02 323H162.282V300.676H158.02V323ZM172.551 320.041C171.071 320.041 170.031 319.309 170.031 318.107C170.031 316.95 170.925 316.291 172.756 316.159L176.022 315.954V317.141C176.022 318.781 174.528 320.041 172.551 320.041ZM171.145 323.249C173.239 323.249 174.997 322.37 175.832 320.891H176.096V323H180.227V311.97C180.227 308.513 177.81 306.491 173.532 306.491C169.475 306.491 166.735 308.366 166.457 311.354H170.383C170.734 310.388 171.76 309.86 173.298 309.86C175.056 309.86 176.022 310.622 176.022 311.97V313.288L172.111 313.522C168.098 313.757 165.856 315.456 165.856 318.386C165.856 321.345 168.039 323.249 171.145 323.249ZM184.416 323H188.679V314.05C188.679 311.779 190.275 310.402 192.604 310.402C193.293 310.402 194.289 310.534 194.626 310.666V306.784C194.26 306.652 193.542 306.579 192.956 306.579C190.905 306.579 189.235 307.81 188.811 309.421H188.547V306.843H184.416V323ZM199.724 328.874C203.752 328.874 205.729 327.409 207.106 323.249L212.673 306.843H208.161L204.763 319.089H204.499L201.101 306.843H196.398L202.067 323.103L201.921 323.688C201.569 324.919 200.661 325.432 199.064 325.432C198.889 325.432 198.244 325.432 198.098 325.402V328.83C198.273 328.859 199.562 328.874 199.724 328.874ZM228.229 323V301.862H223.806V323H228.229ZM232.932 323H237.194V313.684C237.194 311.56 238.41 310.168 240.388 310.168C242.409 310.168 243.361 311.34 243.361 313.566V323H247.624V312.556C247.624 308.688 245.69 306.491 242.102 306.491C239.714 306.491 238.073 307.619 237.326 309.436H237.062V306.843H232.932V323ZM266.066 312.541C265.715 308.864 263.151 306.491 258.874 306.491C253.82 306.491 250.979 309.523 250.979 314.885C250.979 320.305 253.835 323.352 258.874 323.352C263.078 323.352 265.715 321.022 266.066 317.404H262.082C261.76 319.001 260.617 319.851 258.874 319.851C256.589 319.851 255.285 318.107 255.285 314.885C255.285 311.706 256.574 309.992 258.874 309.992C260.69 309.992 261.789 311.003 262.082 312.541H266.066ZM276.569 323.352C281.535 323.352 284.523 320.202 284.523 314.914C284.523 309.67 281.491 306.491 276.569 306.491C271.647 306.491 268.615 309.685 268.615 314.914C268.615 320.202 271.604 323.352 276.569 323.352ZM276.569 319.865C274.284 319.865 272.995 318.063 272.995 314.914C272.995 311.809 274.299 309.978 276.569 309.978C278.825 309.978 280.144 311.809 280.144 314.914C280.144 318.049 278.84 319.865 276.569 319.865ZM288.01 323H292.272V313.273C292.272 311.472 293.459 310.168 295.129 310.168C296.799 310.168 297.795 311.149 297.795 312.863V323H301.896V313.112C301.896 311.398 303.01 310.168 304.738 310.168C306.54 310.168 307.434 311.12 307.434 313.039V323H311.696V311.911C311.696 308.586 309.689 306.491 306.467 306.491C304.211 306.491 302.351 307.678 301.604 309.479H301.34C300.695 307.604 299.143 306.491 296.872 306.491C294.748 306.491 293.063 307.634 292.404 309.479H292.141V306.843H288.01V323ZM322.829 309.758C324.821 309.758 326.11 311.091 326.198 313.229H319.313C319.46 311.135 320.852 309.758 322.829 309.758ZM326.286 318.4C325.832 319.47 324.675 320.07 322.99 320.07C320.764 320.07 319.357 318.576 319.299 316.174V315.954H330.388V314.65C330.388 309.523 327.575 306.491 322.814 306.491C318.01 306.491 315.051 309.743 315.051 315.002C315.051 320.246 317.951 323.352 322.873 323.352C326.828 323.352 329.611 321.447 330.256 318.4H326.286Z" fill="#33404F"/>
<path opacity="0.5" d="M119.944 345.499V361H122.351V355.779H125.938C128.979 355.779 131.127 353.695 131.127 350.666C131.127 347.594 129.043 345.499 126.014 345.499H119.944ZM122.351 347.626H125.38C127.496 347.626 128.667 348.7 128.667 350.666C128.667 352.589 127.453 353.663 125.38 353.663H122.351V347.626ZM134.07 361H136.38V354.168C136.38 352.396 137.433 351.203 139.323 351.203C140.956 351.203 141.826 352.148 141.826 354.018V361H144.136V353.448C144.136 350.666 142.6 349.087 140.107 349.087C138.346 349.087 137.11 349.871 136.541 351.182H136.358V344.736H134.07V361ZM151.215 359.249C149.958 359.249 149.045 358.637 149.045 357.584C149.045 356.553 149.775 356.005 151.387 355.897L154.244 355.715V356.692C154.244 358.143 152.955 359.249 151.215 359.249ZM150.624 361.193C152.16 361.193 153.438 360.527 154.137 359.356H154.319V361H156.543V353.008C156.543 350.537 154.889 349.076 151.956 349.076C149.303 349.076 147.412 350.365 147.176 352.374H149.41C149.668 351.547 150.56 351.074 151.849 351.074C153.428 351.074 154.244 351.772 154.244 353.008V354.018L151.075 354.2C148.293 354.372 146.725 355.586 146.725 357.691C146.725 359.829 148.368 361.193 150.624 361.193ZM159.83 361H162.14V354.093C162.14 352.449 163.375 351.343 165.126 351.343C165.534 351.343 166.222 351.418 166.415 351.482V349.205C166.168 349.141 165.728 349.108 165.384 349.108C163.858 349.108 162.559 349.946 162.226 351.096H162.054V349.302H159.83V361ZM172.377 359.249C171.12 359.249 170.207 358.637 170.207 357.584C170.207 356.553 170.938 356.005 172.549 355.897L175.406 355.715V356.692C175.406 358.143 174.117 359.249 172.377 359.249ZM171.786 361.193C173.322 361.193 174.601 360.527 175.299 359.356H175.481V361H177.705V353.008C177.705 350.537 176.051 349.076 173.118 349.076C170.465 349.076 168.574 350.365 168.338 352.374H170.572C170.83 351.547 171.722 351.074 173.011 351.074C174.59 351.074 175.406 351.772 175.406 353.008V354.018L172.237 354.2C169.455 354.372 167.887 355.586 167.887 357.691C167.887 359.829 169.53 361.193 171.786 361.193ZM185.934 361.226C189.35 361.226 191.444 358.938 191.444 355.146C191.444 351.375 189.339 349.076 185.934 349.076C182.518 349.076 180.412 351.375 180.412 355.146C180.412 358.938 182.507 361.226 185.934 361.226ZM185.934 359.174C183.925 359.174 182.797 357.702 182.797 355.146C182.797 352.61 183.925 351.128 185.934 351.128C187.932 351.128 189.07 352.61 189.07 355.146C189.07 357.691 187.932 359.174 185.934 359.174ZM193.958 352.61C193.958 354.351 194.989 355.35 197.213 355.876L199.254 356.349C200.425 356.628 200.973 357.079 200.973 357.777C200.973 358.712 199.952 359.356 198.513 359.356C197.116 359.356 196.257 358.798 195.967 357.896H193.657C193.861 359.969 195.677 361.226 198.459 361.226C201.252 361.226 203.304 359.754 203.304 357.552C203.304 355.833 202.262 354.877 200.038 354.361L198.094 353.91C196.826 353.62 196.235 353.18 196.235 352.481C196.235 351.568 197.213 350.956 198.502 350.956C199.812 350.956 200.65 351.504 200.865 352.363H203.078C202.853 350.301 201.134 349.076 198.502 349.076C195.859 349.076 193.958 350.537 193.958 352.61ZM218.708 361V347.69H223.574V345.499H211.425V347.69H216.302V361H218.708ZM228.956 351.042C230.664 351.042 231.781 352.234 231.835 354.071H225.927C226.056 352.245 227.248 351.042 228.956 351.042ZM231.824 357.842C231.395 358.755 230.438 359.26 229.042 359.26C227.194 359.26 226.002 357.96 225.927 355.908V355.779H234.188V354.974C234.188 351.3 232.222 349.076 228.967 349.076C225.669 349.076 223.574 351.45 223.574 355.188C223.574 358.927 225.626 361.226 228.978 361.226C231.652 361.226 233.521 359.937 234.048 357.842H231.824ZM246.863 353.126C246.562 350.784 244.79 349.076 241.857 349.076C238.452 349.076 236.379 351.364 236.379 355.113C236.379 358.927 238.463 361.226 241.868 361.226C244.758 361.226 246.562 359.593 246.863 357.24H244.618C244.317 358.497 243.318 359.163 241.857 359.163C239.935 359.163 238.742 357.648 238.742 355.113C238.742 352.621 239.924 351.139 241.857 351.139C243.404 351.139 244.35 351.987 244.618 353.126H246.863ZM249.613 361H251.923V354.168C251.923 352.396 252.976 351.203 254.866 351.203C256.499 351.203 257.369 352.148 257.369 354.018V361H259.679V353.448C259.679 350.666 258.143 349.087 255.65 349.087C253.889 349.087 252.653 349.871 252.084 351.182H251.901V344.736H249.613V361ZM264.416 365.05L266.199 358.68H263.782L262.783 365.05H264.416ZM278.563 361V345.499H276.157V361H278.563ZM282.184 361H284.493V354.157C284.493 352.331 285.578 351.192 287.286 351.192C288.994 351.192 289.811 352.127 289.811 354.007V361H292.12V353.427C292.12 350.645 290.681 349.076 288.07 349.076C286.309 349.076 285.148 349.86 284.579 351.16H284.407V349.302H282.184V361ZM305.279 353.126C304.979 350.784 303.206 349.076 300.273 349.076C296.868 349.076 294.795 351.364 294.795 355.113C294.795 358.927 296.879 361.226 300.284 361.226C303.174 361.226 304.979 359.593 305.279 357.24H303.034C302.733 358.497 301.734 359.163 300.273 359.163C298.351 359.163 297.158 357.648 297.158 355.113C297.158 352.621 298.34 351.139 300.273 351.139C301.82 351.139 302.766 351.987 303.034 353.126H305.279Z" fill="#33404F"/>
<path d="M539.12 316.335H545.17V312.556H539.12V306.579H535.385V312.556H529.35V316.335H535.385V322.326H539.12V316.335ZM554.926 313.83H557.548C559.921 313.83 561.371 314.973 561.371 316.818C561.371 318.62 559.833 319.865 557.621 319.865C555.351 319.865 553.842 318.737 553.71 316.95H549.477C549.667 320.935 552.86 323.542 557.577 323.542C562.396 323.542 565.883 320.861 565.883 317.155C565.883 314.372 564.066 312.438 561.166 312.116V311.853C563.524 311.369 565.062 309.465 565.062 307.019C565.062 303.693 561.942 301.32 557.606 301.32C552.992 301.32 550.019 303.84 549.872 307.839H553.959C554.076 306.008 555.438 304.851 557.489 304.851C559.555 304.851 560.873 305.935 560.873 307.634C560.873 309.362 559.511 310.534 557.504 310.534H554.926V313.83ZM571.449 328.728L574.115 319.572H569.94L568.593 328.728H571.449ZM586.098 323.542C591.181 323.542 594.652 321.022 594.652 317.316C594.652 314.621 592.792 312.482 589.979 311.955V311.691C592.294 311.149 593.788 309.348 593.788 307.092C593.788 303.723 590.595 301.32 586.112 301.32C581.615 301.32 578.422 303.723 578.422 307.092C578.422 309.333 579.931 311.164 582.23 311.691V311.955C579.403 312.585 577.572 314.709 577.572 317.36C577.572 321.037 581.015 323.542 586.098 323.542ZM586.098 320.202C583.783 320.202 582.172 318.869 582.172 316.95C582.172 315.017 583.783 313.684 586.098 313.684C588.427 313.684 590.038 315.017 590.038 316.95C590.038 318.869 588.427 320.202 586.098 320.202ZM586.098 310.417C584.149 310.417 582.787 309.216 582.787 307.517C582.787 305.803 584.135 304.602 586.098 304.602C588.061 304.602 589.423 305.803 589.423 307.517C589.423 309.216 588.061 310.417 586.098 310.417ZM606.649 323.542C611.879 323.542 615.043 319.396 615.043 312.409C615.043 305.393 611.835 301.32 606.649 301.32C601.449 301.32 598.256 305.393 598.256 312.395C598.256 319.411 601.42 323.542 606.649 323.542ZM606.649 319.938C604.232 319.938 602.738 317.331 602.738 312.395C602.738 307.487 604.247 304.938 606.649 304.938C609.066 304.938 610.561 307.473 610.561 312.395C610.561 317.346 609.081 319.938 606.649 319.938ZM627.187 323.542C632.416 323.542 635.58 319.396 635.58 312.409C635.58 305.393 632.372 301.32 627.187 301.32C621.986 301.32 618.793 305.393 618.793 312.395C618.793 319.411 621.957 323.542 627.187 323.542ZM627.187 319.938C624.77 319.938 623.275 317.331 623.275 312.395C623.275 307.487 624.784 304.938 627.187 304.938C629.604 304.938 631.098 307.473 631.098 312.395C631.098 317.346 629.618 319.938 627.187 319.938ZM641.117 323.396C642.699 323.396 643.71 322.326 643.71 320.847C643.71 319.367 642.699 318.312 641.117 318.312C639.55 318.312 638.524 319.367 638.524 320.847C638.524 322.326 639.55 323.396 641.117 323.396ZM655.194 323.542C660.424 323.542 663.588 319.396 663.588 312.409C663.588 305.393 660.38 301.32 655.194 301.32C649.994 301.32 646.801 305.393 646.801 312.395C646.801 319.411 649.965 323.542 655.194 323.542ZM655.194 319.938C652.777 319.938 651.283 317.331 651.283 312.395C651.283 307.487 652.792 304.938 655.194 304.938C657.611 304.938 659.105 307.473 659.105 312.395C659.105 317.346 657.626 319.938 655.194 319.938ZM675.731 323.542C680.961 323.542 684.125 319.396 684.125 312.409C684.125 305.393 680.917 301.32 675.731 301.32C670.531 301.32 667.338 305.393 667.338 312.395C667.338 319.411 670.502 323.542 675.731 323.542ZM675.731 319.938C673.314 319.938 671.82 317.331 671.82 312.395C671.82 307.487 673.329 304.938 675.731 304.938C678.148 304.938 679.643 307.473 679.643 312.395C679.643 317.346 678.163 319.938 675.731 319.938Z" fill="#33404F"/>
<path opacity="0.5" d="M618.195 356.972C618.195 359.636 620.118 361.376 622.922 361.376C625.908 361.376 627.713 359.582 627.713 356.467V345.499H625.307V356.456C625.307 358.186 624.437 359.109 622.9 359.109C621.525 359.109 620.591 358.25 620.559 356.972H618.195ZM635.082 359.249C633.825 359.249 632.912 358.637 632.912 357.584C632.912 356.553 633.643 356.005 635.254 355.897L638.111 355.715V356.692C638.111 358.143 636.822 359.249 635.082 359.249ZM634.491 361.193C636.027 361.193 637.306 360.527 638.004 359.356H638.187V361H640.41V353.008C640.41 350.537 638.756 349.076 635.823 349.076C633.17 349.076 631.279 350.365 631.043 352.374H633.277C633.535 351.547 634.427 351.074 635.716 351.074C637.295 351.074 638.111 351.772 638.111 353.008V354.018L634.942 354.2C632.16 354.372 630.592 355.586 630.592 357.691C630.592 359.829 632.235 361.193 634.491 361.193ZM643.697 361H646.007V354.157C646.007 352.331 647.092 351.192 648.8 351.192C650.508 351.192 651.324 352.127 651.324 354.007V361H653.634V353.427C653.634 350.645 652.194 349.076 649.584 349.076C647.822 349.076 646.662 349.86 646.093 351.16H645.921V349.302H643.697V361ZM666.621 361H669.027V345.499H666.632L662.55 348.378V350.838L666.438 348.088H666.621V361ZM676.923 354.039H678.878C680.908 354.039 682.165 355.038 682.165 356.639C682.165 358.164 680.833 359.249 678.942 359.249C677.062 359.249 675.773 358.293 675.623 356.789H673.313C673.453 359.561 675.688 361.376 678.942 361.376C682.176 361.376 684.625 359.399 684.625 356.768C684.625 354.694 683.336 353.244 681.22 352.997V352.814C682.928 352.428 683.991 351.053 683.991 349.227C683.991 346.896 681.778 345.123 678.899 345.123C675.795 345.123 673.775 346.853 673.614 349.656H675.902C676.031 348.131 677.138 347.196 678.824 347.196C680.511 347.196 681.617 348.142 681.617 349.581C681.617 351.042 680.468 352.052 678.803 352.052H676.923V354.039Z" fill="#33404F"/>
</g>
<defs>
<filter id="filter0_d_9_70" x="-28" y="0" width="758" height="404" filterUnits="userSpaceOnUse" color-interpolation-filters="sRGB">
<feFlood flood-opacity="0" result="BackgroundImageFix"/>
<feColorMatrix in="SourceAlpha" type="matrix" values="0 0 0 0 0 0 0 0 0 0 0 0 0 0 0 0 0 0 127 0" result="hardAlpha"/>
<feOffset dy="4"/>
<feGaussianBlur stdDeviation="2"/>
<feComposite in2="hardAlpha" operator="out"/>
<feColorMatrix type="matrix" values="0 0 0 0 0 0 0 0 0 0 0 0 0 0 0 0 0 0 0.25 0"/>
<feBlend mode="normal" in2="BackgroundImageFix" result="effect1_dropShadow_9_70"/>
<feBlend mode="normal" in="SourceGraphic" in2="effect1_dropShadow_9_70" result="shape"/>
</filter>
</defs>
</svg>
