<svg width="115" height="72" viewBox="0 0 115 72" fill="none" xmlns="http://www.w3.org/2000/svg">
<path d="M12.5049 22.4668V18.4678H2.88086V22.4668H12.5049ZM22.2021 29H26.626V7.8623H22.2168L16.7529 11.627V15.7432L21.9385 12.1689H22.2021V29ZM40.4834 29.542C45.332 29.542 48.5693 26.4805 48.5693 21.998C48.5693 17.8525 45.7275 14.9082 41.7139 14.9082C39.6191 14.9082 38.125 15.6846 37.2314 16.9736H36.9678L37.4365 11.5391H47.2949V7.8623H34.0088L32.9541 20.123H36.9092C37.6416 18.9365 38.8867 18.2188 40.5273 18.2188C42.7686 18.2188 44.3506 19.7715 44.3506 22.1006C44.3506 24.4004 42.7832 25.9238 40.5127 25.9238C38.5059 25.9238 36.9531 24.752 36.7041 22.9941H32.6172C32.749 26.7734 35.8838 29.542 40.4834 29.542ZM53.3594 29H57.9883L66.8213 11.5391V7.84766H51.7041V11.4951H62.3682V11.7588L53.3594 29ZM70 29.3955C71.582 29.3955 72.5928 28.3262 72.5928 26.8467C72.5928 25.3672 71.582 24.3125 70 24.3125C68.4326 24.3125 67.4072 25.3672 67.4072 26.8467C67.4072 28.3262 68.4326 29.3955 70 29.3955ZM84.3848 29.542C89.1162 29.542 92.4707 26.4219 92.4707 22.0273C92.4707 17.9844 89.5264 15.0107 85.5127 15.0107C83.0518 15.0107 81.0889 16.1387 80.1221 18.1309H79.8584C79.7705 13.751 81.5283 10.9531 84.4287 10.9531C86.084 10.9531 87.4023 11.832 87.8125 13.2236H92.1924C91.5918 9.69336 88.4717 7.32031 84.458 7.32031C78.9502 7.32031 75.6396 11.5684 75.6396 18.585C75.6396 21.4854 76.2402 23.917 77.4121 25.7188C78.8623 28.1943 81.3232 29.542 84.3848 29.542ZM84.3408 25.9092C82.1729 25.9092 80.5176 24.2686 80.5176 22.1152C80.5176 20.0059 82.1436 18.4238 84.3555 18.4238C86.5674 18.4238 88.1787 20.0059 88.1787 22.1592C88.1787 24.2832 86.5088 25.9092 84.3408 25.9092ZM106.357 29H110.576V25.3086H113.345V21.6318H110.576V7.8623H104.38C100.674 13.4434 97.9199 17.8086 96.0156 21.3975V25.3086H106.357V29ZM99.9854 21.5293C102.402 17.1494 104.292 14.1904 106.226 11.3047H106.46V21.7637H99.9854V21.5293Z" fill="#33404F"/>
<path opacity="0.5" d="M46.8086 62.9717C46.8086 65.6357 48.7314 67.376 51.5352 67.376C54.5215 67.376 56.3262 65.582 56.3262 62.4668V51.499H53.9199V62.4561C53.9199 64.1855 53.0498 65.1094 51.5137 65.1094C50.1387 65.1094 49.2041 64.25 49.1719 62.9717H46.8086ZM63.6953 65.249C62.4385 65.249 61.5254 64.6367 61.5254 63.584C61.5254 62.5527 62.2559 62.0049 63.8672 61.8975L66.7246 61.7148V62.6924C66.7246 64.1426 65.4355 65.249 63.6953 65.249ZM63.1045 67.1934C64.6406 67.1934 65.9189 66.5273 66.6172 65.3564H66.7998V67H69.0234V59.0078C69.0234 56.5371 67.3691 55.0762 64.4365 55.0762C61.7832 55.0762 59.8926 56.3652 59.6562 58.374H61.8906C62.1484 57.5469 63.04 57.0742 64.3291 57.0742C65.9082 57.0742 66.7246 57.7725 66.7246 59.0078V60.0176L63.5557 60.2002C60.7734 60.3721 59.2051 61.5859 59.2051 63.6914C59.2051 65.8291 60.8486 67.1934 63.1045 67.1934ZM72.3105 67H74.6201V60.1572C74.6201 58.3311 75.7051 57.1924 77.4131 57.1924C79.1211 57.1924 79.9375 58.127 79.9375 60.0068V67H82.2471V59.4268C82.2471 56.6445 80.8076 55.0762 78.1973 55.0762C76.4355 55.0762 75.2754 55.8604 74.7061 57.1602H74.5342V55.3018H72.3105V67ZM95.2344 67H97.6406V51.499H95.2451L91.1631 54.3779V56.8379L95.0518 54.0879H95.2344V67ZM109.285 67H111.605V64.0029H113.743V61.8545H111.605V51.499H108.179C105.418 55.6348 103.108 59.2334 101.723 61.7686V64.0029H109.285V67ZM104.032 61.7578C105.858 58.5889 107.642 55.8389 109.178 53.6152H109.317V61.9082H104.032V61.7578Z" fill="#33404F"/>
</svg>
