<svg width="138" height="56" viewBox="0 0 138 56" fill="none" xmlns="http://www.w3.org/2000/svg">
<path d="M11.1973 36.8047C11.1973 36.0299 10.9512 35.3919 10.459 34.8906C9.9668 34.3802 9.14648 33.9245 7.99805 33.5234C6.84961 33.1133 5.95638 32.735 5.31836 32.3887C3.19466 31.2493 2.13281 29.5632 2.13281 27.3301C2.13281 25.8171 2.5931 24.5729 3.51367 23.5977C4.43424 22.6224 5.68294 22.0436 7.25977 21.8613V18.8809H9.44727V21.8887C11.0332 22.1165 12.2591 22.791 13.125 23.9121C13.9909 25.0241 14.4238 26.4733 14.4238 28.2598H11.1152C11.1152 27.1113 10.8555 26.209 10.3359 25.5527C9.82552 24.8874 9.12826 24.5547 8.24414 24.5547C7.36914 24.5547 6.68555 24.7917 6.19336 25.2656C5.70117 25.7396 5.45508 26.4186 5.45508 27.3027C5.45508 28.0957 5.69661 28.7337 6.17969 29.2168C6.67188 29.6908 7.5013 30.1419 8.66797 30.5703C9.83464 30.9987 10.7507 31.3952 11.416 31.7598C12.0814 32.1243 12.6419 32.5436 13.0977 33.0176C13.5534 33.4824 13.9043 34.0202 14.1504 34.6309C14.3965 35.2415 14.5195 35.957 14.5195 36.7773C14.5195 38.3177 14.0456 39.5664 13.0977 40.5234C12.1589 41.4805 10.8464 42.0456 9.16016 42.2188V44.8848H6.98633V42.2324C5.18164 42.0319 3.79167 41.3848 2.81641 40.291C1.85026 39.1973 1.36719 37.748 1.36719 35.9434H4.68945C4.68945 37.0918 4.97656 37.9805 5.55078 38.6094C6.13411 39.2383 6.95443 39.5527 8.01172 39.5527C9.05078 39.5527 9.83919 39.3021 10.377 38.8008C10.9238 38.2995 11.1973 37.6341 11.1973 36.8047Z" fill="white"/>
<path d="M34.1641 30.3594C32.3984 32.0938 30.3359 32.9609 27.9766 32.9609C24.9609 32.9609 22.5469 31.9297 20.7344 29.8672C18.9219 27.7891 18.0156 24.9922 18.0156 21.4766C18.0156 19.2422 18.5 17.1953 19.4688 15.3359C20.4531 13.4609 21.8203 12.0078 23.5703 10.9766C25.3203 9.92969 27.2891 9.40625 29.4766 9.40625C31.7266 9.40625 33.7266 9.96875 35.4766 11.0938C37.2266 12.2188 38.5859 13.8359 39.5547 15.9453C40.5234 18.0547 41.0156 20.4688 41.0312 23.1875V25.6953C41.0312 31.3828 39.6172 35.8516 36.7891 39.1016C33.9609 42.3516 29.9531 44.0859 24.7656 44.3047L23.1016 44.3281V38.6797L24.6016 38.6562C30.4922 38.3906 33.6797 35.625 34.1641 30.3594ZM29.6406 27.7812C30.7344 27.7812 31.6719 27.5 32.4531 26.9375C33.25 26.375 33.8516 25.6953 34.2578 24.8984V22.1094C34.2578 19.8125 33.8203 18.0312 32.9453 16.7656C32.0703 15.5 30.8984 14.8672 29.4297 14.8672C28.0703 14.8672 26.9531 15.4922 26.0781 16.7422C25.2031 17.9766 24.7656 19.5312 24.7656 21.4062C24.7656 23.2656 25.1875 24.7969 26.0312 26C26.8906 27.1875 28.0938 27.7812 29.6406 27.7812ZM47.9219 52.5547L44.3828 50.7031L45.2266 49.1797C46.2734 47.2734 46.8125 45.375 46.8438 43.4844V38.2344H52.5625L52.5391 42.9219C52.5234 44.6562 52.0859 46.4062 51.2266 48.1719C50.3672 49.9375 49.2656 51.3984 47.9219 52.5547ZM75.9766 9.52344V15.1016H75.3203C72.2578 15.1484 69.7891 15.9453 67.9141 17.4922C66.0547 19.0391 64.9375 21.1875 64.5625 23.9375C66.375 22.0938 68.6641 21.1719 71.4297 21.1719C74.3984 21.1719 76.7578 22.2344 78.5078 24.3594C80.2578 26.4844 81.1328 29.2812 81.1328 32.75C81.1328 34.9688 80.6484 36.9766 79.6797 38.7734C78.7266 40.5703 77.3672 41.9688 75.6016 42.9688C73.8516 43.9688 71.8672 44.4688 69.6484 44.4688C66.0547 44.4688 63.1484 43.2188 60.9297 40.7188C58.7266 38.2188 57.625 34.8828 57.625 30.7109V28.2734C57.625 24.5703 58.3203 21.3047 59.7109 18.4766C61.1172 15.6328 63.125 13.4375 65.7344 11.8906C68.3594 10.3281 71.3984 9.53906 74.8516 9.52344H75.9766ZM69.3672 26.6094C68.2734 26.6094 67.2812 26.8984 66.3906 27.4766C65.5 28.0391 64.8438 28.7891 64.4219 29.7266V31.7891C64.4219 34.0547 64.8672 35.8281 65.7578 37.1094C66.6484 38.375 67.8984 39.0078 69.5078 39.0078C70.9609 39.0078 72.1328 38.4375 73.0234 37.2969C73.9297 36.1406 74.3828 34.6484 74.3828 32.8203C74.3828 30.9609 73.9297 29.4609 73.0234 28.3203C72.1172 27.1797 70.8984 26.6094 69.3672 26.6094ZM101.617 44H94.8438V17.8906L86.7578 20.3984V14.8906L100.891 9.82812H101.617V44ZM113.734 27.2188L115.703 9.875H134.828V15.5234H121.258L120.414 22.8594C122.023 22 123.734 21.5703 125.547 21.5703C128.797 21.5703 131.344 22.5781 133.188 24.5938C135.031 26.6094 135.953 29.4297 135.953 33.0547C135.953 35.2578 135.484 37.2344 134.547 38.9844C133.625 40.7188 132.297 42.0703 130.562 43.0391C128.828 43.9922 126.781 44.4688 124.422 44.4688C122.359 44.4688 120.445 44.0547 118.68 43.2266C116.914 42.3828 115.516 41.2031 114.484 39.6875C113.469 38.1719 112.93 36.4453 112.867 34.5078H119.57C119.711 35.9297 120.203 37.0391 121.047 37.8359C121.906 38.6172 123.023 39.0078 124.398 39.0078C125.93 39.0078 127.109 38.4609 127.938 37.3672C128.766 36.2578 129.18 34.6953 129.18 32.6797C129.18 30.7422 128.703 29.2578 127.75 28.2266C126.797 27.1953 125.445 26.6797 123.695 26.6797C122.086 26.6797 120.781 27.1016 119.781 27.9453L119.125 28.5547L113.734 27.2188Z" fill="white"/>
</svg>
