<svg width="157" height="17" viewBox="0 0 157 17" fill="none" xmlns="http://www.w3.org/2000/svg">
<path opacity="0.5" d="M13.7061 16V0.499023H11.3105V7.00879H3.35059V0.499023H0.944336V16H3.35059V9.2002H11.3105V16H13.7061ZM28.4551 16H31.2695L28.5088 13.0459C29.3574 11.8213 29.7979 10.1133 29.7979 7.94336V7.36328H27.7031V7.85742C27.7031 9.50098 27.4775 10.6074 27.0371 11.4346L23.4814 7.73926C25.8018 6.51465 26.7686 5.30078 26.7686 3.71094C26.7686 1.64844 25.0498 0.1875 22.6758 0.1875C20.3125 0.1875 18.5508 1.69141 18.5508 3.73242C18.5508 4.86035 19.0664 5.83789 20.4951 7.32031C20.3555 7.38477 19.9688 7.61035 19.8613 7.66406C17.8203 8.74902 16.8535 10.0918 16.8535 11.8965C16.8535 14.5176 19.002 16.29 22.1602 16.29C24.0508 16.29 25.8447 15.6562 27.1123 14.582L28.4551 16ZM21.1934 8.97461C21.333 8.89941 21.5908 8.78125 21.6982 8.73828L25.791 13.0781C25.0283 13.8516 23.6963 14.3457 22.3857 14.3457C20.4521 14.3457 19.1523 13.2822 19.1523 11.7139C19.1523 10.6182 19.8291 9.68359 21.1934 8.97461ZM22.2891 6.46094C21.1289 5.33301 20.71 4.65625 20.71 3.86133C20.71 2.76562 21.5371 1.99219 22.6865 1.99219C23.8574 1.99219 24.6631 2.74414 24.6631 3.85059C24.6631 4.87109 24.0186 5.60156 22.2891 6.46094ZM49.1982 16V0.499023H46.3838L41.4424 12.2725H41.2598L36.3291 0.499023H33.5146V16H35.749V4.80664H35.8994L40.4434 15.5488H42.2695L46.8135 4.80664H46.9639V16H49.1982ZM62.5508 16H64.957V0.499023H62.5615L58.4795 3.37793V5.83789L62.3682 3.08789H62.5508V16ZM69.3398 4.97852V5.01074H71.6172V4.97852C71.6172 3.32422 72.7666 2.20703 74.4746 2.20703C76.0752 2.20703 77.2891 3.27051 77.2891 4.68848C77.2891 5.82715 76.7842 6.64355 74.7109 8.80273L69.4688 14.2598V16H79.9102V13.8408H72.8203V13.6582L76.2686 10.167C78.8682 7.53516 79.6631 6.19238 79.6631 4.54883C79.6631 1.99219 77.4932 0.123047 74.5498 0.123047C71.499 0.123047 69.3398 2.12109 69.3398 4.97852ZM88.4395 16.376C91.7803 16.376 94.0469 14.1953 94.0469 10.9834C94.0469 7.93262 91.9736 5.78418 89.0303 5.78418C87.5586 5.78418 86.4629 6.27832 85.7539 7.19141H85.5713L85.9795 2.64746H93.1445V0.499023H84.0996L83.2832 9.37207H85.4854C86.0869 8.37305 87.1611 7.78223 88.4932 7.78223C90.3838 7.78223 91.6943 9.10352 91.6943 11.0479C91.6943 12.9814 90.3945 14.2598 88.4609 14.2598C86.7637 14.2598 85.5068 13.2607 85.3242 11.7568H83.0361C83.1758 14.4746 85.3564 16.376 88.4395 16.376ZM97.6885 16H100.213L106.959 2.67969V0.499023H96.3994V2.63672H104.521V2.80859L97.6885 16ZM122.911 7.39551L123.749 5.85938L120.924 4.55957L123.749 3.24902L122.911 1.69141L120.333 3.53906L120.602 0.391602H118.883L119.151 3.53906L116.573 1.69141L115.735 3.24902L118.571 4.55957L115.735 5.85938L116.573 7.39551L119.151 5.59082L118.883 8.69531H120.602L120.333 5.60156L122.911 7.39551ZM133.997 7.39551L134.835 5.85938L132.01 4.55957L134.835 3.24902L133.997 1.69141L131.419 3.53906L131.688 0.391602H129.969L130.237 3.53906L127.659 1.69141L126.821 3.24902L129.657 4.55957L126.821 5.85938L127.659 7.39551L130.237 5.59082L129.969 8.69531H131.688L131.419 5.60156L133.997 7.39551ZM145.083 7.39551L145.921 5.85938L143.096 4.55957L145.921 3.24902L145.083 1.69141L142.505 3.53906L142.773 0.391602H141.055L141.323 3.53906L138.745 1.69141L137.907 3.24902L140.743 4.55957L137.907 5.85938L138.745 7.39551L141.323 5.59082L141.055 8.69531H142.773L142.505 5.60156L145.083 7.39551ZM156.169 7.39551L157.007 5.85938L154.182 4.55957L157.007 3.24902L156.169 1.69141L153.591 3.53906L153.859 0.391602H152.141L152.409 3.53906L149.831 1.69141L148.993 3.24902L151.829 4.55957L148.993 5.85938L149.831 7.39551L152.409 5.59082L152.141 8.69531H153.859L153.591 5.60156L156.169 7.39551Z" fill="#33404F"/>
</svg>
