<svg width="480" height="46" viewBox="0 0 480 46" fill="none" xmlns="http://www.w3.org/2000/svg">
<path d="M21.3125 45V24.5312H4.15625V45H0.125V0.1875H4.15625V20.6875H21.3125V0.1875H25.3438V45H21.3125ZM55.0938 36.2188C55.0938 37.5104 54.8438 38.7292 54.3438 39.875C53.8646 41.0208 53.1979 42.0208 52.3438 42.875C51.4896 43.7292 50.4896 44.4062 49.3438 44.9062C48.1979 45.3854 46.9792 45.625 45.6875 45.625H43.125C41.8333 45.625 40.6146 45.3854 39.4688 44.9062C38.3229 44.4062 37.3229 43.7292 36.4688 42.875C35.6146 42.0208 34.9375 41.0208 34.4375 39.875C33.9583 38.7292 33.7188 37.5104 33.7188 36.2188V21.7812C33.7188 20.4896 33.9583 19.2708 34.4375 18.125C34.9375 16.9792 35.6146 15.9792 36.4688 15.125C37.3229 14.2708 38.3229 13.6042 39.4688 13.125C40.6146 12.625 41.8333 12.375 43.125 12.375H45.6875C46.9792 12.375 48.1979 12.625 49.3438 13.125C50.4896 13.6042 51.4896 14.2708 52.3438 15.125C53.1979 15.9792 53.8646 16.9792 54.3438 18.125C54.8438 19.2708 55.0938 20.4896 55.0938 21.7812V29.3125H37.5625V36.4375C37.5625 37.2083 37.7083 37.9375 38 38.625C38.2917 39.2917 38.6875 39.875 39.1875 40.375C39.6875 40.875 40.2708 41.2708 40.9375 41.5625C41.625 41.8542 42.3542 42 43.125 42H45.6875C46.4583 42 47.1771 41.8542 47.8438 41.5625C48.5312 41.2708 49.125 40.875 49.625 40.375C50.125 39.875 50.5208 39.2917 50.8125 38.625C51.1042 37.9375 51.25 37.2083 51.25 36.4375V34.3125L55.0938 34.9375V36.2188ZM51.25 21.5625C51.25 20.7917 51.1042 20.0729 50.8125 19.4062C50.5208 18.7188 50.125 18.125 49.625 17.625C49.125 17.125 48.5312 16.7292 47.8438 16.4375C47.1771 16.1458 46.4583 16 45.6875 16H43.125C42.3542 16 41.625 16.1458 40.9375 16.4375C40.2708 16.7292 39.6875 17.125 39.1875 17.625C38.6875 18.125 38.2917 18.7188 38 19.4062C37.7083 20.0729 37.5625 20.7917 37.5625 21.5625V26.3125H51.25V21.5625ZM72.1875 16.6562C71.4167 16.6562 70.6875 16.8021 70 17.0938C69.3333 17.3854 68.75 17.7812 68.25 18.2812C67.75 18.7812 67.3542 19.375 67.0625 20.0625C66.7708 20.7292 66.625 21.4479 66.625 22.2188V45H62.7812V13H64.0625L66.1562 16.25C67.0312 15.0625 68.125 14.125 69.4375 13.4375C70.7708 12.7292 72.2188 12.375 73.7812 12.375H76.0312V16.6562H72.1875ZM102.531 36.2188C102.531 37.5104 102.281 38.7292 101.781 39.875C101.302 41.0208 100.635 42.0208 99.7812 42.875C98.9271 43.7292 97.9271 44.4062 96.7812 44.9062C95.6354 45.3854 94.4167 45.625 93.125 45.625H90.5625C89.2708 45.625 88.0521 45.3854 86.9062 44.9062C85.7604 44.4062 84.7604 43.7292 83.9062 42.875C83.0521 42.0208 82.375 41.0208 81.875 39.875C81.3958 38.7292 81.1562 37.5104 81.1562 36.2188V21.7812C81.1562 20.4896 81.3958 19.2708 81.875 18.125C82.375 16.9792 83.0521 15.9792 83.9062 15.125C84.7604 14.2708 85.7604 13.6042 86.9062 13.125C88.0521 12.625 89.2708 12.375 90.5625 12.375H93.125C94.4167 12.375 95.6354 12.625 96.7812 13.125C97.9271 13.6042 98.9271 14.2708 99.7812 15.125C100.635 15.9792 101.302 16.9792 101.781 18.125C102.281 19.2708 102.531 20.4896 102.531 21.7812V29.3125H85V36.4375C85 37.2083 85.1458 37.9375 85.4375 38.625C85.7292 39.2917 86.125 39.875 86.625 40.375C87.125 40.875 87.7083 41.2708 88.375 41.5625C89.0625 41.8542 89.7917 42 90.5625 42H93.125C93.8958 42 94.6146 41.8542 95.2812 41.5625C95.9688 41.2708 96.5625 40.875 97.0625 40.375C97.5625 39.875 97.9583 39.2917 98.25 38.625C98.5417 37.9375 98.6875 37.2083 98.6875 36.4375V34.3125L102.531 34.9375V36.2188ZM98.6875 21.5625C98.6875 20.7917 98.5417 20.0729 98.25 19.4062C97.9583 18.7188 97.5625 18.125 97.0625 17.625C96.5625 17.125 95.9688 16.7292 95.2812 16.4375C94.6146 16.1458 93.8958 16 93.125 16H90.5625C89.7917 16 89.0625 16.1458 88.375 16.4375C87.7083 16.7292 87.125 17.125 86.625 17.625C86.125 18.125 85.7292 18.7188 85.4375 19.4062C85.1458 20.0729 85 20.7917 85 21.5625V26.3125H98.6875V21.5625ZM112.469 13.9688H110.844V0.1875H115.656L112.469 13.9688ZM141.406 36.875C141.406 38.1667 141.146 39.3542 140.625 40.4375C140.104 41.5 139.396 42.4167 138.5 43.1875C137.604 43.9583 136.562 44.5625 135.375 45C134.208 45.4167 132.979 45.625 131.688 45.625H129.125C127.833 45.625 126.594 45.3854 125.406 44.9062C124.24 44.4062 123.208 43.7292 122.312 42.875C121.438 42.0208 120.729 41.0208 120.188 39.875C119.667 38.7292 119.406 37.5104 119.406 36.2188V34.9375L123.25 34.3125V36.4375C123.25 37.2083 123.406 37.9375 123.719 38.625C124.052 39.2917 124.49 39.875 125.031 40.375C125.573 40.875 126.198 41.2708 126.906 41.5625C127.615 41.8542 128.354 42 129.125 42H131.688C132.458 42 133.198 41.8854 133.906 41.6562C134.615 41.4271 135.24 41.1042 135.781 40.6875C136.344 40.25 136.781 39.7292 137.094 39.125C137.427 38.5208 137.594 37.8333 137.594 37.0625C137.594 35.9167 137.344 34.9792 136.844 34.25C136.344 33.5208 135.677 32.9167 134.844 32.4375C134.031 31.9375 133.094 31.5312 132.031 31.2188C130.99 30.8854 129.917 30.5625 128.812 30.25C127.708 29.9167 126.625 29.5417 125.562 29.125C124.521 28.7083 123.583 28.1667 122.75 27.5C121.938 26.8125 121.281 25.9583 120.781 24.9375C120.281 23.9167 120.031 22.6458 120.031 21.125C120.031 19.8333 120.281 18.6562 120.781 17.5938C121.281 16.5104 121.958 15.5833 122.812 14.8125C123.667 14.0417 124.656 13.4479 125.781 13.0312C126.927 12.5938 128.146 12.375 129.438 12.375H131.688C132.979 12.375 134.198 12.625 135.344 13.125C136.49 13.6042 137.49 14.2708 138.344 15.125C139.198 15.9792 139.865 16.9792 140.344 18.125C140.844 19.2708 141.094 20.4896 141.094 21.7812V21.9062L137.25 22.5312V21.5625C137.25 20.7917 137.104 20.0729 136.812 19.4062C136.521 18.7188 136.125 18.125 135.625 17.625C135.125 17.125 134.531 16.7292 133.844 16.4375C133.177 16.1458 132.458 16 131.688 16H129.438C128.667 16 127.938 16.1146 127.25 16.3438C126.583 16.5729 126 16.9062 125.5 17.3438C125 17.7604 124.604 18.2708 124.312 18.875C124.021 19.4792 123.875 20.1667 123.875 20.9375C123.875 22.0417 124.125 22.9479 124.625 23.6562C125.125 24.3438 125.781 24.9271 126.594 25.4062C127.427 25.8854 128.365 26.2917 129.406 26.625C130.469 26.9375 131.542 27.2708 132.625 27.625C133.729 27.9583 134.802 28.3438 135.844 28.7812C136.906 29.2188 137.844 29.7812 138.656 30.4688C139.49 31.1562 140.156 32.0208 140.656 33.0625C141.156 34.0833 141.406 35.3542 141.406 36.875ZM176.594 23.5625V45H172.562V23.625L160.969 0.1875H165.312L174.531 18.8125L183.75 0.1875H188.094L176.594 23.5625ZM212.031 36.2188C212.031 37.5104 211.781 38.7292 211.281 39.875C210.802 41.0208 210.135 42.0208 209.281 42.875C208.427 43.7292 207.427 44.4062 206.281 44.9062C205.135 45.3854 203.917 45.625 202.625 45.625H200.062C198.771 45.625 197.552 45.3854 196.406 44.9062C195.26 44.4062 194.26 43.7292 193.406 42.875C192.552 42.0208 191.875 41.0208 191.375 39.875C190.896 38.7292 190.656 37.5104 190.656 36.2188V21.7812C190.656 20.4896 190.896 19.2708 191.375 18.125C191.875 16.9792 192.552 15.9792 193.406 15.125C194.26 14.2708 195.26 13.6042 196.406 13.125C197.552 12.625 198.771 12.375 200.062 12.375H202.625C203.917 12.375 205.135 12.625 206.281 13.125C207.427 13.6042 208.427 14.2708 209.281 15.125C210.135 15.9792 210.802 16.9792 211.281 18.125C211.781 19.2708 212.031 20.4896 212.031 21.7812V36.2188ZM208.188 21.5625C208.188 20.7917 208.042 20.0729 207.75 19.4062C207.458 18.7188 207.062 18.125 206.562 17.625C206.062 17.125 205.469 16.7292 204.781 16.4375C204.115 16.1458 203.396 16 202.625 16H200.062C199.292 16 198.562 16.1458 197.875 16.4375C197.208 16.7292 196.625 17.125 196.125 17.625C195.625 18.125 195.229 18.7188 194.938 19.4062C194.646 20.0729 194.5 20.7917 194.5 21.5625V36.4375C194.5 37.2083 194.646 37.9375 194.938 38.625C195.229 39.2917 195.625 39.875 196.125 40.375C196.625 40.875 197.208 41.2708 197.875 41.5625C198.562 41.8542 199.292 42 200.062 42H202.625C203.396 42 204.115 41.8542 204.781 41.5625C205.469 41.2708 206.062 40.875 206.562 40.375C207.062 39.875 207.458 39.2917 207.75 38.625C208.042 37.9375 208.188 37.2083 208.188 36.4375V21.5625ZM239.812 45L237.688 41.75C236.812 42.9375 235.719 43.8854 234.406 44.5938C233.094 45.2812 231.656 45.625 230.094 45.625H229.125C227.833 45.625 226.615 45.3854 225.469 44.9062C224.323 44.4062 223.323 43.7292 222.469 42.875C221.615 42.0208 220.938 41.0208 220.438 39.875C219.958 38.7292 219.719 37.5104 219.719 36.2188V13H223.562V36.4375C223.562 37.2083 223.708 37.9375 224 38.625C224.292 39.2917 224.688 39.875 225.188 40.375C225.688 40.875 226.271 41.2708 226.938 41.5625C227.625 41.8542 228.354 42 229.125 42H231.688C232.458 42 233.177 41.8542 233.844 41.5625C234.531 41.2708 235.125 40.875 235.625 40.375C236.125 39.875 236.521 39.2917 236.812 38.625C237.104 37.9375 237.25 37.2083 237.25 36.4375V13H241.094V45H239.812ZM258.188 16.6562C257.417 16.6562 256.688 16.8021 256 17.0938C255.333 17.3854 254.75 17.7812 254.25 18.2812C253.75 18.7812 253.354 19.375 253.062 20.0625C252.771 20.7292 252.625 21.4479 252.625 22.2188V45H248.781V13H250.062L252.156 16.25C253.031 15.0625 254.125 14.125 255.438 13.4375C256.771 12.7292 258.219 12.375 259.781 12.375H262.031V16.6562H258.188ZM308.406 34C308.406 35.5208 308.115 36.9479 307.531 38.2812C306.969 39.6146 306.188 40.7812 305.188 41.7812C304.188 42.7812 303.01 43.5729 301.656 44.1562C300.323 44.7188 298.896 45 297.375 45H283.188V0.1875H297.375C298.896 0.1875 300.323 0.479167 301.656 1.0625C303.01 1.625 304.188 2.40625 305.188 3.40625C306.188 4.40625 306.969 5.58333 307.531 6.9375C308.115 8.27083 308.406 9.69792 308.406 11.2188V11.6562C308.406 12.7188 308.26 13.7396 307.969 14.7188C307.698 15.6771 307.302 16.5729 306.781 17.4062C306.26 18.2396 305.646 19 304.938 19.6875C304.229 20.3542 303.438 20.9167 302.562 21.375C303.438 21.8333 304.229 22.4062 304.938 23.0938C305.646 23.7604 306.26 24.5208 306.781 25.375C307.302 26.2083 307.698 27.1146 307.969 28.0938C308.26 29.0521 308.406 30.0625 308.406 31.125V34ZM304.375 30.4688C304.375 29.4688 304.188 28.5417 303.812 27.6875C303.438 26.8125 302.917 26.0521 302.25 25.4062C301.604 24.7604 300.844 24.25 299.969 23.875C299.115 23.5 298.188 23.3125 297.188 23.3125H287.219V41.1562H297.188C298.188 41.1562 299.115 40.9688 299.969 40.5938C300.844 40.2188 301.604 39.7083 302.25 39.0625C302.917 38.4167 303.438 37.6667 303.812 36.8125C304.188 35.9375 304.375 35 304.375 34V30.4688ZM304.375 11.2188C304.375 10.2188 304.188 9.29167 303.812 8.4375C303.438 7.5625 302.917 6.80208 302.25 6.15625C301.604 5.48958 300.844 4.96875 299.969 4.59375C299.115 4.21875 298.188 4.03125 297.188 4.03125H287.219V19.4688H297.188C298.188 19.4688 299.115 19.2812 299.969 18.9062C300.844 18.5312 301.604 18.0208 302.25 17.375C302.917 16.7083 303.438 15.9479 303.812 15.0938C304.188 14.2188 304.375 13.2812 304.375 12.2812V11.2188ZM334.938 45L332.812 41.8125C331.938 42.9583 330.844 43.8854 329.531 44.5938C328.219 45.2812 326.781 45.625 325.219 45.625H324.25C322.958 45.625 321.74 45.3854 320.594 44.9062C319.448 44.4062 318.448 43.7292 317.594 42.875C316.74 42.0208 316.062 41.0208 315.562 39.875C315.083 38.7292 314.844 37.5104 314.844 36.2188V35.9062C314.844 34.6146 315.083 33.3958 315.562 32.25C316.062 31.1042 316.74 30.1042 317.594 29.25C318.448 28.3958 319.448 27.7292 320.594 27.25C321.74 26.75 322.958 26.5 324.25 26.5H332.375V21.5625C332.375 20.7917 332.229 20.0729 331.938 19.4062C331.646 18.7188 331.25 18.125 330.75 17.625C330.25 17.125 329.656 16.7292 328.969 16.4375C328.302 16.1458 327.583 16 326.812 16H324.562C323.792 16 323.062 16.1458 322.375 16.4375C321.708 16.7292 321.125 17.125 320.625 17.625C320.125 18.125 319.729 18.7188 319.438 19.4062C319.146 20.0729 319 20.7917 319 21.5625V22.7188L315.156 22.0938V21.7812C315.156 20.4896 315.396 19.2708 315.875 18.125C316.375 16.9792 317.052 15.9792 317.906 15.125C318.76 14.2708 319.76 13.6042 320.906 13.125C322.052 12.625 323.271 12.375 324.562 12.375H326.812C328.104 12.375 329.323 12.625 330.469 13.125C331.615 13.6042 332.615 14.2708 333.469 15.125C334.323 15.9792 334.99 16.9792 335.469 18.125C335.969 19.2708 336.219 20.4896 336.219 21.7812V45H334.938ZM332.375 29.5H324.25C323.479 29.5 322.75 29.6458 322.062 29.9375C321.396 30.2292 320.812 30.6354 320.312 31.1562C319.812 31.6562 319.417 32.25 319.125 32.9375C318.833 33.6042 318.688 34.3229 318.688 35.0938V36.4375C318.688 37.2083 318.833 37.9375 319.125 38.625C319.417 39.2917 319.812 39.875 320.312 40.375C320.812 40.875 321.396 41.2708 322.062 41.5625C322.75 41.8542 323.479 42 324.25 42H326.812C327.583 42 328.302 41.8542 328.969 41.5625C329.656 41.2708 330.25 40.875 330.75 40.375C331.25 39.875 331.646 39.2917 331.938 38.625C332.229 37.9375 332.375 37.2083 332.375 36.4375V29.5ZM345.188 45V0.1875H349.031V45H345.188ZM378.125 45L376 41.8125C375.125 42.9583 374.031 43.8854 372.719 44.5938C371.406 45.2812 369.969 45.625 368.406 45.625H367.438C366.146 45.625 364.927 45.3854 363.781 44.9062C362.635 44.4062 361.635 43.7292 360.781 42.875C359.927 42.0208 359.25 41.0208 358.75 39.875C358.271 38.7292 358.031 37.5104 358.031 36.2188V35.9062C358.031 34.6146 358.271 33.3958 358.75 32.25C359.25 31.1042 359.927 30.1042 360.781 29.25C361.635 28.3958 362.635 27.7292 363.781 27.25C364.927 26.75 366.146 26.5 367.438 26.5H375.562V21.5625C375.562 20.7917 375.417 20.0729 375.125 19.4062C374.833 18.7188 374.438 18.125 373.938 17.625C373.438 17.125 372.844 16.7292 372.156 16.4375C371.49 16.1458 370.771 16 370 16H367.75C366.979 16 366.25 16.1458 365.562 16.4375C364.896 16.7292 364.312 17.125 363.812 17.625C363.312 18.125 362.917 18.7188 362.625 19.4062C362.333 20.0729 362.188 20.7917 362.188 21.5625V22.7188L358.344 22.0938V21.7812C358.344 20.4896 358.583 19.2708 359.062 18.125C359.562 16.9792 360.24 15.9792 361.094 15.125C361.948 14.2708 362.948 13.6042 364.094 13.125C365.24 12.625 366.458 12.375 367.75 12.375H370C371.292 12.375 372.51 12.625 373.656 13.125C374.802 13.6042 375.802 14.2708 376.656 15.125C377.51 15.9792 378.177 16.9792 378.656 18.125C379.156 19.2708 379.406 20.4896 379.406 21.7812V45H378.125ZM375.562 29.5H367.438C366.667 29.5 365.938 29.6458 365.25 29.9375C364.583 30.2292 364 30.6354 363.5 31.1562C363 31.6562 362.604 32.25 362.312 32.9375C362.021 33.6042 361.875 34.3229 361.875 35.0938V36.4375C361.875 37.2083 362.021 37.9375 362.312 38.625C362.604 39.2917 363 39.875 363.5 40.375C364 40.875 364.583 41.2708 365.25 41.5625C365.938 41.8542 366.667 42 367.438 42H370C370.771 42 371.49 41.8542 372.156 41.5625C372.844 41.2708 373.438 40.875 373.938 40.375C374.438 39.875 374.833 39.2917 375.125 38.625C375.417 37.9375 375.562 37.2083 375.562 36.4375V29.5ZM404.625 45V21.5625C404.625 20.7917 404.479 20.0729 404.188 19.4062C403.896 18.7188 403.5 18.125 403 17.625C402.5 17.125 401.906 16.7292 401.219 16.4375C400.552 16.1458 399.833 16 399.062 16H396.5C395.729 16 395 16.1458 394.312 16.4375C393.646 16.7292 393.062 17.125 392.562 17.625C392.062 18.125 391.667 18.7188 391.375 19.4062C391.083 20.0729 390.938 20.7917 390.938 21.5625V45H387.094V13H388.375L390.469 16.25C391.344 15.0625 392.438 14.125 393.75 13.4375C395.083 12.7292 396.531 12.375 398.094 12.375H399.062C400.354 12.375 401.573 12.625 402.719 13.125C403.865 13.6042 404.865 14.2708 405.719 15.125C406.573 15.9792 407.24 16.9792 407.719 18.125C408.219 19.2708 408.469 20.4896 408.469 21.7812V45H404.625ZM437.531 36.2188C437.531 37.5104 437.281 38.7292 436.781 39.875C436.302 41.0208 435.635 42.0208 434.781 42.875C433.927 43.7292 432.927 44.4062 431.781 44.9062C430.635 45.3854 429.417 45.625 428.125 45.625H425.562C424.271 45.625 423.052 45.3854 421.906 44.9062C420.76 44.4062 419.76 43.7292 418.906 42.875C418.052 42.0208 417.375 41.0208 416.875 39.875C416.396 38.7292 416.156 37.5104 416.156 36.2188V21.7812C416.156 20.4896 416.396 19.2708 416.875 18.125C417.375 16.9792 418.052 15.9792 418.906 15.125C419.76 14.2708 420.76 13.6042 421.906 13.125C423.052 12.625 424.271 12.375 425.562 12.375H428.125C429.417 12.375 430.635 12.625 431.781 13.125C432.927 13.6042 433.927 14.2708 434.781 15.125C435.635 15.9792 436.302 16.9792 436.781 18.125C437.281 19.2708 437.531 20.4896 437.531 21.7812V23.0625L433.688 23.6875V21.5625C433.688 20.7917 433.542 20.0729 433.25 19.4062C432.958 18.7188 432.562 18.125 432.062 17.625C431.562 17.125 430.969 16.7292 430.281 16.4375C429.615 16.1458 428.896 16 428.125 16H425.562C424.792 16 424.062 16.1458 423.375 16.4375C422.708 16.7292 422.125 17.125 421.625 17.625C421.125 18.125 420.729 18.7188 420.438 19.4062C420.146 20.0729 420 20.7917 420 21.5625V36.4375C420 37.2083 420.146 37.9375 420.438 38.625C420.729 39.2917 421.125 39.875 421.625 40.375C422.125 40.875 422.708 41.2708 423.375 41.5625C424.062 41.8542 424.792 42 425.562 42H428.125C428.896 42 429.615 41.8542 430.281 41.5625C430.969 41.2708 431.562 40.875 432.062 40.375C432.562 39.875 432.958 39.2917 433.25 38.625C433.542 37.9375 433.688 37.2083 433.688 36.4375V34.3125L437.531 34.9375V36.2188ZM466.594 36.2188C466.594 37.5104 466.344 38.7292 465.844 39.875C465.365 41.0208 464.698 42.0208 463.844 42.875C462.99 43.7292 461.99 44.4062 460.844 44.9062C459.698 45.3854 458.479 45.625 457.188 45.625H454.625C453.333 45.625 452.115 45.3854 450.969 44.9062C449.823 44.4062 448.823 43.7292 447.969 42.875C447.115 42.0208 446.438 41.0208 445.938 39.875C445.458 38.7292 445.219 37.5104 445.219 36.2188V21.7812C445.219 20.4896 445.458 19.2708 445.938 18.125C446.438 16.9792 447.115 15.9792 447.969 15.125C448.823 14.2708 449.823 13.6042 450.969 13.125C452.115 12.625 453.333 12.375 454.625 12.375H457.188C458.479 12.375 459.698 12.625 460.844 13.125C461.99 13.6042 462.99 14.2708 463.844 15.125C464.698 15.9792 465.365 16.9792 465.844 18.125C466.344 19.2708 466.594 20.4896 466.594 21.7812V29.3125H449.062V36.4375C449.062 37.2083 449.208 37.9375 449.5 38.625C449.792 39.2917 450.188 39.875 450.688 40.375C451.188 40.875 451.771 41.2708 452.438 41.5625C453.125 41.8542 453.854 42 454.625 42H457.188C457.958 42 458.677 41.8542 459.344 41.5625C460.031 41.2708 460.625 40.875 461.125 40.375C461.625 39.875 462.021 39.2917 462.312 38.625C462.604 37.9375 462.75 37.2083 462.75 36.4375V34.3125L466.594 34.9375V36.2188ZM462.75 21.5625C462.75 20.7917 462.604 20.0729 462.312 19.4062C462.021 18.7188 461.625 18.125 461.125 17.625C460.625 17.125 460.031 16.7292 459.344 16.4375C458.677 16.1458 457.958 16 457.188 16H454.625C453.854 16 453.125 16.1458 452.438 16.4375C451.771 16.7292 451.188 17.125 450.688 17.625C450.188 18.125 449.792 18.7188 449.5 19.4062C449.208 20.0729 449.062 20.7917 449.062 21.5625V26.3125H462.75V21.5625ZM474.281 45V40.1875H479.094V45H474.281Z" fill="white"/>
</svg>
