<svg width="750" height="178" viewBox="0 0 750 178" fill="none" xmlns="http://www.w3.org/2000/svg">
<rect width="750" height="178" fill="#33404F"/>
<rect opacity="0.2" x="240" y="150" width="268" height="10" rx="5" fill="white"/>
<path d="M66.6667 70.0033L89.6 48.75C90.6133 47.75 92.1467 47.75 93.16 48.75L116.093 70.0033" stroke="white" stroke-width="4" stroke-miterlimit="10" stroke-linecap="round"/>
<path d="M70.3467 67.3366V93.2166C70.3467 95.4699 72.1067 97.2966 74.2933 97.2966H108.467C110.64 97.2966 112.413 95.4699 112.413 93.2166V66.6699" stroke="white" stroke-width="4" stroke-miterlimit="10" stroke-linecap="round"/>
<path d="M83.7466 96.0566V79.0566C83.7466 76.8433 85.2666 75.0566 87.1466 75.0566H95.6133C97.4933 75.0566 99.0133 76.8433 99.0133 79.0566V96.0566" stroke="white" stroke-width="4" stroke-miterlimit="10" stroke-linecap="round"/>
<path d="M213.5 91.3333C213.5 88.3867 215.887 86 218.833 86H250.167C251.633 86 252.833 84.8 252.833 83.3333V50.6667C252.833 49.2 251.633 48 250.167 48H218.833C215.887 48 213.5 50.3867 213.5 53.3333V92C213.5 94.9467 215.887 97.3333 218.833 97.3333H252.833" stroke="white" stroke-width="4" stroke-miterlimit="10" stroke-linecap="round"/>
<path d="M251.5 91.3334H218.167" stroke="white" stroke-width="4" stroke-miterlimit="10" stroke-linecap="round"/>
<path d="M222.167 48.6666V85.3333" stroke="white" stroke-width="4" stroke-miterlimit="10" stroke-linecap="round"/>
<path d="M369.667 69.3333H356.333C354.867 69.3333 353.667 68.1333 353.667 66.6666V53.3333C353.667 51.8666 354.867 50.6666 356.333 50.6666H369.667C371.133 50.6666 372.333 51.8666 372.333 53.3333V66.6666C372.333 68.1333 371.133 69.3333 369.667 69.3333Z" stroke="white" stroke-width="4" stroke-miterlimit="10"/>
<path d="M369.667 94.6399H356.333C354.867 94.6399 353.667 93.4399 353.667 91.9733V78.6399C353.667 77.1733 354.867 75.9733 356.333 75.9733H369.667C371.133 75.9733 372.333 77.1733 372.333 78.6399V91.9733C372.333 93.4399 371.133 94.6399 369.667 94.6399Z" stroke="white" stroke-width="4" stroke-miterlimit="10"/>
<path d="M395 69.3333H381.667C380.2 69.3333 379 68.1333 379 66.6666V53.3333C379 51.8666 380.2 50.6666 381.667 50.6666H395C396.467 50.6666 397.667 51.8666 397.667 53.3333V66.6666C397.667 68.1333 396.467 69.3333 395 69.3333Z" stroke="white" stroke-width="4" stroke-miterlimit="10"/>
<path d="M388.333 94.6399C383.173 94.6399 379 90.4666 379 85.3066C379 80.1466 383.173 75.9733 388.333 75.9733C393.493 75.9733 397.667 80.1466 397.667 85.3066C397.667 90.4666 393.493 94.6399 388.333 94.6399Z" stroke="white" stroke-width="4" stroke-miterlimit="10"/>
<path d="M537.047 83.6134L533.3 81.84L533.34 67.4667C533.34 60.3467 528.873 54.2667 522.593 51.8534V51.2C522.58 47.96 519.86 45.3334 516.5 45.3334C513.14 45.3334 510.42 47.96 510.42 51.2V51.9067C504.233 54.3734 499.833 60.4134 499.833 67.4667L499.793 81.84L495.967 83.6C494.687 84.0934 493.833 85.3334 493.833 86.7067V90.1467C493.833 91.9867 495.327 93.48 497.167 93.48H509.82C510.473 96.56 513.22 98.8934 516.5 98.8934C519.78 98.8934 522.527 96.5734 523.18 93.48H535.833C537.673 93.48 539.167 91.9867 539.167 90.1467V86.7067C539.167 85.3334 538.313 84.1067 537.047 83.6134ZM516.5 49.3334C517.42 49.3334 518.193 49.8667 518.473 50.6C517.927 50.5334 517.38 50.5067 516.847 50.4934C516.087 50.4934 515.313 50.52 514.54 50.6C514.807 49.8667 515.58 49.3334 516.5 49.3334ZM516.5 94.8934C515.46 94.8934 514.553 94.32 514.06 93.48H518.94C518.447 94.32 517.54 94.8934 516.5 94.8934ZM535.167 89.48H497.833V87.1467L501.66 85.3734C502.94 84.88 503.793 83.6534 503.793 82.2667L503.833 67.4667C503.833 60.44 509.553 54.72 516.58 54.72C523.607 54.72 529.327 60.44 529.327 67.4667L529.287 82.2667C529.287 83.6534 530.127 84.88 531.407 85.3867L535.167 87.1467V89.48Z" fill="white"/>
<path d="M515.167 58.0533C510.207 58.0533 506.18 62.08 506.18 67.04C506.18 68.1467 507.073 69.04 508.18 69.04C509.287 69.04 510.18 68.1467 510.18 67.04C510.18 64.2933 512.42 62.0533 515.167 62.0533C516.273 62.0533 517.167 61.16 517.167 60.0533C517.167 58.9467 516.273 58.0533 515.167 58.0533Z" fill="white"/>
<path d="M683.333 72.6667C683.333 79.2933 680.733 85.3067 676.467 89.72C672 94.4133 665.667 97.3333 658.667 97.3333C651.667 97.3333 645.333 94.4133 640.867 89.72C636.6 85.3067 634 79.2933 634 72.6667C634 59.04 645.04 48 658.667 48C672.293 48 683.333 59.04 683.333 72.6667Z" stroke="#00DDA3" stroke-width="4" stroke-miterlimit="10"/>
<path d="M658.667 70.6667C663.453 70.6667 667.333 66.7865 667.333 62C667.333 57.2136 663.453 53.3334 658.667 53.3334C653.88 53.3334 650 57.2136 650 62C650 66.7865 653.88 70.6667 658.667 70.6667Z" stroke="#00DDA3" stroke-width="4" stroke-miterlimit="10"/>
<path d="M676.467 89.72C672 94.4133 665.667 97.3333 658.667 97.3333C651.667 97.3333 645.333 94.4133 640.867 89.72C643.24 82.1466 650.32 76.6666 658.667 76.6666C667.013 76.6666 674.093 82.1466 676.467 89.72Z" stroke="#00DDA3" stroke-width="4" stroke-miterlimit="10"/>
<circle cx="658" cy="122" r="8" fill="#00DDA3"/>
</svg>
