<svg width="141" height="30" viewBox="0 0 141 30" fill="none" xmlns="http://www.w3.org/2000/svg">
<path d="M0.611328 17.126C0.772461 21.0664 4.03906 23.542 9.07812 23.542C14.3809 23.542 17.6475 20.9346 17.6475 16.6719C17.6475 13.3906 15.8164 11.5596 11.5684 10.666L9.01953 10.124C6.54395 9.59668 5.5332 8.84961 5.5332 7.5459C5.5332 5.93457 6.99805 4.90918 9.20996 4.90918C11.3486 4.90918 12.9014 6.02246 13.1064 7.69238H17.2666C17.1348 3.92773 13.8389 1.32031 9.18066 1.32031C4.30273 1.32031 1.09473 3.94238 1.09473 7.92676C1.09473 11.1494 2.98438 13.1562 6.83691 13.9619L9.59082 14.5479C12.1836 15.1045 13.2383 15.8809 13.2383 17.2285C13.2383 18.8252 11.6123 19.9385 9.3125 19.9385C6.82227 19.9385 5.09375 18.8398 4.88867 17.126H0.611328ZM21.5586 23H25.8213V13.7275C25.8213 11.6328 27.0518 10.2119 29.1904 10.2119C31.124 10.2119 32.1641 11.3691 32.1641 13.6104V23H36.4268V12.5996C36.4268 8.71777 34.3613 6.53516 30.8896 6.53516C28.5166 6.53516 26.7588 7.64844 26.0117 9.49414H25.748V0.675781H21.5586V23ZM47.7354 23.3516C52.7012 23.3516 55.6895 20.2021 55.6895 14.9141C55.6895 9.66992 52.6572 6.49121 47.7354 6.49121C42.8135 6.49121 39.7812 9.68457 39.7812 14.9141C39.7812 20.2021 42.7695 23.3516 47.7354 23.3516ZM47.7354 19.8652C45.4502 19.8652 44.1611 18.0635 44.1611 14.9141C44.1611 11.8086 45.4648 9.97754 47.7354 9.97754C49.9912 9.97754 51.3096 11.8086 51.3096 14.9141C51.3096 18.0488 50.0059 19.8652 47.7354 19.8652ZM68.5068 6.5791C66.2803 6.5791 64.4492 7.67773 63.5703 9.49414H63.3066V6.84277H59.1758V28.3613H63.4385V20.5244H63.7021C64.4932 22.2383 66.2656 23.249 68.5801 23.249C72.623 23.249 75.0986 20.1289 75.0986 14.9141C75.0986 9.68457 72.5938 6.5791 68.5068 6.5791ZM67.0566 19.6895C64.8008 19.6895 63.3945 17.8877 63.3945 14.9287C63.3945 11.9697 64.8008 10.1533 67.0713 10.1533C69.3418 10.1533 70.7188 11.9551 70.7188 14.9141C70.7188 17.9023 69.3564 19.6895 67.0566 19.6895ZM87.9014 6.5791C85.6748 6.5791 83.8438 7.67773 82.9648 9.49414H82.7012V6.84277H78.5703V28.3613H82.833V20.5244H83.0967C83.8877 22.2383 85.6602 23.249 87.9746 23.249C92.0176 23.249 94.4932 20.1289 94.4932 14.9141C94.4932 9.68457 91.9883 6.5791 87.9014 6.5791ZM86.4512 19.6895C84.1953 19.6895 82.7891 17.8877 82.7891 14.9287C82.7891 11.9697 84.1953 10.1533 86.4658 10.1533C88.7363 10.1533 90.1133 11.9551 90.1133 14.9141C90.1133 17.9023 88.751 19.6895 86.4512 19.6895ZM97.9941 23H102.257V6.84277H97.9941V23ZM100.133 4.58691C101.656 4.58691 102.652 3.69336 102.652 2.43359C102.652 1.15918 101.656 0.280273 100.133 0.280273C98.5947 0.280273 97.6133 1.15918 97.6133 2.43359C97.6133 3.69336 98.5947 4.58691 100.133 4.58691ZM106.578 23H110.841V13.6836C110.841 11.5596 112.057 10.168 114.034 10.168C116.056 10.168 117.008 11.3398 117.008 13.5664V23H121.271V12.5557C121.271 8.68848 119.337 6.49121 115.748 6.49121C113.36 6.49121 111.72 7.61914 110.973 9.43555H110.709V6.84277H106.578V23ZM132.594 19.3965C130.279 19.3965 128.961 17.624 128.961 14.7676C128.961 11.9404 130.294 10.1533 132.594 10.1533C134.894 10.1533 136.285 11.9404 136.285 14.7822C136.285 17.624 134.908 19.3965 132.594 19.3965ZM132.535 29.123C137.413 29.123 140.504 26.7354 140.504 22.9414V6.84277H136.373V9.43555H136.109C135.245 7.66309 133.385 6.5791 131.202 6.5791C127.101 6.5791 124.581 9.77246 124.581 14.7822C124.581 19.6455 127.086 22.7656 131.114 22.7656C133.385 22.7656 135.084 21.8574 135.978 20.1582H136.241V23.1465C136.241 24.9629 134.908 26.0176 132.623 26.0176C130.777 26.0176 129.576 25.3877 129.356 24.3916H125.138C125.401 27.2334 128.243 29.123 132.535 29.123Z" fill="#33404F"/>
</svg>
