<svg width="67" height="26" viewBox="0 0 67 26" fill="none" xmlns="http://www.w3.org/2000/svg">
<path d="M9.47656 25.9922V24.0732C13.7686 23.707 16.2441 21.4658 16.2441 17.877C16.2441 14.8447 14.5156 12.9844 10.8389 12.0908L9.47656 11.7832V5.46973C11.4102 5.7041 12.7285 6.96387 12.7871 8.5752H15.8486C15.7607 5.30859 13.2705 2.99414 9.47656 2.65723V0.635742H7.46973V2.65723C3.51465 3.02344 1.1123 5.26465 1.1123 8.64844C1.1123 11.5049 2.89941 13.4678 6.16602 14.3027L7.46973 14.6396V21.3193C5.28711 21.0703 3.88086 19.8545 3.73438 18.1113H0.628906C0.643555 21.5098 3.28027 23.8096 7.46973 24.0879V25.9922H9.47656ZM13.124 18.2139C13.124 20.0742 11.791 21.2168 9.47656 21.3486V15.0205C11.9668 15.5186 13.124 16.5293 13.124 18.2139ZM4.24707 8.38477C4.24707 6.78809 5.59473 5.55762 7.46973 5.45508V11.3584C5.36035 10.9336 4.24707 9.89355 4.24707 8.38477ZM25.751 24H29.0322V2.8623H25.7656L20.1992 6.78809V10.1426L25.502 6.39258H25.751V24ZM36.0781 24H39.5205L48.7197 5.83594V2.8623H34.3203V5.77734H45.3945V6.01172L36.0781 24ZM60.7314 24H63.8955V19.9131H66.8105V16.9834H63.8955V2.8623H59.2227C55.458 8.50195 52.3086 13.4092 50.4189 16.8662V19.9131H60.7314V24ZM53.5684 16.8516C56.0586 12.5303 58.4902 8.78027 60.585 5.74805H60.7754V17.0566H53.5684V16.8516Z" fill="#33404F"/>
</svg>
