<svg width="68" height="26" viewBox="0 0 68 26" fill="none" xmlns="http://www.w3.org/2000/svg">
<path d="M9.42383 25.9922V24.0732C13.7158 23.707 16.1914 21.4658 16.1914 17.877C16.1914 14.8447 14.4629 12.9844 10.7861 12.0908L9.42383 11.7832V5.46973C11.3574 5.7041 12.6758 6.96387 12.7344 8.5752H15.7959C15.708 5.30859 13.2178 2.99414 9.42383 2.65723V0.635742H7.41699V2.65723C3.46191 3.02344 1.05957 5.26465 1.05957 8.64844C1.05957 11.5049 2.84668 13.4678 6.11328 14.3027L7.41699 14.6396V21.3193C5.23438 21.0703 3.82812 19.8545 3.68164 18.1113H0.576172C0.59082 21.5098 3.22754 23.8096 7.41699 24.0879V25.9922H9.42383ZM13.0713 18.2139C13.0713 20.0742 11.7383 21.2168 9.42383 21.3486V15.0205C11.9141 15.5186 13.0713 16.5293 13.0713 18.2139ZM4.19434 8.38477C4.19434 6.78809 5.54199 5.55762 7.41699 5.45508V11.3584C5.30762 10.9336 4.19434 9.89355 4.19434 8.38477ZM30.3564 24H33.5205V19.9131H36.4355V16.9834H33.5205V2.8623H28.8477C25.083 8.50195 21.9336 13.4092 20.0439 16.8662V19.9131H30.3564V24ZM23.1934 16.8516C25.6836 12.5303 28.1152 8.78027 30.21 5.74805H30.4004V17.0566H23.1934V16.8516ZM47.7588 24.5127C52.3145 24.5127 55.4053 21.5391 55.4053 17.1592C55.4053 12.999 52.5781 10.0693 48.5645 10.0693C46.5576 10.0693 45.0635 10.7432 44.0967 11.9883H43.8477L44.4043 5.79199H54.1748V2.8623H41.8408L40.7275 14.9619H43.7305C44.5508 13.5996 46.0156 12.7939 47.832 12.7939C50.4102 12.7939 52.1973 14.5957 52.1973 17.2471C52.1973 19.8838 50.4248 21.627 47.7881 21.627C45.4736 21.627 43.7598 20.2646 43.5107 18.2139H40.3906C40.5811 21.9199 43.5547 24.5127 47.7588 24.5127ZM64.4287 24H67.71V2.8623H64.4434L58.877 6.78809V10.1426L64.1797 6.39258H64.4287V24Z" fill="#00DDA3"/>
</svg>
