<svg width="94" height="23" viewBox="0 0 94 23" fill="none" xmlns="http://www.w3.org/2000/svg">
<path d="M9.82715 15.335H15.877V11.5557H9.82715V5.5791H6.0918V11.5557H0.0566406V15.335H6.0918V21.3262H9.82715V15.335ZM20.2275 7.19043V7.26367H24.3291V7.17578C24.3291 5.22754 25.7354 3.87988 27.7861 3.87988C29.7197 3.87988 31.0967 5.08105 31.0967 6.78027C31.0967 8.15723 30.3496 9.25586 27.376 12.1562L20.4766 18.9092V22H35.7256V18.3232H26.4678V18.0596L30.5107 14.207C34.1729 10.7646 35.418 8.78711 35.418 6.4873C35.418 2.85449 32.3418 0.320312 27.9326 0.320312C23.3623 0.320312 20.2275 3.10352 20.2275 7.19043ZM48.0449 22.542C53.1279 22.542 56.5996 20.0225 56.5996 16.3164C56.5996 13.6211 54.7393 11.4824 51.9268 10.9551V10.6914C54.2412 10.1494 55.7354 8.34766 55.7354 6.0918C55.7354 2.72266 52.542 0.320312 48.0596 0.320312C43.5625 0.320312 40.3691 2.72266 40.3691 6.0918C40.3691 8.33301 41.8779 10.1641 44.1777 10.6914V10.9551C41.3506 11.585 39.5195 13.709 39.5195 16.3604C39.5195 20.0371 42.9619 22.542 48.0449 22.542ZM48.0449 19.2021C45.7305 19.2021 44.1191 17.8691 44.1191 15.9502C44.1191 14.0166 45.7305 12.6836 48.0449 12.6836C50.374 12.6836 51.9854 14.0166 51.9854 15.9502C51.9854 17.8691 50.374 19.2021 48.0449 19.2021ZM48.0449 9.41699C46.0967 9.41699 44.7344 8.21582 44.7344 6.5166C44.7344 4.80273 46.082 3.60156 48.0449 3.60156C50.0078 3.60156 51.3701 4.80273 51.3701 6.5166C51.3701 8.21582 50.0078 9.41699 48.0449 9.41699ZM62.5176 22.3955C64.0996 22.3955 65.1104 21.3262 65.1104 19.8467C65.1104 18.3672 64.0996 17.3125 62.5176 17.3125C60.9502 17.3125 59.9248 18.3672 59.9248 19.8467C59.9248 21.3262 60.9502 22.3955 62.5176 22.3955ZM73.4307 22H77.8545V0.862305H73.4453L67.9814 4.62695V8.74316L73.167 5.16895H73.4307V22ZM88.8408 22H93.2646V0.862305H88.8555L83.3916 4.62695V8.74316L88.5771 5.16895H88.8408V22Z" fill="#33404F"/>
</svg>
