<svg width="66" height="18" viewBox="0 0 66 18" fill="none" xmlns="http://www.w3.org/2000/svg">
<path opacity="0.5" d="M2.67676 17V10.5762H9.33691V8.44922H2.67676V3.69043H9.94922V1.49902H0.270508V17H2.67676ZM17.6084 7.04199C19.3164 7.04199 20.4336 8.23438 20.4873 10.0713H14.5791C14.708 8.24512 15.9004 7.04199 17.6084 7.04199ZM20.4766 13.8418C20.0469 14.7549 19.0908 15.2598 17.6943 15.2598C15.8467 15.2598 14.6543 13.96 14.5791 11.9082V11.7793H22.8398V10.9736C22.8398 7.2998 20.874 5.07617 17.6191 5.07617C14.3213 5.07617 12.2266 7.4502 12.2266 11.1885C12.2266 14.9268 14.2783 17.2256 17.6299 17.2256C20.3047 17.2256 22.1738 15.9365 22.7002 13.8418H20.4766ZM31.8096 17.1934C34.7637 17.1934 36.6436 14.8516 36.6436 11.1455C36.6436 7.42871 34.7744 5.1084 31.8096 5.1084C30.209 5.1084 28.834 5.88184 28.2109 7.16016H28.0283V0.736328H25.7188V17H27.9424V15.1523H28.1143C28.8125 16.4414 30.1768 17.1934 31.8096 17.1934ZM31.1436 7.18164C33.0986 7.18164 34.2695 8.68555 34.2695 11.1455C34.2695 13.627 33.0986 15.1201 31.1436 15.1201C29.1992 15.1201 27.9961 13.6055 27.9854 11.1562C27.9961 8.70703 29.21 7.18164 31.1436 7.18164ZM45.3125 5.97852V6.01074H47.5898V5.97852C47.5898 4.32422 48.7393 3.20703 50.4473 3.20703C52.0479 3.20703 53.2617 4.27051 53.2617 5.68848C53.2617 6.82715 52.7568 7.64355 50.6836 9.80273L45.4414 15.2598V17H55.8828V14.8408H48.793V14.6582L52.2412 11.167C54.8408 8.53516 55.6357 7.19238 55.6357 5.54883C55.6357 2.99219 53.4658 1.12305 50.5225 1.12305C47.4717 1.12305 45.3125 3.12109 45.3125 5.97852ZM62.7578 17H65.1641V1.49902H62.7686L58.6865 4.37793V6.83789L62.5752 4.08789H62.7578V17Z" fill="#33404F"/>
</svg>
