<svg width="99" height="18" viewBox="0 0 99 18" fill="none" xmlns="http://www.w3.org/2000/svg">
<path opacity="0.5" d="M3.35059 17V10.5762H10.0107V8.44922H3.35059V3.69043H10.623V1.49902H0.944336V17H3.35059ZM13.5234 17H15.8223V5.30176H13.5234V17ZM14.6729 3.25C15.5322 3.25 16.166 2.6377 16.166 1.84277C16.166 1.03711 15.5322 0.424805 14.6729 0.424805C13.8135 0.424805 13.1797 1.03711 13.1797 1.84277C13.1797 2.6377 13.8135 3.25 14.6729 3.25ZM29.1211 5.30176H26.6719L23.7715 14.5293H23.5889L20.6777 5.30176H18.207L22.4287 17H24.9102L29.1211 5.30176ZM35.8135 7.04199C37.5215 7.04199 38.6387 8.23438 38.6924 10.0713H32.7842C32.9131 8.24512 34.1055 7.04199 35.8135 7.04199ZM38.6816 13.8418C38.252 14.7549 37.2959 15.2598 35.8994 15.2598C34.0518 15.2598 32.8594 13.96 32.7842 11.9082V11.7793H41.0449V10.9736C41.0449 7.2998 39.0791 5.07617 35.8242 5.07617C32.5264 5.07617 30.4316 7.4502 30.4316 11.1885C30.4316 14.9268 32.4834 17.2256 35.835 17.2256C38.5098 17.2256 40.3789 15.9365 40.9053 13.8418H38.6816ZM59.7686 14.7871H52.5068V1.49902H50.1006V17H59.7686V14.7871ZM66.9551 17.2256C70.3711 17.2256 72.4658 14.9375 72.4658 11.1455C72.4658 7.375 70.3604 5.07617 66.9551 5.07617C63.5391 5.07617 61.4336 7.375 61.4336 11.1455C61.4336 14.9375 63.5283 17.2256 66.9551 17.2256ZM66.9551 15.1738C64.9463 15.1738 63.8184 13.7021 63.8184 11.1455C63.8184 8.61035 64.9463 7.12793 66.9551 7.12793C68.9531 7.12793 70.0918 8.61035 70.0918 11.1455C70.0918 13.6914 68.9531 15.1738 66.9551 15.1738ZM79.5234 17.1934C81.1348 17.1934 82.499 16.4307 83.1973 15.1523H83.3799V17H85.5928V0.736328H83.2832V7.16016H83.1113C82.4775 5.87109 81.124 5.1084 79.5234 5.1084C76.5693 5.1084 74.668 7.4502 74.668 11.1455C74.668 14.8516 76.5479 17.1934 79.5234 17.1934ZM80.1787 7.18164C82.1123 7.18164 83.3262 8.71777 83.3262 11.1562C83.3262 13.6055 82.123 15.1201 80.1787 15.1201C78.2236 15.1201 77.0527 13.627 77.0527 11.1455C77.0527 8.68555 78.2344 7.18164 80.1787 7.18164ZM88.7939 8.61035C88.7939 10.3506 89.8252 11.3496 92.0488 11.876L94.0898 12.3486C95.2607 12.6279 95.8086 13.0791 95.8086 13.7773C95.8086 14.7119 94.7881 15.3564 93.3486 15.3564C91.9521 15.3564 91.0928 14.7979 90.8027 13.8955H88.4932C88.6973 15.9688 90.5127 17.2256 93.2949 17.2256C96.0879 17.2256 98.1396 15.7539 98.1396 13.5518C98.1396 11.833 97.0977 10.877 94.874 10.3613L92.9297 9.91016C91.6621 9.62012 91.0713 9.17969 91.0713 8.48145C91.0713 7.56836 92.0488 6.95605 93.3379 6.95605C94.6484 6.95605 95.4863 7.50391 95.7012 8.36328H97.9141C97.6885 6.30078 95.9697 5.07617 93.3379 5.07617C90.6953 5.07617 88.7939 6.53711 88.7939 8.61035Z" fill="#33404F"/>
</svg>
