<svg width="251" height="30" viewBox="0 0 251 30" fill="none" xmlns="http://www.w3.org/2000/svg">
<path d="M4.9873 23V14.7676H13.5859V11.1494H4.9873V5.6416H14.4062V1.8623H0.563477V23H4.9873ZM25.2314 23.3516C30.1973 23.3516 33.1855 20.2021 33.1855 14.9141C33.1855 9.66992 30.1533 6.49121 25.2314 6.49121C20.3096 6.49121 17.2773 9.68457 17.2773 14.9141C17.2773 20.2021 20.2656 23.3516 25.2314 23.3516ZM25.2314 19.8652C22.9463 19.8652 21.6572 18.0635 21.6572 14.9141C21.6572 11.8086 22.9609 9.97754 25.2314 9.97754C27.4873 9.97754 28.8057 11.8086 28.8057 14.9141C28.8057 18.0488 27.502 19.8652 25.2314 19.8652ZM43.835 23.3516C48.8008 23.3516 51.7891 20.2021 51.7891 14.9141C51.7891 9.66992 48.7568 6.49121 43.835 6.49121C38.9131 6.49121 35.8809 9.68457 35.8809 14.9141C35.8809 20.2021 38.8691 23.3516 43.835 23.3516ZM43.835 19.8652C41.5498 19.8652 40.2607 18.0635 40.2607 14.9141C40.2607 11.8086 41.5645 9.97754 43.835 9.97754C46.0908 9.97754 47.4092 11.8086 47.4092 14.9141C47.4092 18.0488 46.1055 19.8652 43.835 19.8652ZM61.0615 23.249C63.3027 23.249 65.1338 22.209 65.998 20.4658H66.2617V23H70.3926V0.675781H66.1299V9.4209H65.8809C65.0459 7.63379 63.2441 6.5791 61.0615 6.5791C57.0039 6.5791 54.4844 9.75781 54.4844 14.8994C54.4844 20.0557 56.9893 23.249 61.0615 23.249ZM62.5117 10.1533C64.7822 10.1533 66.1738 11.9844 66.1738 14.9287C66.1738 17.8877 64.7969 19.6895 62.5117 19.6895C60.2266 19.6895 58.8643 17.9023 58.8643 14.9141C58.8643 11.9551 60.2412 10.1533 62.5117 10.1533ZM97.5801 23H102.37L98.4443 18.8691C99.5869 17.3311 100.246 15.0898 100.246 12.5557V11.2373H96.6572V12.2773C96.6572 14.0352 96.4082 15.251 95.9102 16.1299L91.8525 11.9258C94.8115 10.3291 96.1592 8.57129 96.1592 6.38867C96.1592 3.53223 93.7129 1.54004 90.2559 1.54004C86.7842 1.54004 84.2354 3.62012 84.2354 6.47656C84.2354 8.0293 84.9238 9.34766 86.8574 11.3252C86.7402 11.3838 86.0078 11.8086 85.9199 11.8379C83.1953 13.332 81.9795 15.0605 81.9795 17.4775C81.9795 21.0811 84.8799 23.4102 89.377 23.4102C91.9697 23.4102 94.3867 22.6191 95.9541 21.2861L97.5801 23ZM88.249 13.9473C88.4102 13.8594 88.7031 13.7129 88.8643 13.6543L93.7129 18.7666C92.8779 19.6455 91.3545 20.2021 89.8164 20.2021C87.5312 20.2021 85.9785 18.957 85.9785 17.1113C85.9785 15.8223 86.7109 14.7822 88.249 13.9473ZM89.875 9.86035C88.4248 8.4834 87.9121 7.67773 87.9121 6.71094C87.9121 5.39258 88.8936 4.46973 90.2705 4.46973C91.6475 4.46973 92.5996 5.37793 92.5996 6.71094C92.5996 7.95605 91.8086 8.89355 89.875 9.86035ZM122.556 23C127.067 23 129.865 20.6562 129.865 16.9502C129.865 14.2256 127.829 12.1162 125.031 11.9111V11.6475C127.199 11.3252 128.854 9.37695 128.854 7.13574C128.854 3.86914 126.408 1.8623 122.307 1.8623H113.063V23H122.556ZM117.487 5.24609H121.179C123.288 5.24609 124.504 6.25684 124.504 7.94141C124.504 9.64062 123.2 10.6221 120.812 10.6221H117.487V5.24609ZM117.487 19.6162V13.6104H121.325C123.933 13.6104 125.354 14.6357 125.354 16.5693C125.354 18.5469 123.977 19.6162 121.428 19.6162H117.487ZM140.427 9.75781C142.419 9.75781 143.708 11.0908 143.796 13.2295H136.911C137.058 11.1348 138.449 9.75781 140.427 9.75781ZM143.884 18.4004C143.43 19.4697 142.272 20.0703 140.588 20.0703C138.361 20.0703 136.955 18.5762 136.896 16.1738V15.9541H147.985V14.6504C147.985 9.52344 145.173 6.49121 140.412 6.49121C135.607 6.49121 132.648 9.74316 132.648 15.002C132.648 20.2461 135.549 23.3516 140.471 23.3516C144.426 23.3516 147.209 21.4473 147.854 18.4004H143.884ZM165.651 6.84277H161.154L157.844 18.8838H157.58L154.24 6.84277H149.655L155.266 23H160.07L165.651 6.84277ZM174.851 9.75781C176.843 9.75781 178.132 11.0908 178.22 13.2295H171.335C171.481 11.1348 172.873 9.75781 174.851 9.75781ZM178.308 18.4004C177.854 19.4697 176.696 20.0703 175.012 20.0703C172.785 20.0703 171.379 18.5762 171.32 16.1738V15.9541H182.409V14.6504C182.409 9.52344 179.597 6.49121 174.836 6.49121C170.031 6.49121 167.072 9.74316 167.072 15.002C167.072 20.2461 169.973 23.3516 174.895 23.3516C178.85 23.3516 181.633 21.4473 182.277 18.4004H178.308ZM185.91 23H190.173V14.0498C190.173 11.7793 191.77 10.4023 194.099 10.4023C194.787 10.4023 195.783 10.5342 196.12 10.666V6.78418C195.754 6.65234 195.036 6.5791 194.45 6.5791C192.399 6.5791 190.729 7.80957 190.305 9.4209H190.041V6.84277H185.91V23ZM204.514 20.041C203.034 20.041 201.994 19.3086 201.994 18.1074C201.994 16.9502 202.888 16.291 204.719 16.1592L207.985 15.9541V17.1406C207.985 18.7812 206.491 20.041 204.514 20.041ZM203.107 23.249C205.202 23.249 206.96 22.3701 207.795 20.8906H208.059V23H212.189V11.9697C212.189 8.5127 209.772 6.49121 205.495 6.49121C201.438 6.49121 198.698 8.36621 198.42 11.3545H202.346C202.697 10.3877 203.723 9.86035 205.261 9.86035C207.019 9.86035 207.985 10.6221 207.985 11.9697V13.2881L204.074 13.5225C200.061 13.7568 197.819 15.4561 197.819 18.3857C197.819 21.3447 200.002 23.249 203.107 23.249ZM223.557 19.3965C221.242 19.3965 219.924 17.624 219.924 14.7676C219.924 11.9404 221.257 10.1533 223.557 10.1533C225.856 10.1533 227.248 11.9404 227.248 14.7822C227.248 17.624 225.871 19.3965 223.557 19.3965ZM223.498 29.123C228.376 29.123 231.467 26.7354 231.467 22.9414V6.84277H227.336V9.43555H227.072C226.208 7.66309 224.348 6.5791 222.165 6.5791C218.063 6.5791 215.544 9.77246 215.544 14.7822C215.544 19.6455 218.049 22.7656 222.077 22.7656C224.348 22.7656 226.047 21.8574 226.94 20.1582H227.204V23.1465C227.204 24.9629 225.871 26.0176 223.586 26.0176C221.74 26.0176 220.539 25.3877 220.319 24.3916H216.101C216.364 27.2334 219.206 29.123 223.498 29.123ZM242.731 9.75781C244.724 9.75781 246.013 11.0908 246.101 13.2295H239.216C239.362 11.1348 240.754 9.75781 242.731 9.75781ZM246.188 18.4004C245.734 19.4697 244.577 20.0703 242.893 20.0703C240.666 20.0703 239.26 18.5762 239.201 16.1738V15.9541H250.29V14.6504C250.29 9.52344 247.478 6.49121 242.717 6.49121C237.912 6.49121 234.953 9.74316 234.953 15.002C234.953 20.2461 237.854 23.3516 242.775 23.3516C246.73 23.3516 249.514 21.4473 250.158 18.4004H246.188Z" fill="#33404F"/>
</svg>
