<svg width="588" height="68" viewBox="0 0 588 68" fill="none" xmlns="http://www.w3.org/2000/svg">
<rect width="175" height="68" rx="34" fill="#33404F"/>
<path d="M56.6943 45H59.4629L51.6699 23.8623H49.0625L41.2695 45H44.0381L46.1621 38.9502H54.5703L56.6943 45ZM50.249 27.2754H50.4834L53.7939 36.709H46.9385L50.249 27.2754ZM62.1875 33.5303C62.1875 35.8154 63.5352 37.0898 66.4941 37.8076L69.2041 38.4668C70.8887 38.877 71.709 39.6094 71.709 40.6934C71.709 42.1436 70.1855 43.1543 68.0615 43.1543C66.04 43.1543 64.7803 42.3047 64.3555 40.9717H61.7627C62.041 43.5938 64.458 45.2783 67.9736 45.2783C71.5625 45.2783 74.3018 43.3301 74.3018 40.5029C74.3018 38.2324 72.8662 36.9434 69.8926 36.2256L67.4609 35.6396C65.6006 35.1855 64.7217 34.5117 64.7217 33.4277C64.7217 32.0215 66.1865 31.0693 68.0615 31.0693C69.9658 31.0693 71.1963 31.9043 71.5332 33.1641H74.0234C73.6865 30.5713 71.3867 28.9307 68.0762 28.9307C64.7217 28.9307 62.1875 30.9082 62.1875 33.5303ZM77.5977 33.5303C77.5977 35.8154 78.9453 37.0898 81.9043 37.8076L84.6143 38.4668C86.2988 38.877 87.1191 39.6094 87.1191 40.6934C87.1191 42.1436 85.5957 43.1543 83.4717 43.1543C81.4502 43.1543 80.1904 42.3047 79.7656 40.9717H77.1729C77.4512 43.5938 79.8682 45.2783 83.3838 45.2783C86.9727 45.2783 89.7119 43.3301 89.7119 40.5029C89.7119 38.2324 88.2764 36.9434 85.3027 36.2256L82.8711 35.6396C81.0107 35.1855 80.1318 34.5117 80.1318 33.4277C80.1318 32.0215 81.5967 31.0693 83.4717 31.0693C85.376 31.0693 86.6064 31.9043 86.9434 33.1641H89.4336C89.0967 30.5713 86.7969 28.9307 83.4863 28.9307C80.1318 28.9307 77.5977 30.9082 77.5977 33.5303ZM99.9658 31.1572C102.471 31.1572 104.141 33.0029 104.199 35.8008H95.498C95.6885 33.0029 97.4463 31.1572 99.9658 31.1572ZM104.126 40.9131C103.467 42.3047 102.09 43.0518 100.054 43.0518C97.373 43.0518 95.6299 41.0742 95.498 37.9541V37.8369H106.851V36.8701C106.851 31.9629 104.258 28.9307 99.9951 28.9307C95.6592 28.9307 92.876 32.1533 92.876 37.1191C92.876 42.1143 95.6152 45.2783 99.9951 45.2783C103.452 45.2783 105.884 43.623 106.646 40.9131H104.126ZM111.86 25.1221V29.209H109.312V31.3184H111.86V40.8984C111.86 43.916 113.164 45.1172 116.416 45.1172C116.914 45.1172 117.397 45.0586 117.896 44.9707V42.8467C117.427 42.8906 117.178 42.9053 116.724 42.9053C115.083 42.9053 114.38 42.1143 114.38 40.2539V31.3184H117.896V29.209H114.38V25.1221H111.86ZM121.045 33.5303C121.045 35.8154 122.393 37.0898 125.352 37.8076L128.062 38.4668C129.746 38.877 130.566 39.6094 130.566 40.6934C130.566 42.1436 129.043 43.1543 126.919 43.1543C124.897 43.1543 123.638 42.3047 123.213 40.9717H120.62C120.898 43.5938 123.315 45.2783 126.831 45.2783C130.42 45.2783 133.159 43.3301 133.159 40.5029C133.159 38.2324 131.724 36.9434 128.75 36.2256L126.318 35.6396C124.458 35.1855 123.579 34.5117 123.579 33.4277C123.579 32.0215 125.044 31.0693 126.919 31.0693C128.823 31.0693 130.054 31.9043 130.391 33.1641H132.881C132.544 30.5713 130.244 28.9307 126.934 28.9307C123.579 28.9307 121.045 30.9082 121.045 33.5303Z" fill="white"/>
<rect x="216.5" y="1.5" width="146" height="65" rx="32.5" stroke="#00DDA3" stroke-width="3"/>
<path d="M258.064 23.8623V45H265.315C271.6 45 275.291 41.0889 275.291 34.4238C275.291 27.7734 271.585 23.8623 265.315 23.8623H258.064ZM260.701 26.2354H265.14C269.827 26.2354 272.596 29.2822 272.596 34.4531C272.596 39.6094 269.856 42.627 265.14 42.627H260.701V26.2354ZM285.838 31.1572C288.343 31.1572 290.013 33.0029 290.071 35.8008H281.37C281.561 33.0029 283.318 31.1572 285.838 31.1572ZM289.998 40.9131C289.339 42.3047 287.962 43.0518 285.926 43.0518C283.245 43.0518 281.502 41.0742 281.37 37.9541V37.8369H292.723V36.8701C292.723 31.9629 290.13 28.9307 285.867 28.9307C281.531 28.9307 278.748 32.1533 278.748 37.1191C278.748 42.1143 281.487 45.2783 285.867 45.2783C289.324 45.2783 291.756 43.623 292.518 40.9131H289.998ZM304.529 45.2783C308.528 45.2783 311.15 42.041 311.15 37.1045C311.15 32.1387 308.543 28.9307 304.529 28.9307C302.361 28.9307 300.442 30 299.578 31.6992H299.344V22.9395H296.824V45H299.227V42.4805H299.461C300.457 44.2383 302.332 45.2783 304.529 45.2783ZM303.943 31.2012C306.829 31.2012 308.543 33.4131 308.543 37.1045C308.543 40.7959 306.829 43.0078 303.943 43.0078C301.072 43.0078 299.285 40.752 299.285 37.1045C299.285 33.457 301.072 31.2012 303.943 31.2012ZM316.16 25.1221V29.209H313.611V31.3184H316.16V40.8984C316.16 43.916 317.464 45.1172 320.716 45.1172C321.214 45.1172 321.697 45.0586 322.195 44.9707V42.8467C321.727 42.8906 321.478 42.9053 321.023 42.9053C319.383 42.9053 318.68 42.1143 318.68 40.2539V31.3184H322.195V29.209H318.68V25.1221H316.16Z" fill="#00DDA3"/>
<rect x="405.5" y="1.5" width="181" height="65" rx="32.5" stroke="#B5C5C3" stroke-width="3"/>
<path d="M449.682 45V23.8623H447.045V45H449.682ZM454.75 45H457.27V35.6543C457.27 32.8857 458.896 31.2012 461.415 31.2012C463.935 31.2012 465.136 32.5488 465.136 35.3906V45H467.655V34.7754C467.655 31.0254 465.678 28.9307 462.133 28.9307C459.716 28.9307 458.178 29.9561 457.387 31.6992H457.152V29.209H454.75V45ZM485.336 34.043C484.896 31.2305 482.553 28.9307 478.715 28.9307C474.291 28.9307 471.479 32.124 471.479 37.0459C471.479 42.0703 474.306 45.2783 478.729 45.2783C482.523 45.2783 484.882 43.1396 485.336 40.2393H482.787C482.318 42.0264 480.839 43.0078 478.715 43.0078C475.902 43.0078 474.086 40.6934 474.086 37.0459C474.086 33.4717 475.873 31.2012 478.715 31.2012C480.985 31.2012 482.377 32.4756 482.787 34.043H485.336ZM495.546 45.2783C500.043 45.2783 502.826 42.1729 502.826 37.1045C502.826 32.0215 500.043 28.9307 495.546 28.9307C491.049 28.9307 488.266 32.0215 488.266 37.1045C488.266 42.1729 491.049 45.2783 495.546 45.2783ZM495.546 43.0078C492.558 43.0078 490.873 40.8398 490.873 37.1045C490.873 33.3545 492.558 31.2012 495.546 31.2012C498.534 31.2012 500.219 33.3545 500.219 37.1045C500.219 40.8398 498.534 43.0078 495.546 43.0078ZM506.781 45H509.301V35.2148C509.301 32.9883 510.897 31.2012 512.963 31.2012C514.955 31.2012 516.259 32.4023 516.259 34.2773V45H518.778V34.8486C518.778 32.8418 520.243 31.2012 522.44 31.2012C524.667 31.2012 525.766 32.3438 525.766 34.6729V45H528.285V34.0869C528.285 30.7764 526.483 28.9307 523.261 28.9307C521.078 28.9307 519.276 30.0293 518.427 31.6992H518.192C517.46 30.0586 515.966 28.9307 513.827 28.9307C511.718 28.9307 510.136 29.9414 509.418 31.6992H509.184V29.209H506.781V45ZM539.184 31.1572C541.688 31.1572 543.358 33.0029 543.417 35.8008H534.716C534.906 33.0029 536.664 31.1572 539.184 31.1572ZM543.344 40.9131C542.685 42.3047 541.308 43.0518 539.271 43.0518C536.591 43.0518 534.848 41.0742 534.716 37.9541V37.8369H546.068V36.8701C546.068 31.9629 543.476 28.9307 539.213 28.9307C534.877 28.9307 532.094 32.1533 532.094 37.1191C532.094 42.1143 534.833 45.2783 539.213 45.2783C542.67 45.2783 545.102 43.623 545.863 40.9131H543.344Z" fill="#B5C5C3"/>
</svg>
