<svg width="750" height="380" viewBox="0 0 750 380" fill="none" xmlns="http://www.w3.org/2000/svg">
<g filter="url(#filter0_d_10_346)">
<g clip-path="url(#clip0_10_346)">
<rect x="37" y="50" width="670" height="280" rx="40" fill="white"/>
<circle cx="27.5" cy="189.5" r="290.5" fill="#E1FFEF"/>
<path d="M366.018 124.213H366.299L371.098 141H376.072L382.805 115.635H377.32L373.4 133.512H373.119L368.408 115.635H363.926L359.303 133.512H359.021L355.066 115.635H349.547L356.262 141H361.271L366.018 124.213ZM387.094 141H392.209V129.873C392.209 127.359 393.686 125.654 396.252 125.654C398.572 125.654 399.82 127.043 399.82 129.732V141H404.936V128.52C404.936 123.861 402.457 121.242 398.291 121.242C395.443 121.242 393.334 122.578 392.438 124.793H392.121V114.211H387.094V141ZM416.906 137.449C415.131 137.449 413.883 136.57 413.883 135.129C413.883 133.74 414.955 132.949 417.152 132.791L421.072 132.545V133.969C421.072 135.938 419.279 137.449 416.906 137.449ZM415.219 141.299C417.732 141.299 419.842 140.244 420.844 138.469H421.16V141H426.117V127.764C426.117 123.615 423.217 121.189 418.084 121.189C413.215 121.189 409.928 123.439 409.594 127.025H414.305C414.727 125.865 415.957 125.232 417.803 125.232C419.912 125.232 421.072 126.146 421.072 127.764V129.346L416.379 129.627C411.562 129.908 408.873 131.947 408.873 135.463C408.873 139.014 411.492 141.299 415.219 141.299ZM432.604 117.006V121.805H429.58V125.83H432.604V135.762C432.604 139.541 434.467 141.07 439.178 141.07C440.162 141.07 441.111 140.965 441.744 140.842V136.939C441.252 136.992 440.9 137.01 440.232 137.01C438.492 137.01 437.719 136.236 437.719 134.549V125.83H441.744V121.805H437.719V117.006H432.604ZM455.332 141H460.447V121.611H455.332V141ZM457.898 118.904C459.727 118.904 460.922 117.832 460.922 116.32C460.922 114.791 459.727 113.736 457.898 113.736C456.053 113.736 454.875 114.791 454.875 116.32C454.875 117.832 456.053 118.904 457.898 118.904ZM465.193 127.307C465.193 130.295 467.021 132.088 470.783 132.914L474.299 133.705C476.004 134.074 476.742 134.654 476.742 135.604C476.742 136.852 475.371 137.678 473.385 137.678C471.346 137.678 470.098 136.922 469.711 135.604H464.719C465.07 139.33 468.164 141.422 473.279 141.422C478.359 141.422 481.822 138.891 481.822 135.023C481.822 132.123 480.135 130.541 476.373 129.715L472.734 128.924C470.941 128.52 470.115 127.939 470.115 126.99C470.115 125.76 471.469 124.934 473.297 124.934C475.195 124.934 476.373 125.707 476.637 126.955H481.365C481.084 123.246 478.184 121.189 473.262 121.189C468.428 121.189 465.193 123.633 465.193 127.307ZM502.301 137.449C500.525 137.449 499.277 136.57 499.277 135.129C499.277 133.74 500.35 132.949 502.547 132.791L506.467 132.545V133.969C506.467 135.938 504.674 137.449 502.301 137.449ZM500.613 141.299C503.127 141.299 505.236 140.244 506.238 138.469H506.555V141H511.512V127.764C511.512 123.615 508.611 121.189 503.479 121.189C498.609 121.189 495.322 123.439 494.988 127.025H499.699C500.121 125.865 501.352 125.232 503.197 125.232C505.307 125.232 506.467 126.146 506.467 127.764V129.346L501.773 129.627C496.957 129.908 494.268 131.947 494.268 135.463C494.268 139.014 496.887 141.299 500.613 141.299ZM516.539 141H521.654V129.82C521.654 127.271 523.113 125.602 525.486 125.602C527.912 125.602 529.055 127.008 529.055 129.68V141H534.17V128.467C534.17 123.826 531.85 121.189 527.543 121.189C524.678 121.189 522.709 122.543 521.812 124.723H521.496V121.611H516.539V141ZM565.74 136.465H554.244V130.295H565.09V126.094H554.244V120.17H565.74V115.635H548.936V141H565.74V136.465ZM582.791 141V120.17H590.402V115.635H569.871V120.17H577.482V141H582.791ZM600.404 141V131.121H610.723V126.779H600.404V120.17H611.707V115.635H595.096V141H600.404ZM614.906 122.807H619.67C619.775 120.873 621.111 119.625 623.133 119.625C625.137 119.625 626.473 120.785 626.473 122.42C626.473 124.055 625.787 124.898 623.52 126.252C621.094 127.676 620.127 129.258 620.355 132.07L620.391 133.037H625.049V132.105C625.049 130.418 625.699 129.557 628.037 128.203C630.516 126.744 631.799 124.898 631.799 122.262C631.799 118.201 628.477 115.406 623.449 115.406C618.053 115.406 614.994 118.43 614.906 122.807ZM622.904 141.527C624.873 141.527 626.086 140.385 626.086 138.539C626.086 136.676 624.873 135.533 622.904 135.533C620.936 135.533 619.705 136.676 619.705 138.539C619.705 140.385 620.936 141.527 622.904 141.527Z" fill="#33404F"/>
<path d="M66.5118 173.294C68.9406 176.431 72.0122 179.072 75.4199 181.099C78.875 183.155 82.6881 184.499 86.5998 185.383C90.8182 186.333 95.3837 186.673 99.3575 184.66C102.962 182.838 105.581 179.163 105.866 175.113C106.14 171.249 103.963 167.103 100.373 165.5C96.2237 163.644 91.4026 164.894 88.2068 167.987C85.263 170.836 83.7436 174.894 83.3857 178.911C83.0424 182.794 83.9262 186.779 85.7451 190.215C89.4194 197.155 97.4144 201.3 105.209 200.504C106.22 200.402 107.225 200.241 108.214 199.993C109.142 199.759 109.789 198.671 109.489 197.747C109.179 196.79 108.236 196.22 107.243 196.472C106.841 196.574 106.436 196.662 106.027 196.735C105.935 196.749 105.844 196.768 105.753 196.782C105.731 196.786 105.278 196.863 105.585 196.812C105.888 196.76 105.442 196.83 105.417 196.83C105.278 196.844 105.143 196.859 105.004 196.874C104.179 196.947 103.346 196.965 102.517 196.925C102.1 196.903 101.688 196.866 101.275 196.823C100.935 196.786 101.293 196.83 101.348 196.833C101.235 196.823 101.118 196.801 101.005 196.782C100.778 196.746 100.548 196.706 100.322 196.662C99.4817 196.497 98.6562 196.278 97.8454 196.001C97.4838 195.877 96.9944 195.778 96.6803 195.559C96.7205 195.588 97.0492 195.72 96.7351 195.581C96.6511 195.544 96.5671 195.504 96.4831 195.467C96.253 195.362 96.0229 195.252 95.7964 195.135C95.0367 194.748 94.3026 194.306 93.605 193.817C93.4553 193.711 93.3055 193.601 93.1558 193.492C92.7905 193.225 93.3603 193.663 93.1411 193.481C93.0535 193.408 92.9622 193.338 92.8709 193.261C92.5495 192.999 92.239 192.721 91.9395 192.432C91.64 192.144 91.3478 191.844 91.0703 191.534C90.9315 191.377 90.7927 191.22 90.6575 191.059C90.5845 190.971 90.5114 190.88 90.4384 190.789C90.1937 190.497 90.6283 191.052 90.3836 190.719C89.8905 190.044 89.4303 189.346 89.0249 188.612C88.8241 188.247 88.6341 187.871 88.4588 187.494C88.4186 187.41 88.3821 187.326 88.3419 187.239C88.3346 187.224 88.1593 186.8 88.2689 187.074C88.3785 187.345 88.2105 186.921 88.2031 186.906C88.1593 186.797 88.1191 186.691 88.079 186.581C87.7795 185.774 87.5348 184.949 87.3485 184.109C87.2572 183.7 87.1805 183.287 87.1147 182.874C87.1001 182.783 87.0819 182.688 87.0746 182.597C87.1147 183.028 87.0965 182.761 87.0855 182.666C87.06 182.41 87.0307 182.158 87.0125 181.903C86.9467 181.044 86.9431 180.182 86.9979 179.328C87.0125 179.12 87.0307 178.911 87.049 178.703C87.06 178.597 87.0892 177.914 87.0782 178.429C87.0855 178.006 87.2243 177.542 87.3193 177.129C87.5092 176.278 87.7649 175.442 88.0863 174.631C88.1228 174.543 88.1557 174.452 88.1958 174.364C88.0278 174.722 88.1484 174.481 88.1812 174.404C88.2835 174.189 88.3821 173.97 88.488 173.758C88.6816 173.374 88.8934 172.998 89.1199 172.637C89.3427 172.275 89.5801 171.91 89.8467 171.581C89.5655 171.924 89.9855 171.424 90.0549 171.344C90.2266 171.146 90.4019 170.956 90.5845 170.77C90.8657 170.485 91.1616 170.211 91.472 169.959C91.5597 169.89 91.7679 169.66 91.4939 169.937C91.5524 169.875 91.6583 169.817 91.724 169.769C91.9176 169.631 92.1185 169.499 92.323 169.379C92.5093 169.265 92.6992 169.16 92.8928 169.061C92.9914 169.01 93.5904 168.747 93.185 168.911C93.616 168.739 94.0506 168.593 94.4998 168.48C94.7117 168.425 94.9235 168.382 95.139 168.341C95.2266 168.327 95.3326 168.298 95.4239 168.294C94.9965 168.312 95.3289 168.309 95.4421 168.298C95.8987 168.257 96.3552 168.246 96.8118 168.276C96.9067 168.283 97.0017 168.294 97.0967 168.298C97.5605 168.327 96.8227 168.239 97.1076 168.298C97.3195 168.338 97.5313 168.374 97.7395 168.425C97.9257 168.469 98.1084 168.524 98.291 168.582C98.4042 168.619 98.5138 168.666 98.627 168.703C98.7512 168.75 98.7183 168.736 98.5247 168.655C98.5905 168.685 98.6562 168.714 98.722 168.743C99.0689 168.908 99.405 169.101 99.7227 169.32C99.7446 169.335 100.081 169.598 99.8505 169.408C99.6204 169.218 99.9492 169.496 99.9674 169.51C100.132 169.653 100.285 169.799 100.439 169.956C100.559 170.08 100.676 170.208 100.786 170.339C100.804 170.361 101.052 170.701 100.884 170.46C100.716 170.215 100.957 170.569 100.972 170.588C101.195 170.909 101.392 171.245 101.567 171.596C101.615 171.694 101.658 171.793 101.706 171.891C101.83 172.136 101.553 171.471 101.699 171.877C101.757 172.041 101.819 172.202 101.874 172.37C102.009 172.786 102.1 173.21 102.181 173.641C102.214 173.809 102.13 173.853 102.17 173.546C102.162 173.615 102.188 173.732 102.195 173.805C102.214 174.003 102.221 174.196 102.225 174.393C102.228 174.591 102.225 174.784 102.214 174.981C102.21 175.069 102.203 175.157 102.195 175.241C102.188 175.328 102.181 175.416 102.17 175.5C102.181 175.423 102.188 175.35 102.199 175.274C102.254 175.61 102.027 176.139 101.929 176.464C101.87 176.658 101.805 176.851 101.735 177.041C101.695 177.147 101.611 177.45 101.742 177.045C101.702 177.173 101.629 177.297 101.574 177.414C101.406 177.761 101.217 178.093 101.012 178.418C100.902 178.59 100.786 178.758 100.669 178.922C100.457 179.222 100.705 178.897 100.709 178.878C100.702 178.941 100.49 179.145 100.45 179.193C100.183 179.503 99.898 179.799 99.5985 180.076C99.4634 180.201 99.3283 180.321 99.1895 180.438C99.1749 180.449 98.8279 180.734 99.0543 180.551C99.2625 180.387 98.8973 180.664 98.8534 180.694C98.5174 180.931 98.1705 181.147 97.8125 181.344C97.6336 181.442 97.4509 181.534 97.2647 181.621C97.1734 181.665 97.0784 181.705 96.9871 181.746C97.3742 181.567 96.9177 181.767 96.8629 181.789C96.4392 181.946 96.0083 182.078 95.5663 182.184C95.3727 182.231 95.1755 182.275 94.9783 182.312C94.8541 182.334 94.7299 182.356 94.6057 182.377C94.5327 182.388 94.456 182.403 94.383 182.41C94.5948 182.381 94.6313 182.377 94.4925 182.392C93.5502 182.472 92.6189 182.516 91.6692 182.469C91.2054 182.443 90.7415 182.403 90.2813 182.352C90.1791 182.341 90.0768 182.326 89.9745 182.315C90.358 182.363 90.0768 182.33 90.0001 182.315C89.7444 182.275 89.4888 182.235 89.2331 182.191C87.3996 181.87 85.5844 181.402 83.8057 180.854C82.9474 180.591 82.0964 180.288 81.2637 179.952C81.1504 179.908 81.0372 179.861 80.9276 179.813C80.9861 179.839 81.2746 179.963 80.9605 179.828C80.7596 179.74 80.5587 179.653 80.3615 179.561C79.9415 179.372 79.5251 179.171 79.1124 178.959C77.509 178.144 75.975 177.195 74.5323 176.117C74.441 176.048 74.0101 175.712 74.3242 175.96C74.1342 175.81 73.9443 175.657 73.7544 175.504C73.4184 175.226 73.086 174.941 72.761 174.649C72.0743 174.032 71.4132 173.385 70.7887 172.706C70.1933 172.063 69.6309 171.395 69.094 170.701C68.5059 169.941 67.1217 170.036 66.5118 170.701C65.774 171.515 65.8872 172.483 66.5118 173.294Z" fill="#33404F"/>
<path d="M244.422 175.92H229.864C227.46 170.244 223.983 165.014 219.659 160.408V122.99C205.974 122.99 194.147 130.948 188.556 142.49C182.931 141.066 176.981 140.295 170.823 140.295C136.111 140.295 107.97 164.594 107.97 194.569C107.97 209.701 115.143 223.383 126.71 233.226V256.005H151.889V246.334C157.865 247.963 164.223 248.843 170.823 248.843C177.423 248.843 183.782 247.963 189.757 246.334V255.454H214.937V233.222C221.493 227.641 226.642 220.83 229.867 213.218H244.426C248.056 213.218 251 210.274 251 206.644V182.491C250.996 178.86 248.053 175.92 244.422 175.92Z" fill="white" stroke="#33404F" stroke-width="4" stroke-miterlimit="10"/>
<path d="M203.483 182.655C205.683 182.655 207.467 180.871 207.467 178.67C207.467 176.47 205.683 174.686 203.483 174.686C201.282 174.686 199.498 176.47 199.498 178.67C199.498 180.871 201.282 182.655 203.483 182.655Z" fill="#33404F"/>
<path d="M203.483 205.387C209.314 205.387 214.042 202.966 214.042 199.978C214.042 196.991 209.314 194.569 203.483 194.569C197.651 194.569 192.924 196.991 192.924 199.978C192.924 202.966 197.651 205.387 203.483 205.387Z" fill="#00DDA3"/>
<path d="M150.681 158.177C163.533 151.8 175.718 152.118 187.328 158.177" stroke="#33404F" stroke-width="4" stroke-miterlimit="10" stroke-linecap="round"/>
<path d="M169.004 145.779C178.884 145.779 186.894 137.769 186.894 127.889C186.894 118.009 178.884 110 169.004 110C159.124 110 151.115 118.009 151.115 127.889C151.115 137.769 159.124 145.779 169.004 145.779Z" fill="#00DDA3" stroke="#33404F" stroke-width="4" stroke-miterlimit="10"/>
<path d="M169.004 137.488C174.305 137.488 178.603 133.19 178.603 127.889C178.603 122.588 174.305 118.291 169.004 118.291C163.703 118.291 159.406 122.588 159.406 127.889C159.406 133.19 163.703 137.488 169.004 137.488Z" fill="#00DDA3" stroke="#33404F" stroke-width="4" stroke-miterlimit="10"/>
<path d="M145.312 242.166H110.848C110.041 242.166 109.387 241.512 109.387 240.705V236.72C109.387 235.913 110.041 235.259 110.848 235.259H145.312C146.119 235.259 146.773 235.913 146.773 236.72V240.705C146.773 241.512 146.115 242.166 145.312 242.166Z" fill="#33404F"/>
<path d="M133.807 250.314H99.3428C98.5357 250.314 97.8819 249.661 97.8819 248.853V244.869C97.8819 244.061 98.5357 243.408 99.3428 243.408H133.807C134.614 243.408 135.268 244.061 135.268 244.869V248.853C135.268 249.661 134.614 250.314 133.807 250.314Z" fill="#00DDA3" stroke="#33404F" stroke-width="4" stroke-miterlimit="10"/>
<path d="M145.312 258.463H110.848C110.041 258.463 109.387 257.809 109.387 257.002V253.017C109.387 252.21 110.041 251.556 110.848 251.556H145.312C146.119 251.556 146.773 252.21 146.773 253.017V257.002C146.773 257.809 146.115 258.463 145.312 258.463Z" fill="#33404F"/>
<circle cx="251" cy="103" r="7" fill="#33404F"/>
<circle cx="91" cy="125" r="5" stroke="#33404F" stroke-width="4"/>
<path d="M173 265C170.228 274.451 164.711 280.312 156 282C165.157 284.11 171.045 289.549 173 299C174.053 289.354 180.106 284.02 190 282C179.756 280.529 174.775 274.234 173 265Z" fill="#00DDA3"/>
<circle cx="663" cy="94" r="20" fill="#00DDA3"/>
<path d="M655.929 101.071L670.071 86.9289" stroke="white" stroke-width="3" stroke-linecap="round"/>
<path d="M655.929 86.9289L670.071 101.071" stroke="white" stroke-width="3" stroke-linecap="round"/>
</g>
</g>
<defs>
<filter id="filter0_d_10_346" x="-13" y="0" width="770" height="380" filterUnits="userSpaceOnUse" color-interpolation-filters="sRGB">
<feFlood flood-opacity="0" result="BackgroundImageFix"/>
<feColorMatrix in="SourceAlpha" type="matrix" values="0 0 0 0 0 0 0 0 0 0 0 0 0 0 0 0 0 0 127 0" result="hardAlpha"/>
<feOffset/>
<feGaussianBlur stdDeviation="25"/>
<feColorMatrix type="matrix" values="0 0 0 0 0.2 0 0 0 0 0.25098 0 0 0 0 0.309804 0 0 0 0.15 0"/>
<feBlend mode="normal" in2="BackgroundImageFix" result="effect1_dropShadow_10_346"/>
<feBlend mode="normal" in="SourceGraphic" in2="effect1_dropShadow_10_346" result="shape"/>
</filter>
<clipPath id="clip0_10_346">
<rect x="37" y="50" width="670" height="280" rx="40" fill="white"/>
</clipPath>
</defs>
</svg>
