<svg width="215" height="187" viewBox="0 0 215 187" fill="none" xmlns="http://www.w3.org/2000/svg">
<path d="M70.7344 46V18.2266H80.8828V12.1797H53.5078V18.2266H63.6562V46H70.7344ZM93.4688 46.5625C101.414 46.5625 106.195 41.5234 106.195 33.0625C106.195 24.6719 101.344 19.5859 93.4688 19.5859C85.5938 19.5859 80.7422 24.6953 80.7422 33.0625C80.7422 41.5234 85.5234 46.5625 93.4688 46.5625ZM93.4688 40.9844C89.8125 40.9844 87.75 38.1016 87.75 33.0625C87.75 28.0938 89.8359 25.1641 93.4688 25.1641C97.0781 25.1641 99.1875 28.0938 99.1875 33.0625C99.1875 38.0781 97.1016 40.9844 93.4688 40.9844ZM113.719 14.0078V20.4062H109.688V25.7734H113.719V39.0156C113.719 44.0547 116.203 46.0938 122.484 46.0938C123.797 46.0938 125.062 45.9531 125.906 45.7891V40.5859C125.25 40.6562 124.781 40.6797 123.891 40.6797C121.57 40.6797 120.539 39.6484 120.539 37.3984V25.7734H125.906V20.4062H120.539V14.0078H113.719ZM140.93 41.2656C138.562 41.2656 136.898 40.0938 136.898 38.1719C136.898 36.3203 138.328 35.2656 141.258 35.0547L146.484 34.7266V36.625C146.484 39.25 144.094 41.2656 140.93 41.2656ZM138.68 46.3984C142.031 46.3984 144.844 44.9922 146.18 42.625H146.602V46H153.211V28.3516C153.211 22.8203 149.344 19.5859 142.5 19.5859C136.008 19.5859 131.625 22.5859 131.18 27.3672H137.461C138.023 25.8203 139.664 24.9766 142.125 24.9766C144.938 24.9766 146.484 26.1953 146.484 28.3516V30.4609L140.227 30.8359C133.805 31.2109 130.219 33.9297 130.219 38.6172C130.219 43.3516 133.711 46.3984 138.68 46.3984ZM160.148 46H166.969V10.2812H160.148V46Z" fill="white"/>
<path d="M34.6406 111C41.8594 111 46.3359 107.25 46.3359 101.32C46.3359 96.9609 43.0781 93.5859 38.6016 93.2578V92.8359C42.0703 92.3203 44.7188 89.2031 44.7188 85.6172C44.7188 80.3906 40.8047 77.1797 34.2422 77.1797H19.4531V111H34.6406ZM26.5312 82.5938H32.4375C35.8125 82.5938 37.7578 84.2109 37.7578 86.9062C37.7578 89.625 35.6719 91.1953 31.8516 91.1953H26.5312V82.5938ZM26.5312 105.586V95.9766H32.6719C36.8438 95.9766 39.1172 97.6172 39.1172 100.711C39.1172 103.875 36.9141 105.586 32.8359 105.586H26.5312ZM61.3828 106.266C59.0156 106.266 57.3516 105.094 57.3516 103.172C57.3516 101.32 58.7812 100.266 61.7109 100.055L66.9375 99.7266V101.625C66.9375 104.25 64.5469 106.266 61.3828 106.266ZM59.1328 111.398C62.4844 111.398 65.2969 109.992 66.6328 107.625H67.0547V111H73.6641V93.3516C73.6641 87.8203 69.7969 84.5859 62.9531 84.5859C56.4609 84.5859 52.0781 87.5859 51.6328 92.3672H57.9141C58.4766 90.8203 60.1172 89.9766 62.5781 89.9766C65.3906 89.9766 66.9375 91.1953 66.9375 93.3516V95.4609L60.6797 95.8359C54.2578 96.2109 50.6719 98.9297 50.6719 103.617C50.6719 108.352 54.1641 111.398 59.1328 111.398ZM80.6016 111H87.4219V75.2812H80.6016V111ZM103.852 106.266C101.484 106.266 99.8203 105.094 99.8203 103.172C99.8203 101.32 101.25 100.266 104.18 100.055L109.406 99.7266V101.625C109.406 104.25 107.016 106.266 103.852 106.266ZM101.602 111.398C104.953 111.398 107.766 109.992 109.102 107.625H109.523V111H116.133V93.3516C116.133 87.8203 112.266 84.5859 105.422 84.5859C98.9297 84.5859 94.5469 87.5859 94.1016 92.3672H100.383C100.945 90.8203 102.586 89.9766 105.047 89.9766C107.859 89.9766 109.406 91.1953 109.406 93.3516V95.4609L103.148 95.8359C96.7266 96.2109 93.1406 98.9297 93.1406 103.617C93.1406 108.352 96.6328 111.398 101.602 111.398ZM122.836 111H129.656V96.0938C129.656 92.6953 131.602 90.4688 134.766 90.4688C138 90.4688 139.523 92.3438 139.523 95.9062V111H146.344V94.2891C146.344 88.1016 143.25 84.5859 137.508 84.5859C133.688 84.5859 131.062 86.3906 129.867 89.2969H129.445V85.1484H122.836V111ZM175.852 94.2656C175.289 88.3828 171.188 84.5859 164.344 84.5859C156.258 84.5859 151.711 89.4375 151.711 98.0156C151.711 106.688 156.281 111.562 164.344 111.562C171.07 111.562 175.289 107.836 175.852 102.047H169.477C168.961 104.602 167.133 105.961 164.344 105.961C160.688 105.961 158.602 103.172 158.602 98.0156C158.602 92.9297 160.664 90.1875 164.344 90.1875C167.25 90.1875 169.008 91.8047 169.477 94.2656H175.852ZM192.375 89.8125C195.562 89.8125 197.625 91.9453 197.766 95.3672H186.75C186.984 92.0156 189.211 89.8125 192.375 89.8125ZM197.906 103.641C197.18 105.352 195.328 106.312 192.633 106.312C189.07 106.312 186.82 103.922 186.727 100.078V99.7266H204.469V97.6406C204.469 89.4375 199.969 84.5859 192.352 84.5859C184.664 84.5859 179.93 89.7891 179.93 98.2031C179.93 106.594 184.57 111.562 192.445 111.562C198.773 111.562 203.227 108.516 204.258 103.641H197.906Z" fill="white"/>
<path d="M28.0781 152.305V152.422H34.6406V152.281C34.6406 149.164 36.8906 147.008 40.1719 147.008C43.2656 147.008 45.4688 148.93 45.4688 151.648C45.4688 153.852 44.2734 155.609 39.5156 160.25L28.4766 171.055V176H52.875V170.117H38.0625V169.695L44.5312 163.531C50.3906 158.023 52.3828 154.859 52.3828 151.18C52.3828 145.367 47.4609 141.312 40.4062 141.312C33.0938 141.312 28.0781 145.766 28.0781 152.305ZM67.5469 176H74.625V142.18H67.5703L58.8281 148.203V154.789L67.125 149.07H67.5469V176ZM99.8203 176H106.57V170.094H111V164.211H106.57V142.18H96.6562C90.7266 151.109 86.3203 158.094 83.2734 163.836V170.094H99.8203V176ZM89.625 164.047C93.4922 157.039 96.5156 152.305 99.6094 147.688H99.9844V164.422H89.625V164.047ZM120.68 185.164L124.945 170.516H118.266L116.109 185.164H120.68ZM148.008 176H154.758V170.094H159.188V164.211H154.758V142.18H144.844C138.914 151.109 134.508 158.094 131.461 163.836V170.094H148.008V176ZM137.812 164.047C141.68 157.039 144.703 152.305 147.797 147.688H148.172V164.422H137.812V164.047ZM172.828 176H179.906V142.18H172.852L164.109 148.203V154.789L172.406 149.07H172.828V176ZM190.805 176H198.211L212.344 148.062V142.156H188.156V147.992H205.219V148.414L190.805 176Z" fill="white"/>
<path d="M11.6133 177.978V176.117C16.1982 175.736 18.791 173.422 18.791 169.687C18.791 166.522 16.9453 164.574 13.1807 163.769L11.6133 163.446V158.231C13.1514 158.451 14.25 159.55 14.2939 160.883H18.3809C18.3223 157.499 15.6855 155.111 11.6133 154.73V152.738H9.5625V154.73C5.19727 155.082 2.61914 157.396 2.61914 161C2.61914 164.062 4.50879 166.083 8.02441 166.903L9.5625 167.27V172.719C7.73145 172.528 6.48633 171.444 6.38379 169.994H2.19434C2.20898 173.568 4.97754 175.883 9.5625 176.146V177.978H11.6133ZM14.6309 170.185C14.6309 171.664 13.5176 172.616 11.6133 172.733V167.636C13.6641 168.017 14.6309 168.837 14.6309 170.185ZM6.86719 160.59C6.86719 159.286 7.98047 158.305 9.5625 158.217V163.021C7.79004 162.67 6.86719 161.82 6.86719 160.59Z" fill="white"/>
</svg>
