<svg width="750" height="300" viewBox="0 0 750 300" fill="none" xmlns="http://www.w3.org/2000/svg">
<rect x="0.5" y="0.5" width="749" height="299" fill="#E1FFEF"/>
<rect x="0.5" y="0.5" width="749" height="299" stroke="black"/>
<circle cx="688" cy="62" r="26.6667" fill="#00DDA3"/>
<path d="M678.572 71.428L697.428 52.5719" stroke="white" stroke-width="4" stroke-linecap="round"/>
<path d="M678.572 52.572L697.428 71.4281" stroke="white" stroke-width="4" stroke-linecap="round"/>
<path d="M299.422 122.168C299.637 127.422 303.992 130.723 310.711 130.723C317.781 130.723 322.137 127.246 322.137 121.562C322.137 117.188 319.695 114.746 314.031 113.555L310.633 112.832C307.332 112.129 305.984 111.133 305.984 109.395C305.984 107.246 307.938 105.879 310.887 105.879C313.738 105.879 315.809 107.363 316.082 109.59H321.629C321.453 104.57 317.059 101.094 310.848 101.094C304.344 101.094 300.066 104.59 300.066 109.902C300.066 114.199 302.586 116.875 307.723 117.949L311.395 118.73C314.852 119.473 316.258 120.508 316.258 122.305C316.258 124.434 314.09 125.918 311.023 125.918C307.703 125.918 305.398 124.453 305.125 122.168H299.422ZM339.598 108.105C336.629 108.105 334.188 109.57 333.016 111.992H332.664V108.457H327.156V137.148H332.84V126.699H333.191C334.246 128.984 336.609 130.332 339.695 130.332C345.086 130.332 348.387 126.172 348.387 119.219C348.387 112.246 345.047 108.105 339.598 108.105ZM337.664 125.586C334.656 125.586 332.781 123.184 332.781 119.238C332.781 115.293 334.656 112.871 337.684 112.871C340.711 112.871 342.547 115.273 342.547 119.219C342.547 123.203 340.73 125.586 337.664 125.586ZM362.332 112.344C364.988 112.344 366.707 114.121 366.824 116.973H357.645C357.84 114.18 359.695 112.344 362.332 112.344ZM366.941 123.867C366.336 125.293 364.793 126.094 362.547 126.094C359.578 126.094 357.703 124.102 357.625 120.898V120.605H372.41V118.867C372.41 112.031 368.66 107.988 362.312 107.988C355.906 107.988 351.961 112.324 351.961 119.336C351.961 126.328 355.828 130.469 362.391 130.469C367.664 130.469 371.375 127.93 372.234 123.867H366.941ZM377.078 130H382.762V117.578C382.762 114.746 384.383 112.891 387.02 112.891C389.715 112.891 390.984 114.453 390.984 117.422V130H396.668V116.074C396.668 110.918 394.09 107.988 389.305 107.988C386.121 107.988 383.934 109.492 382.938 111.914H382.586V108.457H377.078V130ZM409.91 130.332C412.898 130.332 415.34 128.945 416.492 126.621H416.844V130H422.352V100.234H416.668V111.895H416.336C415.223 109.512 412.82 108.105 409.91 108.105C404.5 108.105 401.141 112.344 401.141 119.199C401.141 126.074 404.48 130.332 409.91 130.332ZM411.844 112.871C414.871 112.871 416.727 115.312 416.727 119.238C416.727 123.184 414.891 125.586 411.844 125.586C408.797 125.586 406.98 123.203 406.98 119.219C406.98 115.273 408.816 112.871 411.844 112.871ZM428.289 130H433.973V108.457H428.289V130ZM431.141 105.449C433.172 105.449 434.5 104.258 434.5 102.578C434.5 100.879 433.172 99.707 431.141 99.707C429.09 99.707 427.781 100.879 427.781 102.578C427.781 104.258 429.09 105.449 431.141 105.449ZM439.734 130H445.418V117.578C445.418 114.746 447.039 112.891 449.676 112.891C452.371 112.891 453.641 114.453 453.641 117.422V130H459.324V116.074C459.324 110.918 456.746 107.988 451.961 107.988C448.777 107.988 446.59 109.492 445.594 111.914H445.242V108.457H439.734V130ZM474.422 125.195C471.336 125.195 469.578 122.832 469.578 119.023C469.578 115.254 471.355 112.871 474.422 112.871C477.488 112.871 479.344 115.254 479.344 119.043C479.344 122.832 477.508 125.195 474.422 125.195ZM474.344 138.164C480.848 138.164 484.969 134.98 484.969 129.922V108.457H479.461V111.914H479.109C477.957 109.551 475.477 108.105 472.566 108.105C467.098 108.105 463.738 112.363 463.738 119.043C463.738 125.527 467.078 129.688 472.449 129.688C475.477 129.688 477.742 128.477 478.934 126.211H479.285V130.195C479.285 132.617 477.508 134.023 474.461 134.023C472 134.023 470.398 133.184 470.105 131.855H464.48C464.832 135.645 468.621 138.164 474.344 138.164ZM494.773 130.527C496.883 130.527 498.23 129.102 498.23 127.129C498.23 125.156 496.883 123.75 494.773 123.75C492.684 123.75 491.316 125.156 491.316 127.129C491.316 129.102 492.684 130.527 494.773 130.527Z" fill="#33404F"/>
<path opacity="0.6" d="M305.93 173V165.723L311.93 156.09H309.527L304.969 163.602H304.781L300.223 156.09H297.82L303.82 165.723V173H305.93ZM317.848 173.223C321.445 173.223 323.672 170.738 323.672 166.684C323.672 162.617 321.445 160.145 317.848 160.145C314.25 160.145 312.023 162.617 312.023 166.684C312.023 170.738 314.25 173.223 317.848 173.223ZM317.848 171.406C315.457 171.406 314.109 169.672 314.109 166.684C314.109 163.684 315.457 161.961 317.848 161.961C320.238 161.961 321.586 163.684 321.586 166.684C321.586 169.672 320.238 171.406 317.848 171.406ZM337.055 160.367H335.039V167.844C335.039 170.059 333.82 171.383 331.594 171.383C329.578 171.383 328.734 170.328 328.734 168.055V160.367H326.719V168.547C326.719 171.535 328.195 173.223 331.031 173.223C332.965 173.223 334.312 172.426 334.945 171.02H335.133V173H337.055V160.367ZM348.469 173H350.484V162.055H353.379V160.367H350.484V159.02C350.484 157.637 351.094 156.934 352.547 156.934C352.91 156.934 353.25 156.945 353.496 156.992V155.352C353.074 155.27 352.629 155.234 352.137 155.234C349.734 155.234 348.469 156.441 348.469 158.961V160.367H346.371V162.055H348.469V173ZM360.973 173.223C364.57 173.223 366.797 170.738 366.797 166.684C366.797 162.617 364.57 160.145 360.973 160.145C357.375 160.145 355.148 162.617 355.148 166.684C355.148 170.738 357.375 173.223 360.973 173.223ZM360.973 171.406C358.582 171.406 357.234 169.672 357.234 166.684C357.234 163.684 358.582 161.961 360.973 161.961C363.363 161.961 364.711 163.684 364.711 166.684C364.711 169.672 363.363 171.406 360.973 171.406ZM369.961 173H371.977V165.172C371.977 163.391 373.371 162.102 375.293 162.102C375.691 162.102 376.418 162.172 376.582 162.219V160.203C376.324 160.168 375.902 160.145 375.574 160.145C373.898 160.145 372.445 161.012 372.07 162.242H371.883V160.367H369.961V173ZM383.859 171.031C381.516 171.031 380.203 169.25 380.203 166.496C380.203 163.742 381.516 161.961 383.859 161.961C386.191 161.961 387.609 163.742 387.609 166.496C387.609 169.25 386.203 171.031 383.859 171.031ZM383.953 177.852C387.398 177.852 389.578 176.047 389.578 173.223V160.367H387.656V162.371H387.469C386.742 161.012 385.184 160.145 383.414 160.145C380.168 160.145 378.117 162.711 378.117 166.496C378.117 170.281 380.145 172.812 383.414 172.812C385.148 172.812 386.578 172.027 387.375 170.633H387.562V173.117C387.562 174.98 386.215 176.094 383.953 176.094C382.137 176.094 381.012 175.426 380.789 174.395H378.656C378.961 176.48 380.906 177.852 383.953 177.852ZM398.566 173.223C402.164 173.223 404.391 170.738 404.391 166.684C404.391 162.617 402.164 160.145 398.566 160.145C394.969 160.145 392.742 162.617 392.742 166.684C392.742 170.738 394.969 173.223 398.566 173.223ZM398.566 171.406C396.176 171.406 394.828 169.672 394.828 166.684C394.828 163.684 396.176 161.961 398.566 161.961C400.957 161.961 402.305 163.684 402.305 166.684C402.305 169.672 400.957 171.406 398.566 171.406ZM408.398 157.098V160.367H406.359V162.055H408.398V169.719C408.398 172.133 409.441 173.094 412.043 173.094C412.441 173.094 412.828 173.047 413.227 172.977V171.277C412.852 171.312 412.652 171.324 412.289 171.324C410.977 171.324 410.414 170.691 410.414 169.203V162.055H413.227V160.367H410.414V157.098H408.398ZM423.891 157.098V160.367H421.852V162.055H423.891V169.719C423.891 172.133 424.934 173.094 427.535 173.094C427.934 173.094 428.32 173.047 428.719 172.977V171.277C428.344 171.312 428.145 171.324 427.781 171.324C426.469 171.324 425.906 170.691 425.906 169.203V162.055H428.719V160.367H425.906V157.098H423.891ZM436.77 173.223C440.367 173.223 442.594 170.738 442.594 166.684C442.594 162.617 440.367 160.145 436.77 160.145C433.172 160.145 430.945 162.617 430.945 166.684C430.945 170.738 433.172 173.223 436.77 173.223ZM436.77 171.406C434.379 171.406 433.031 169.672 433.031 166.684C433.031 163.684 434.379 161.961 436.77 161.961C439.16 161.961 440.508 163.684 440.508 166.684C440.508 169.672 439.16 171.406 436.77 171.406ZM456.422 171.453C454.957 171.453 453.867 170.703 453.867 169.414C453.867 168.148 454.711 167.48 456.633 167.352L460.031 167.129V168.289C460.031 170.094 458.496 171.453 456.422 171.453ZM456.047 173.223C457.734 173.223 459.117 172.484 459.938 171.137H460.125V173H462.047V164.352C462.047 161.727 460.324 160.145 457.242 160.145C454.547 160.145 452.555 161.48 452.285 163.508H454.324C454.605 162.512 455.66 161.938 457.172 161.938C459.059 161.938 460.031 162.793 460.031 164.352V165.5L456.387 165.723C453.445 165.898 451.781 167.199 451.781 169.461C451.781 171.77 453.598 173.223 456.047 173.223ZM470.449 173.223C472.195 173.223 473.695 172.391 474.492 170.984H474.68V173H476.602V155.352H474.586V162.359H474.41C473.695 160.977 472.207 160.145 470.449 160.145C467.238 160.145 465.141 162.723 465.141 166.684C465.141 170.656 467.215 173.223 470.449 173.223ZM470.918 161.961C473.203 161.961 474.633 163.789 474.633 166.684C474.633 169.602 473.215 171.406 470.918 171.406C468.609 171.406 467.227 169.637 467.227 166.684C467.227 163.742 468.621 161.961 470.918 161.961ZM485.191 173.223C486.938 173.223 488.438 172.391 489.234 170.984H489.422V173H491.344V155.352H489.328V162.359H489.152C488.438 160.977 486.949 160.145 485.191 160.145C481.98 160.145 479.883 162.723 479.883 166.684C479.883 170.656 481.957 173.223 485.191 173.223ZM485.66 161.961C487.945 161.961 489.375 163.789 489.375 166.684C489.375 169.602 487.957 171.406 485.66 171.406C483.352 171.406 481.969 169.637 481.969 166.684C481.969 163.742 483.363 161.961 485.66 161.961ZM506.707 173.223C508.453 173.223 509.953 172.391 510.75 170.984H510.938V173H512.859V155.352H510.844V162.359H510.668C509.953 160.977 508.465 160.145 506.707 160.145C503.496 160.145 501.398 162.723 501.398 166.684C501.398 170.656 503.473 173.223 506.707 173.223ZM507.176 161.961C509.461 161.961 510.891 163.789 510.891 166.684C510.891 169.602 509.473 171.406 507.176 171.406C504.867 171.406 503.484 169.637 503.484 166.684C503.484 163.742 504.879 161.961 507.176 161.961ZM521.812 161.926C523.816 161.926 525.152 163.402 525.199 165.641H518.238C518.391 163.402 519.797 161.926 521.812 161.926ZM525.141 169.73C524.613 170.844 523.512 171.441 521.883 171.441C519.738 171.441 518.344 169.859 518.238 167.363V167.27H527.32V166.496C527.32 162.57 525.246 160.145 521.836 160.145C518.367 160.145 516.141 162.723 516.141 166.695C516.141 170.691 518.332 173.223 521.836 173.223C524.602 173.223 526.547 171.898 527.156 169.73H525.141ZM536.766 173.223C539.965 173.223 542.062 170.633 542.062 166.684C542.062 162.711 539.977 160.145 536.766 160.145C535.031 160.145 533.496 161 532.805 162.359H532.617V155.352H530.602V173H532.523V170.984H532.711C533.508 172.391 535.008 173.223 536.766 173.223ZM536.297 161.961C538.605 161.961 539.977 163.73 539.977 166.684C539.977 169.637 538.605 171.406 536.297 171.406C534 171.406 532.57 169.602 532.57 166.684C532.57 163.766 534 161.961 536.297 161.961ZM546.07 157.098V160.367H544.031V162.055H546.07V169.719C546.07 172.133 547.113 173.094 549.715 173.094C550.113 173.094 550.5 173.047 550.898 172.977V171.277C550.523 171.312 550.324 171.324 549.961 171.324C548.648 171.324 548.086 170.691 548.086 169.203V162.055H550.898V160.367H548.086V157.098H546.07ZM571.172 164.234C570.82 161.984 568.945 160.145 565.875 160.145C562.336 160.145 560.086 162.699 560.086 166.637C560.086 170.656 562.348 173.223 565.887 173.223C568.922 173.223 570.809 171.512 571.172 169.191H569.133C568.758 170.621 567.574 171.406 565.875 171.406C563.625 171.406 562.172 169.555 562.172 166.637C562.172 163.777 563.602 161.961 565.875 161.961C567.691 161.961 568.805 162.98 569.133 164.234H571.172ZM578.039 171.453C576.574 171.453 575.484 170.703 575.484 169.414C575.484 168.148 576.328 167.48 578.25 167.352L581.648 167.129V168.289C581.648 170.094 580.113 171.453 578.039 171.453ZM577.664 173.223C579.352 173.223 580.734 172.484 581.555 171.137H581.742V173H583.664V164.352C583.664 161.727 581.941 160.145 578.859 160.145C576.164 160.145 574.172 161.48 573.902 163.508H575.941C576.223 162.512 577.277 161.938 578.789 161.938C580.676 161.938 581.648 162.793 581.648 164.352V165.5L578.004 165.723C575.062 165.898 573.398 167.199 573.398 169.461C573.398 171.77 575.215 173.223 577.664 173.223ZM587.391 173H589.406V165.172C589.406 163.391 590.801 162.102 592.723 162.102C593.121 162.102 593.848 162.172 594.012 162.219V160.203C593.754 160.168 593.332 160.145 593.004 160.145C591.328 160.145 589.875 161.012 589.5 162.242H589.312V160.367H587.391V173ZM600.855 173.223C602.602 173.223 604.102 172.391 604.898 170.984H605.086V173H607.008V155.352H604.992V162.359H604.816C604.102 160.977 602.613 160.145 600.855 160.145C597.645 160.145 595.547 162.723 595.547 166.684C595.547 170.656 597.621 173.223 600.855 173.223ZM601.324 161.961C603.609 161.961 605.039 163.789 605.039 166.684C605.039 169.602 603.621 171.406 601.324 171.406C599.016 171.406 597.633 169.637 597.633 166.684C597.633 163.742 599.027 161.961 601.324 161.961ZM617.695 173H619.711V165.523C619.711 163.309 621.012 161.961 623.027 161.961C625.043 161.961 626.004 163.039 626.004 165.312V173H628.02V164.82C628.02 161.82 626.438 160.145 623.602 160.145C621.668 160.145 620.438 160.965 619.805 162.359H619.617V160.367H617.695V173ZM641.93 160.367H639.914V167.844C639.914 170.059 638.695 171.383 636.469 171.383C634.453 171.383 633.609 170.328 633.609 168.055V160.367H631.594V168.547C631.594 171.535 633.07 173.223 635.906 173.223C637.84 173.223 639.188 172.426 639.82 171.02H640.008V173H641.93V160.367ZM645.727 173H647.742V165.172C647.742 163.391 649.02 161.961 650.672 161.961C652.266 161.961 653.309 162.922 653.309 164.422V173H655.324V164.879C655.324 163.273 656.496 161.961 658.254 161.961C660.035 161.961 660.914 162.875 660.914 164.738V173H662.93V164.27C662.93 161.621 661.488 160.145 658.91 160.145C657.164 160.145 655.723 161.023 655.043 162.359H654.855C654.27 161.047 653.074 160.145 651.363 160.145C649.676 160.145 648.41 160.953 647.836 162.359H647.648V160.367H645.727V173ZM672.891 173.223C676.09 173.223 678.188 170.633 678.188 166.684C678.188 162.711 676.102 160.145 672.891 160.145C671.156 160.145 669.621 161 668.93 162.359H668.742V155.352H666.727V173H668.648V170.984H668.836C669.633 172.391 671.133 173.223 672.891 173.223ZM672.422 161.961C674.73 161.961 676.102 163.73 676.102 166.684C676.102 169.637 674.73 171.406 672.422 171.406C670.125 171.406 668.695 169.602 668.695 166.684C668.695 163.766 670.125 161.961 672.422 161.961ZM686.391 161.926C688.395 161.926 689.73 163.402 689.777 165.641H682.816C682.969 163.402 684.375 161.926 686.391 161.926ZM689.719 169.73C689.191 170.844 688.09 171.441 686.461 171.441C684.316 171.441 682.922 169.859 682.816 167.363V167.27H691.898V166.496C691.898 162.57 689.824 160.145 686.414 160.145C682.945 160.145 680.719 162.723 680.719 166.695C680.719 170.691 682.91 173.223 686.414 173.223C689.18 173.223 691.125 171.898 691.734 169.73H689.719ZM695.062 173H697.078V165.172C697.078 163.391 698.473 162.102 700.395 162.102C700.793 162.102 701.52 162.172 701.684 162.219V160.203C701.426 160.168 701.004 160.145 700.676 160.145C699 160.145 697.547 161.012 697.172 162.242H696.984V160.367H695.062V173ZM302.789 200.453C301.324 200.453 300.234 199.703 300.234 198.414C300.234 197.148 301.078 196.48 303 196.352L306.398 196.129V197.289C306.398 199.094 304.863 200.453 302.789 200.453ZM302.414 202.223C304.102 202.223 305.484 201.484 306.305 200.137H306.492V202H308.414V193.352C308.414 190.727 306.691 189.145 303.609 189.145C300.914 189.145 298.922 190.48 298.652 192.508H300.691C300.973 191.512 302.027 190.938 303.539 190.938C305.426 190.938 306.398 191.793 306.398 193.352V194.5L302.754 194.723C299.812 194.898 298.148 196.199 298.148 198.461C298.148 200.77 299.965 202.223 302.414 202.223ZM312.984 186.098V189.367H310.945V191.055H312.984V198.719C312.984 201.133 314.027 202.094 316.629 202.094C317.027 202.094 317.414 202.047 317.812 201.977V200.277C317.438 200.312 317.238 200.324 316.875 200.324C315.562 200.324 315 199.691 315 198.203V191.055H317.812V189.367H315V186.098H312.984ZM333.785 189.145C332.062 189.145 330.551 190.023 329.742 191.477H329.555V189.367H327.633V206.219H329.648V200.102H329.836C330.527 201.438 331.98 202.223 333.785 202.223C336.996 202.223 339.094 199.633 339.094 195.684C339.094 191.711 337.008 189.145 333.785 189.145ZM333.305 200.406C331.031 200.406 329.59 198.578 329.59 195.684C329.59 192.777 331.031 190.961 333.316 190.961C335.625 190.961 337.008 192.73 337.008 195.684C337.008 198.637 335.625 200.406 333.305 200.406ZM346.148 200.453C344.684 200.453 343.594 199.703 343.594 198.414C343.594 197.148 344.438 196.48 346.359 196.352L349.758 196.129V197.289C349.758 199.094 348.223 200.453 346.148 200.453ZM345.773 202.223C347.461 202.223 348.844 201.484 349.664 200.137H349.852V202H351.773V193.352C351.773 190.727 350.051 189.145 346.969 189.145C344.273 189.145 342.281 190.48 342.012 192.508H344.051C344.332 191.512 345.387 190.938 346.898 190.938C348.785 190.938 349.758 191.793 349.758 193.352V194.5L346.113 194.723C343.172 194.898 341.508 196.199 341.508 198.461C341.508 200.77 343.324 202.223 345.773 202.223ZM356.109 206.57C358.348 206.57 359.355 205.703 360.434 202.773L365.367 189.367H363.223L359.766 199.762H359.578L356.109 189.367H353.93L358.605 202.012L358.371 202.762C357.844 204.285 357.211 204.836 356.051 204.836C355.77 204.836 355.453 204.824 355.207 204.777V206.5C355.488 206.547 355.84 206.57 356.109 206.57ZM368.062 202H370.078V194.172C370.078 192.391 371.355 190.961 373.008 190.961C374.602 190.961 375.645 191.922 375.645 193.422V202H377.66V193.879C377.66 192.273 378.832 190.961 380.59 190.961C382.371 190.961 383.25 191.875 383.25 193.738V202H385.266V193.27C385.266 190.621 383.824 189.145 381.246 189.145C379.5 189.145 378.059 190.023 377.379 191.359H377.191C376.605 190.047 375.41 189.145 373.699 189.145C372.012 189.145 370.746 189.953 370.172 191.359H369.984V189.367H368.062V202ZM393.984 190.926C395.988 190.926 397.324 192.402 397.371 194.641H390.41C390.562 192.402 391.969 190.926 393.984 190.926ZM397.312 198.73C396.785 199.844 395.684 200.441 394.055 200.441C391.91 200.441 390.516 198.859 390.41 196.363V196.27H399.492V195.496C399.492 191.57 397.418 189.145 394.008 189.145C390.539 189.145 388.312 191.723 388.312 195.695C388.312 199.691 390.504 202.223 394.008 202.223C396.773 202.223 398.719 200.898 399.328 198.73H397.312ZM402.656 202H404.672V194.523C404.672 192.309 405.973 190.961 407.988 190.961C410.004 190.961 410.965 192.039 410.965 194.312V202H412.98V193.82C412.98 190.82 411.398 189.145 408.562 189.145C406.629 189.145 405.398 189.965 404.766 191.359H404.578V189.367H402.656V202ZM417.516 186.098V189.367H415.477V191.055H417.516V198.719C417.516 201.133 418.559 202.094 421.16 202.094C421.559 202.094 421.945 202.047 422.344 201.977V200.277C421.969 200.312 421.77 200.324 421.406 200.324C420.094 200.324 419.531 199.691 419.531 198.203V191.055H422.344V189.367H419.531V186.098H417.516ZM438.035 202H439.711L440.672 197.277H443.742L444.07 195.59H441.012L441.891 191.324H444.832L445.16 189.648H442.242L443.18 185.09H441.504L440.555 189.648H436.734L437.648 185.09H435.984L435.035 189.648H432.141L431.801 191.324H434.695L433.84 195.59H431.062L430.734 197.277H433.477L432.527 202H434.191L435.152 197.277H438.996L438.035 202ZM435.48 195.625L436.359 191.301H440.227L439.348 195.625H435.48ZM451.383 202H453.492V185.09H451.395L446.895 188.324V190.551L451.195 187.434H451.383V202ZM462 194.207H464.145C466.547 194.207 468.035 195.426 468.035 197.383C468.035 199.234 466.453 200.559 464.227 200.559C462.047 200.559 460.523 199.398 460.336 197.594H458.297C458.449 200.488 460.816 202.398 464.25 202.398C467.59 202.398 470.203 200.23 470.203 197.441C470.203 195.133 468.809 193.539 466.512 193.246V193.059C468.363 192.613 469.477 191.137 469.477 189.121C469.477 186.66 467.121 184.691 464.168 184.691C460.945 184.691 458.848 186.496 458.637 189.426H460.688C460.863 187.609 462.141 186.531 464.086 186.531C466.031 186.531 467.332 187.68 467.332 189.402C467.332 191.16 465.973 192.402 464.051 192.402H462V194.207ZM473.484 189.848V189.859H475.523V189.848C475.523 187.855 476.859 186.531 478.84 186.531C480.703 186.531 482.145 187.832 482.145 189.52C482.145 190.879 481.617 191.793 479.438 194.16L473.59 200.547V202H484.535V200.102H476.613V199.914L480.68 195.543C483.457 192.566 484.254 191.195 484.254 189.438C484.254 186.754 481.934 184.691 478.898 184.691C475.758 184.691 473.484 186.848 473.484 189.848ZM491.555 194.207H493.699C496.102 194.207 497.59 195.426 497.59 197.383C497.59 199.234 496.008 200.559 493.781 200.559C491.602 200.559 490.078 199.398 489.891 197.594H487.852C488.004 200.488 490.371 202.398 493.805 202.398C497.145 202.398 499.758 200.23 499.758 197.441C499.758 195.133 498.363 193.539 496.066 193.246V193.059C497.918 192.613 499.031 191.137 499.031 189.121C499.031 186.66 496.676 184.691 493.723 184.691C490.5 184.691 488.402 186.496 488.191 189.426H490.242C490.418 187.609 491.695 186.531 493.641 186.531C495.586 186.531 496.887 187.68 496.887 189.402C496.887 191.16 495.527 192.402 493.605 192.402H491.555V194.207ZM504 202.117C504.844 202.117 505.523 201.426 505.523 200.594C505.523 199.75 504.844 199.07 504 199.07C503.168 199.07 502.477 199.75 502.477 200.594C502.477 201.426 503.168 202.117 504 202.117ZM527.484 202H529.699L523.465 185.09H521.379L515.145 202H517.359L519.059 197.16H525.785L527.484 202ZM522.328 187.82H522.516L525.164 195.367H519.68L522.328 187.82ZM536.379 202.223C538.125 202.223 539.625 201.391 540.422 199.984H540.609V202H542.531V184.352H540.516V191.359H540.34C539.625 189.977 538.137 189.145 536.379 189.145C533.168 189.145 531.07 191.723 531.07 195.684C531.07 199.656 533.145 202.223 536.379 202.223ZM536.848 190.961C539.133 190.961 540.562 192.789 540.562 195.684C540.562 198.602 539.145 200.406 536.848 200.406C534.539 200.406 533.156 198.637 533.156 195.684C533.156 192.742 534.551 190.961 536.848 190.961ZM551.121 202.223C552.867 202.223 554.367 201.391 555.164 199.984H555.352V202H557.273V184.352H555.258V191.359H555.082C554.367 189.977 552.879 189.145 551.121 189.145C547.91 189.145 545.812 191.723 545.812 195.684C545.812 199.656 547.887 202.223 551.121 202.223ZM551.59 190.961C553.875 190.961 555.305 192.789 555.305 195.684C555.305 198.602 553.887 200.406 551.59 200.406C549.281 200.406 547.898 198.637 547.898 195.684C547.898 192.742 549.293 190.961 551.59 190.961ZM568.008 202H570.023V189.367H568.008V202ZM569.016 186.801C569.789 186.801 570.422 186.168 570.422 185.395C570.422 184.621 569.789 183.988 569.016 183.988C568.242 183.988 567.609 184.621 567.609 185.395C567.609 186.168 568.242 186.801 569.016 186.801ZM574.711 186.098V189.367H572.672V191.055H574.711V198.719C574.711 201.133 575.754 202.094 578.355 202.094C578.754 202.094 579.141 202.047 579.539 201.977V200.277C579.164 200.312 578.965 200.324 578.602 200.324C577.289 200.324 576.727 199.691 576.727 198.203V191.055H579.539V189.367H576.727V186.098H574.711ZM589.359 202H591.375V194.523C591.375 192.309 592.676 190.961 594.691 190.961C596.707 190.961 597.668 192.039 597.668 194.312V202H599.684V193.82C599.684 190.82 598.102 189.145 595.266 189.145C593.332 189.145 592.102 189.965 591.469 191.359H591.281V189.367H589.359V202ZM608.566 202.223C612.164 202.223 614.391 199.738 614.391 195.684C614.391 191.617 612.164 189.145 608.566 189.145C604.969 189.145 602.742 191.617 602.742 195.684C602.742 199.738 604.969 202.223 608.566 202.223ZM608.566 200.406C606.176 200.406 604.828 198.672 604.828 195.684C604.828 192.684 606.176 190.961 608.566 190.961C610.957 190.961 612.305 192.684 612.305 195.684C612.305 198.672 610.957 200.406 608.566 200.406ZM632.977 189.367H630.949L628.465 199.469H628.277L625.453 189.367H623.52L620.695 199.469H620.508L618.023 189.367H615.984L619.523 202H621.562L624.375 192.227H624.562L627.387 202H629.438L632.977 189.367ZM635.578 202.117C636.422 202.117 637.102 201.426 637.102 200.594C637.102 199.75 636.422 199.07 635.578 199.07C634.746 199.07 634.055 199.75 634.055 200.594C634.055 201.426 634.746 202.117 635.578 202.117Z" fill="#33404F"/>
<path d="M41 97C41 91.4772 45.4772 87 51 87H228C233.523 87 238 91.4772 238 97V195C238 200.523 233.523 205 228 205H51C45.4771 205 41 200.523 41 195V97Z" fill="#00DDA3"/>
<rect x="41" y="107" width="197" height="22" fill="white"/>
<rect x="41.5" y="86.5" width="197" height="117" rx="8.5" stroke="#33404F" stroke-width="3"/>
<path d="M248 109V205C248 210.523 243.523 215 238 215H55" stroke="#33404F" stroke-width="3" stroke-linecap="round"/>
<path d="M42 107L80 107" stroke="#33404F" stroke-width="3" stroke-linecap="round"/>
<path d="M103 107L238 107" stroke="#33404F" stroke-width="3" stroke-linecap="round"/>
<path d="M41 129L240 129" stroke="#33404F" stroke-width="3"/>
<rect x="53" y="173" width="50" height="8" fill="white"/>
<rect x="53" y="185" width="86" height="8" fill="white"/>
<circle cx="216" cy="183" r="10" fill="#33404F"/>
<path fill-rule="evenodd" clip-rule="evenodd" d="M209.951 192.189C206.968 190.222 205 186.841 205 183C205 179.159 206.968 175.778 209.951 173.811C208.739 173.289 207.403 173 206 173C200.477 173 196 177.477 196 183C196 188.523 200.477 193 206 193C207.403 193 208.739 192.711 209.951 192.189Z" fill="#33404F"/>
</svg>
