<svg width="100" height="72" viewBox="0 0 100 72" fill="none" xmlns="http://www.w3.org/2000/svg">
<path d="M12.8271 22.335H18.877V18.5557H12.8271V12.5791H9.0918V18.5557H3.05664V22.335H9.0918V28.3262H12.8271V22.335ZM23.2275 14.1904V14.2637H27.3291V14.1758C27.3291 12.2275 28.7354 10.8799 30.7861 10.8799C32.7197 10.8799 34.0967 12.0811 34.0967 13.7803C34.0967 15.1572 33.3496 16.2559 30.376 19.1562L23.4766 25.9092V29H38.7256V25.3232H29.4678V25.0596L33.5107 21.207C37.1729 17.7646 38.418 15.7871 38.418 13.4873C38.418 9.85449 35.3418 7.32031 30.9326 7.32031C26.3623 7.32031 23.2275 10.1035 23.2275 14.1904ZM51.0449 29.542C56.1279 29.542 59.5996 27.0225 59.5996 23.3164C59.5996 20.6211 57.7393 18.4824 54.9268 17.9551V17.6914C57.2412 17.1494 58.7354 15.3477 58.7354 13.0918C58.7354 9.72266 55.542 7.32031 51.0596 7.32031C46.5625 7.32031 43.3691 9.72266 43.3691 13.0918C43.3691 15.333 44.8779 17.1641 47.1777 17.6914V17.9551C44.3506 18.585 42.5195 20.709 42.5195 23.3604C42.5195 27.0371 45.9619 29.542 51.0449 29.542ZM51.0449 26.2021C48.7305 26.2021 47.1191 24.8691 47.1191 22.9502C47.1191 21.0166 48.7305 19.6836 51.0449 19.6836C53.374 19.6836 54.9854 21.0166 54.9854 22.9502C54.9854 24.8691 53.374 26.2021 51.0449 26.2021ZM51.0449 16.417C49.0967 16.417 47.7344 15.2158 47.7344 13.5166C47.7344 11.8027 49.082 10.6016 51.0449 10.6016C53.0078 10.6016 54.3701 11.8027 54.3701 13.5166C54.3701 15.2158 53.0078 16.417 51.0449 16.417ZM65.5176 29.3955C67.0996 29.3955 68.1104 28.3262 68.1104 26.8467C68.1104 25.3672 67.0996 24.3125 65.5176 24.3125C63.9502 24.3125 62.9248 25.3672 62.9248 26.8467C62.9248 28.3262 63.9502 29.3955 65.5176 29.3955ZM76.4307 29H80.8545V7.8623H76.4453L70.9814 11.627V15.7432L76.167 12.1689H76.4307V29ZM91.8408 29H96.2646V7.8623H91.8555L86.3916 11.627V15.7432L91.5771 12.1689H91.8408V29Z" fill="#33404F"/>
<path opacity="0.5" d="M34.6768 67V60.5762H41.3369V58.4492H34.6768V53.6904H41.9492V51.499H32.2705V67H34.6768ZM49.6084 57.042C51.3164 57.042 52.4336 58.2344 52.4873 60.0713H46.5791C46.708 58.2451 47.9004 57.042 49.6084 57.042ZM52.4766 63.8418C52.0469 64.7549 51.0908 65.2598 49.6943 65.2598C47.8467 65.2598 46.6543 63.96 46.5791 61.9082V61.7793H54.8398V60.9736C54.8398 57.2998 52.874 55.0762 49.6191 55.0762C46.3213 55.0762 44.2266 57.4502 44.2266 61.1885C44.2266 64.9268 46.2783 67.2256 49.6299 67.2256C52.3047 67.2256 54.1738 65.9365 54.7002 63.8418H52.4766ZM63.8096 67.1934C66.7637 67.1934 68.6436 64.8516 68.6436 61.1455C68.6436 57.4287 66.7744 55.1084 63.8096 55.1084C62.209 55.1084 60.834 55.8818 60.2109 57.1602H60.0283V50.7363H57.7188V67H59.9424V65.1523H60.1143C60.8125 66.4414 62.1768 67.1934 63.8096 67.1934ZM63.1436 57.1816C65.0986 57.1816 66.2695 58.6855 66.2695 61.1455C66.2695 63.627 65.0986 65.1201 63.1436 65.1201C61.1992 65.1201 59.9961 63.6055 59.9854 61.1562C59.9961 58.707 61.21 57.1816 63.1436 57.1816ZM77.3125 55.9785V56.0107H79.5898V55.9785C79.5898 54.3242 80.7393 53.207 82.4473 53.207C84.0479 53.207 85.2617 54.2705 85.2617 55.6885C85.2617 56.8271 84.7568 57.6436 82.6836 59.8027L77.4414 65.2598V67H87.8828V64.8408H80.793V64.6582L84.2412 61.167C86.8408 58.5352 87.6357 57.1924 87.6357 55.5488C87.6357 52.9922 85.4658 51.123 82.5225 51.123C79.4717 51.123 77.3125 53.1211 77.3125 55.9785ZM94.7578 67H97.1641V51.499H94.7686L90.6865 54.3779V56.8379L94.5752 54.0879H94.7578V67Z" fill="#33404F"/>
</svg>
