<svg width="234" height="60" viewBox="0 0 234 60" fill="none" xmlns="http://www.w3.org/2000/svg">
<rect width="234" height="60" rx="30" fill="#00DDA3"/>
<path d="M61.0332 34.4316H54.7637V22.9082H51.8145V37H61.0332V34.4316ZM73.0449 34.4805H66.6582V31.0527H72.6836V28.7188H66.6582V25.4277H73.0449V22.9082H63.709V37H73.0449V34.4805ZM85.2031 37H88.3965L83.5039 22.9082H80.0371L75.1445 37H78.1035L79.1875 33.6406H84.1387L85.2031 37ZM81.5898 25.8379H81.7656L83.5137 31.3652H79.8223L81.5898 25.8379ZM93.748 25.291H96.3066C97.7715 25.291 98.6895 26.1309 98.6895 27.4688C98.6895 28.8262 97.8203 29.627 96.3359 29.627H93.748V25.291ZM93.748 31.8926H96.1602L98.7871 37H102.127L99.1582 31.4336C100.779 30.7891 101.717 29.2266 101.717 27.4297C101.717 24.627 99.8125 22.9082 96.7168 22.9082H90.7988V37H93.748V31.8926ZM107.508 37V28.1816H107.684L114.188 37H116.629V22.9082H113.807V31.6875H113.631L107.146 22.9082H104.686V37H107.508ZM140.135 37V22.9082H136.668L132.762 32.3809H132.586L128.689 22.9082H125.213V37H127.947V27.5762H128.104L131.697 36.1895H133.66L137.244 27.5762H137.4V37H140.135ZM149.715 22.5469C145.574 22.5469 142.928 25.3789 142.928 29.9492C142.928 34.5195 145.535 37.3613 149.715 37.3613C153.885 37.3613 156.482 34.5195 156.482 29.9492C156.482 25.3887 153.875 22.5469 149.715 22.5469ZM149.715 25.1348C152.01 25.1348 153.475 27 153.475 29.9492C153.475 32.8887 152.01 34.7734 149.715 34.7734C147.4 34.7734 145.945 32.8887 145.945 29.9492C145.945 27 147.43 25.1348 149.715 25.1348ZM162.225 25.291H164.783C166.248 25.291 167.166 26.1309 167.166 27.4688C167.166 28.8262 166.297 29.627 164.812 29.627H162.225V25.291ZM162.225 31.8926H164.637L167.264 37H170.604L167.635 31.4336C169.256 30.7891 170.193 29.2266 170.193 27.4297C170.193 24.627 168.289 22.9082 165.193 22.9082H159.275V37H162.225V31.8926ZM182.498 34.4805H176.111V31.0527H182.137V28.7188H176.111V25.4277H182.498V22.9082H173.162V37H182.498V34.4805Z" fill="white"/>
</svg>
